<svg width="46" height="15" viewBox="0 0 46 15" fill="none" xmlns="http://www.w3.org/2000/svg">
<mask id="path-1-outside-1_28_107" maskUnits="userSpaceOnUse" x="0" y="2" width="46" height="11" fill="black">
<rect fill="white" y="2" width="46" height="11"/>
<path d="M3.26278 12H1.28551L4.2983 3.27273H6.67614L9.68466 12H7.70739L5.52131 5.26705H5.45312L3.26278 12ZM3.1392 8.5696H7.80966V10.0099H3.1392V8.5696ZM12.5803 3.27273V12H10.7351V3.27273H12.5803ZM14.0984 12V3.27273H17.5415C18.2006 3.27273 18.7631 3.39062 19.229 3.62642C19.6978 3.85937 20.0543 4.19034 20.2987 4.61932C20.5458 5.04545 20.6694 5.54687 20.6694 6.12358C20.6694 6.70312 20.5444 7.2017 20.2944 7.61932C20.0444 8.03409 19.6822 8.35227 19.2077 8.57386C18.7362 8.79545 18.1651 8.90625 17.4947 8.90625H15.1893V7.4233H17.1964C17.5487 7.4233 17.8413 7.375 18.0742 7.27841C18.3072 7.18182 18.4805 7.03693 18.5941 6.84375C18.7106 6.65057 18.7688 6.41051 18.7688 6.12358C18.7688 5.83381 18.7106 5.58949 18.5941 5.39062C18.4805 5.19176 18.3058 5.04119 18.07 4.93892C17.837 4.83381 17.543 4.78125 17.1879 4.78125H15.9435V12H14.0984ZM18.8114 8.02841L20.9805 12H18.9435L16.8214 8.02841H18.8114ZM21.9734 12V3.27273H25.4677C26.1097 3.27273 26.6452 3.3679 27.0742 3.55824C27.5032 3.74858 27.8256 4.01278 28.0415 4.35085C28.2575 4.68608 28.3654 5.07244 28.3654 5.50994C28.3654 5.85085 28.2972 6.15057 28.1609 6.40909C28.0245 6.66477 27.837 6.875 27.5984 7.03977C27.3626 7.2017 27.0927 7.31676 26.7887 7.38494V7.47017C27.1211 7.48437 27.4322 7.57812 27.7219 7.75142C28.0146 7.92472 28.2518 8.16761 28.4336 8.48011C28.6154 8.78977 28.7063 9.15909 28.7063 9.58807C28.7063 10.0511 28.5913 10.4645 28.3612 10.8281C28.1339 11.1889 27.7972 11.4744 27.3512 11.6847C26.9052 11.8949 26.3555 12 25.7021 12H21.9734ZM23.8185 10.4915H25.3228C25.837 10.4915 26.212 10.3935 26.4478 10.1974C26.6836 9.99858 26.8015 9.73437 26.8015 9.40483C26.8015 9.16335 26.7433 8.95028 26.6268 8.76562C26.5103 8.58097 26.3441 8.43608 26.1282 8.33097C25.9151 8.22585 25.6609 8.1733 25.3654 8.1733H23.8185V10.4915ZM23.8185 6.92472H25.1864C25.4393 6.92472 25.6637 6.88068 25.8597 6.79261C26.0586 6.7017 26.2148 6.57386 26.3285 6.40909C26.445 6.24432 26.5032 6.04688 26.5032 5.81676C26.5032 5.50142 26.391 5.24716 26.1665 5.05398C25.945 4.8608 25.6296 4.7642 25.2205 4.7642H23.8185V6.92472ZM35.2976 3.27273H37.1428V8.94034C37.1428 9.5767 36.9908 10.1335 36.6868 10.6108C36.3857 11.0881 35.9638 11.4602 35.4212 11.7273C34.8786 11.9915 34.2464 12.1236 33.5249 12.1236C32.8004 12.1236 32.1669 11.9915 31.6243 11.7273C31.0817 11.4602 30.6598 11.0881 30.3587 10.6108C30.0575 10.1335 29.907 9.5767 29.907 8.94034V3.27273H31.7521V8.78267C31.7521 9.11506 31.8246 9.41051 31.9695 9.66903C32.1172 9.92756 32.3246 10.1307 32.5916 10.2784C32.8587 10.4261 33.1697 10.5 33.5249 10.5C33.8828 10.5 34.1939 10.4261 34.4581 10.2784C34.7251 10.1307 34.9311 9.92756 35.076 9.66903C35.2237 9.41051 35.2976 9.11506 35.2976 8.78267V3.27273ZM43.3952 5.78267C43.3612 5.43892 43.2148 5.17187 42.9563 4.98153C42.6978 4.79119 42.3469 4.69602 41.9038 4.69602C41.6026 4.69602 41.3484 4.73864 41.141 4.82386C40.9336 4.90625 40.7745 5.02131 40.6637 5.16903C40.5558 5.31676 40.5018 5.48438 40.5018 5.67188C40.4961 5.82812 40.5288 5.96449 40.5998 6.08097C40.6737 6.19744 40.7745 6.2983 40.9023 6.38352C41.0302 6.46591 41.1779 6.53835 41.3455 6.60085C41.5131 6.66051 41.6921 6.71165 41.8825 6.75426L42.6665 6.94176C43.0472 7.02699 43.3967 7.14062 43.7148 7.28267C44.033 7.42472 44.3086 7.59943 44.5415 7.80682C44.7745 8.0142 44.9549 8.25852 45.0827 8.53977C45.2134 8.82102 45.2802 9.14347 45.283 9.5071C45.2802 10.0412 45.1438 10.5043 44.8739 10.8963C44.6069 11.2855 44.2205 11.5881 43.7148 11.804C43.212 12.017 42.6055 12.1236 41.8952 12.1236C41.1907 12.1236 40.5771 12.0156 40.0543 11.7997C39.5344 11.5838 39.1282 11.2642 38.8356 10.8409C38.5458 10.4148 38.3938 9.88778 38.3796 9.25994H40.1651C40.185 9.55256 40.2688 9.79687 40.4165 9.9929C40.5671 10.1861 40.7674 10.3324 41.0174 10.4318C41.2702 10.5284 41.5558 10.5767 41.8739 10.5767C42.1864 10.5767 42.4577 10.5312 42.6879 10.4403C42.9208 10.3494 43.1012 10.223 43.229 10.0611C43.3569 9.89915 43.4208 9.71307 43.4208 9.50284C43.4208 9.30682 43.3626 9.14205 43.2461 9.00852C43.1325 8.875 42.9648 8.76136 42.7433 8.66761C42.5245 8.57386 42.256 8.48864 41.9379 8.41193L40.9876 8.1733C40.2518 7.99432 39.6708 7.71449 39.2447 7.33381C38.8185 6.95312 38.6069 6.44034 38.6097 5.79545C38.6069 5.26705 38.7475 4.8054 39.0316 4.41051C39.3185 4.01562 39.712 3.70739 40.212 3.4858C40.712 3.2642 41.2802 3.15341 41.9165 3.15341C42.5643 3.15341 43.1296 3.2642 43.6126 3.4858C44.0984 3.70739 44.4762 4.01562 44.7461 4.41051C45.016 4.8054 45.1552 5.26278 45.1637 5.78267H43.3952Z"/>
</mask>
<path d="M3.26278 12H1.28551L4.2983 3.27273H6.67614L9.68466 12H7.70739L5.52131 5.26705H5.45312L3.26278 12ZM3.1392 8.5696H7.80966V10.0099H3.1392V8.5696ZM12.5803 3.27273V12H10.7351V3.27273H12.5803ZM14.0984 12V3.27273H17.5415C18.2006 3.27273 18.7631 3.39062 19.229 3.62642C19.6978 3.85937 20.0543 4.19034 20.2987 4.61932C20.5458 5.04545 20.6694 5.54687 20.6694 6.12358C20.6694 6.70312 20.5444 7.2017 20.2944 7.61932C20.0444 8.03409 19.6822 8.35227 19.2077 8.57386C18.7362 8.79545 18.1651 8.90625 17.4947 8.90625H15.1893V7.4233H17.1964C17.5487 7.4233 17.8413 7.375 18.0742 7.27841C18.3072 7.18182 18.4805 7.03693 18.5941 6.84375C18.7106 6.65057 18.7688 6.41051 18.7688 6.12358C18.7688 5.83381 18.7106 5.58949 18.5941 5.39062C18.4805 5.19176 18.3058 5.04119 18.07 4.93892C17.837 4.83381 17.543 4.78125 17.1879 4.78125H15.9435V12H14.0984ZM18.8114 8.02841L20.9805 12H18.9435L16.8214 8.02841H18.8114ZM21.9734 12V3.27273H25.4677C26.1097 3.27273 26.6452 3.3679 27.0742 3.55824C27.5032 3.74858 27.8256 4.01278 28.0415 4.35085C28.2575 4.68608 28.3654 5.07244 28.3654 5.50994C28.3654 5.85085 28.2972 6.15057 28.1609 6.40909C28.0245 6.66477 27.837 6.875 27.5984 7.03977C27.3626 7.2017 27.0927 7.31676 26.7887 7.38494V7.47017C27.1211 7.48437 27.4322 7.57812 27.7219 7.75142C28.0146 7.92472 28.2518 8.16761 28.4336 8.48011C28.6154 8.78977 28.7063 9.15909 28.7063 9.58807C28.7063 10.0511 28.5913 10.4645 28.3612 10.8281C28.1339 11.1889 27.7972 11.4744 27.3512 11.6847C26.9052 11.8949 26.3555 12 25.7021 12H21.9734ZM23.8185 10.4915H25.3228C25.837 10.4915 26.212 10.3935 26.4478 10.1974C26.6836 9.99858 26.8015 9.73437 26.8015 9.40483C26.8015 9.16335 26.7433 8.95028 26.6268 8.76562C26.5103 8.58097 26.3441 8.43608 26.1282 8.33097C25.9151 8.22585 25.6609 8.1733 25.3654 8.1733H23.8185V10.4915ZM23.8185 6.92472H25.1864C25.4393 6.92472 25.6637 6.88068 25.8597 6.79261C26.0586 6.7017 26.2148 6.57386 26.3285 6.40909C26.445 6.24432 26.5032 6.04688 26.5032 5.81676C26.5032 5.50142 26.391 5.24716 26.1665 5.05398C25.945 4.8608 25.6296 4.7642 25.2205 4.7642H23.8185V6.92472ZM35.2976 3.27273H37.1428V8.94034C37.1428 9.5767 36.9908 10.1335 36.6868 10.6108C36.3857 11.0881 35.9638 11.4602 35.4212 11.7273C34.8786 11.9915 34.2464 12.1236 33.5249 12.1236C32.8004 12.1236 32.1669 11.9915 31.6243 11.7273C31.0817 11.4602 30.6598 11.0881 30.3587 10.6108C30.0575 10.1335 29.907 9.5767 29.907 8.94034V3.27273H31.7521V8.78267C31.7521 9.11506 31.8246 9.41051 31.9695 9.66903C32.1172 9.92756 32.3246 10.1307 32.5916 10.2784C32.8587 10.4261 33.1697 10.5 33.5249 10.5C33.8828 10.5 34.1939 10.4261 34.4581 10.2784C34.7251 10.1307 34.9311 9.92756 35.076 9.66903C35.2237 9.41051 35.2976 9.11506 35.2976 8.78267V3.27273ZM43.3952 5.78267C43.3612 5.43892 43.2148 5.17187 42.9563 4.98153C42.6978 4.79119 42.3469 4.69602 41.9038 4.69602C41.6026 4.69602 41.3484 4.73864 41.141 4.82386C40.9336 4.90625 40.7745 5.02131 40.6637 5.16903C40.5558 5.31676 40.5018 5.48438 40.5018 5.67188C40.4961 5.82812 40.5288 5.96449 40.5998 6.08097C40.6737 6.19744 40.7745 6.2983 40.9023 6.38352C41.0302 6.46591 41.1779 6.53835 41.3455 6.60085C41.5131 6.66051 41.6921 6.71165 41.8825 6.75426L42.6665 6.94176C43.0472 7.02699 43.3967 7.14062 43.7148 7.28267C44.033 7.42472 44.3086 7.59943 44.5415 7.80682C44.7745 8.0142 44.9549 8.25852 45.0827 8.53977C45.2134 8.82102 45.2802 9.14347 45.283 9.5071C45.2802 10.0412 45.1438 10.5043 44.8739 10.8963C44.6069 11.2855 44.2205 11.5881 43.7148 11.804C43.212 12.017 42.6055 12.1236 41.8952 12.1236C41.1907 12.1236 40.5771 12.0156 40.0543 11.7997C39.5344 11.5838 39.1282 11.2642 38.8356 10.8409C38.5458 10.4148 38.3938 9.88778 38.3796 9.25994H40.1651C40.185 9.55256 40.2688 9.79687 40.4165 9.9929C40.5671 10.1861 40.7674 10.3324 41.0174 10.4318C41.2702 10.5284 41.5558 10.5767 41.8739 10.5767C42.1864 10.5767 42.4577 10.5312 42.6879 10.4403C42.9208 10.3494 43.1012 10.223 43.229 10.0611C43.3569 9.89915 43.4208 9.71307 43.4208 9.50284C43.4208 9.30682 43.3626 9.14205 43.2461 9.00852C43.1325 8.875 42.9648 8.76136 42.7433 8.66761C42.5245 8.57386 42.256 8.48864 41.9379 8.41193L40.9876 8.1733C40.2518 7.99432 39.6708 7.71449 39.2447 7.33381C38.8185 6.95312 38.6069 6.44034 38.6097 5.79545C38.6069 5.26705 38.7475 4.8054 39.0316 4.41051C39.3185 4.01562 39.712 3.70739 40.212 3.4858C40.712 3.2642 41.2802 3.15341 41.9165 3.15341C42.5643 3.15341 43.1296 3.2642 43.6126 3.4858C44.0984 3.70739 44.4762 4.01562 44.7461 4.41051C45.016 4.8054 45.1552 5.26278 45.1637 5.78267H43.3952Z" fill="#333333"/>
<path d="M3.26278 12V12.5H3.62592L3.73826 12.1547L3.26278 12ZM1.28551 12L0.812881 11.8368L0.583949 12.5H1.28551V12ZM4.2983 3.27273V2.77273H3.94195L3.82567 3.10957L4.2983 3.27273ZM6.67614 3.27273L7.14884 3.10977L7.03265 2.77273H6.67614V3.27273ZM9.68466 12V12.5H10.3859L10.1574 11.837L9.68466 12ZM7.70739 12L7.23183 12.1544L7.34403 12.5H7.70739V12ZM5.52131 5.26705L5.99687 5.11264L5.88466 4.76705H5.52131V5.26705ZM5.45312 5.26705V4.76705H5.08999L4.97765 5.11237L5.45312 5.26705ZM3.1392 8.5696V8.0696H2.6392V8.5696H3.1392ZM7.80966 8.5696H8.30966V8.0696H7.80966V8.5696ZM7.80966 10.0099V10.5099H8.30966V10.0099H7.80966ZM3.1392 10.0099H2.6392V10.5099H3.1392V10.0099ZM3.26278 12V11.5H1.28551V12V12.5H3.26278V12ZM1.28551 12L1.75814 12.1632L4.77093 3.43589L4.2983 3.27273L3.82567 3.10957L0.812881 11.8368L1.28551 12ZM4.2983 3.27273V3.77273H6.67614V3.27273V2.77273H4.2983V3.27273ZM6.67614 3.27273L6.20344 3.43568L9.21196 12.163L9.68466 12L10.1574 11.837L7.14884 3.10977L6.67614 3.27273ZM9.68466 12V11.5H7.70739V12V12.5H9.68466V12ZM7.70739 12L8.18295 11.8456L5.99687 5.11264L5.52131 5.26705L5.04575 5.42145L7.23183 12.1544L7.70739 12ZM5.52131 5.26705V4.76705H5.45312V5.26705V5.76705H5.52131V5.26705ZM5.45312 5.26705L4.97765 5.11237L2.78731 11.8453L3.26278 12L3.73826 12.1547L5.9286 5.42172L5.45312 5.26705ZM3.1392 8.5696V9.0696H7.80966V8.5696V8.0696H3.1392V8.5696ZM7.80966 8.5696H7.30966V10.0099H7.80966H8.30966V8.5696H7.80966ZM7.80966 10.0099V9.50994H3.1392V10.0099V10.5099H7.80966V10.0099ZM3.1392 10.0099H3.6392V8.5696H3.1392H2.6392V10.0099H3.1392ZM12.5803 3.27273H13.0803V2.77273H12.5803V3.27273ZM12.5803 12V12.5H13.0803V12H12.5803ZM10.7351 12H10.2351V12.5H10.7351V12ZM10.7351 3.27273V2.77273H10.2351V3.27273H10.7351ZM12.5803 3.27273H12.0803V12H12.5803H13.0803V3.27273H12.5803ZM12.5803 12V11.5H10.7351V12V12.5H12.5803V12ZM10.7351 12H11.2351V3.27273H10.7351H10.2351V12H10.7351ZM10.7351 3.27273V3.77273H12.5803V3.27273V2.77273H10.7351V3.27273ZM14.0984 12H13.5984V12.5H14.0984V12ZM14.0984 3.27273V2.77273H13.5984V3.27273H14.0984ZM19.229 3.62642L19.0033 4.07255L19.0065 4.07418L19.229 3.62642ZM20.2987 4.61932L19.8642 4.86678L19.8661 4.87018L20.2987 4.61932ZM20.2944 7.61932L20.7226 7.87743L20.7234 7.87614L20.2944 7.61932ZM19.2077 8.57386L18.9961 8.12084L18.9951 8.12133L19.2077 8.57386ZM15.1893 8.90625H14.6893V9.40625H15.1893V8.90625ZM15.1893 7.4233V6.9233H14.6893V7.4233H15.1893ZM18.0742 7.27841L18.2657 7.74028L18.0742 7.27841ZM18.5941 6.84375L18.1659 6.58556L18.1631 6.59024L18.5941 6.84375ZM18.5941 5.39062L18.16 5.63871L18.1627 5.64333L18.5941 5.39062ZM18.07 4.93892L17.8643 5.39472L17.871 5.39763L18.07 4.93892ZM15.9435 4.78125V4.28125H15.4435V4.78125H15.9435ZM15.9435 12V12.5H16.4435V12H15.9435ZM18.8114 8.02841L19.2503 7.78875L19.1081 7.52841H18.8114V8.02841ZM20.9805 12V12.5H21.8232L21.4193 11.7603L20.9805 12ZM18.9435 12L18.5025 12.2356L18.6438 12.5H18.9435V12ZM16.8214 8.02841V7.52841H15.9873L16.3804 8.26405L16.8214 8.02841ZM14.0984 12H14.5984V3.27273H14.0984H13.5984V12H14.0984ZM14.0984 3.27273V3.77273H17.5415V3.27273V2.77273H14.0984V3.27273ZM17.5415 3.27273V3.77273C18.1422 3.77273 18.6233 3.88023 19.0033 4.07254L19.229 3.62642L19.4548 3.1803C18.903 2.90102 18.259 2.77273 17.5415 2.77273V3.27273ZM19.229 3.62642L19.0065 4.07418C19.3919 4.26571 19.6721 4.52946 19.8642 4.86677L20.2987 4.61932L20.7331 4.37187C20.4366 3.85122 20.0037 3.45303 19.4516 3.17867L19.229 3.62642ZM20.2987 4.61932L19.8661 4.87018C20.0621 5.20797 20.1694 5.61981 20.1694 6.12358H20.6694H21.1694C21.1694 5.47394 21.0296 4.88294 20.7312 4.36846L20.2987 4.61932ZM20.6694 6.12358H20.1694C20.1694 6.63004 20.0608 7.03615 19.8654 7.3625L20.2944 7.61932L20.7234 7.87614C21.028 7.36726 21.1694 6.77621 21.1694 6.12358H20.6694ZM20.2944 7.61932L19.8662 7.36121C19.6716 7.68398 19.3883 7.93769 18.9962 8.12084L19.2077 8.57386L19.4193 9.02689C19.9761 8.76685 20.4172 8.3842 20.7226 7.87743L20.2944 7.61932ZM19.2077 8.57386L18.9951 8.12133C18.6063 8.30404 18.1119 8.40625 17.4947 8.40625V8.90625V9.40625C18.2183 9.40625 18.866 9.28687 19.4204 9.0264L19.2077 8.57386ZM17.4947 8.90625V8.40625H15.1893V8.90625V9.40625H17.4947V8.90625ZM15.1893 8.90625H15.6893V7.4233H15.1893H14.6893V8.90625H15.1893ZM15.1893 7.4233V7.9233H17.1964V7.4233V6.9233H15.1893V7.4233ZM17.1964 7.4233V7.9233C17.5901 7.9233 17.9531 7.86991 18.2657 7.74028L18.0742 7.27841L17.8827 6.81654C17.7294 6.88009 17.5072 6.9233 17.1964 6.9233V7.4233ZM18.0742 7.27841L18.2657 7.74028C18.5858 7.60755 18.8495 7.39566 19.0251 7.09726L18.5941 6.84375L18.1631 6.59024C18.1114 6.67821 18.0285 6.75608 17.8827 6.81654L18.0742 7.27841ZM18.5941 6.84375L19.0223 7.10192C19.1969 6.81228 19.2688 6.47709 19.2688 6.12358H18.7688H18.2688C18.2688 6.34393 18.2242 6.48886 18.1659 6.58558L18.5941 6.84375ZM18.7688 6.12358H19.2688C19.2688 5.76755 19.1971 5.43081 19.0255 5.13792L18.5941 5.39062L18.1627 5.64333C18.2241 5.74817 18.2688 5.90006 18.2688 6.12358H18.7688ZM18.5941 5.39062L19.0282 5.14256C18.8545 4.83858 18.5911 4.61995 18.2689 4.48021L18.07 4.93892L17.871 5.39763C18.0204 5.46244 18.1064 5.54494 18.16 5.63869L18.5941 5.39062ZM18.07 4.93892L18.2756 4.48317C17.958 4.33986 17.588 4.28125 17.1879 4.28125V4.78125V5.28125C17.4979 5.28125 17.716 5.32775 17.8643 5.39467L18.07 4.93892ZM17.1879 4.78125V4.28125H15.9435V4.78125V5.28125H17.1879V4.78125ZM15.9435 4.78125H15.4435V12H15.9435H16.4435V4.78125H15.9435ZM15.9435 12V11.5H14.0984V12V12.5H15.9435V12ZM18.8114 8.02841L18.3726 8.26807L20.5416 12.2397L20.9805 12L21.4193 11.7603L19.2503 7.78875L18.8114 8.02841ZM20.9805 12V11.5H18.9435V12V12.5H20.9805V12ZM18.9435 12L19.3845 11.7644L17.2624 7.79277L16.8214 8.02841L16.3804 8.26405L18.5025 12.2356L18.9435 12ZM16.8214 8.02841V8.52841H18.8114V8.02841V7.52841H16.8214V8.02841ZM21.9734 12H21.4734V12.5H21.9734V12ZM21.9734 3.27273V2.77273H21.4734V3.27273H21.9734ZM27.0742 3.55824L26.8714 4.01527L27.0742 3.55824ZM28.0415 4.35085L27.6202 4.61998L27.6212 4.62159L28.0415 4.35085ZM28.1609 6.40909L28.602 6.64439L28.6031 6.64236L28.1609 6.40909ZM27.5984 7.03977L27.8814 7.45194L27.8825 7.45122L27.5984 7.03977ZM26.7887 7.38494L26.6793 6.89706L26.2887 6.98467V7.38494H26.7887ZM26.7887 7.47017H26.2887V7.94926L26.7674 7.96971L26.7887 7.47017ZM27.7219 7.75142L27.4653 8.18054L27.4672 8.18163L27.7219 7.75142ZM28.4336 8.48011L28.0014 8.73156L28.0024 8.73328L28.4336 8.48011ZM28.3612 10.8281L27.9386 10.5608L27.9381 10.5616L28.3612 10.8281ZM27.3512 11.6847L27.138 11.2324V11.2324L27.3512 11.6847ZM23.8185 10.4915H23.3185V10.9915H23.8185V10.4915ZM26.4478 10.1974L26.7674 10.5819L26.7701 10.5797L26.4478 10.1974ZM26.6268 8.76562L26.2039 9.03238L26.6268 8.76562ZM26.1282 8.33097L25.907 8.77938L25.9093 8.78052L26.1282 8.33097ZM23.8185 8.1733V7.6733H23.3185V8.1733H23.8185ZM23.8185 6.92472H23.3185V7.42472H23.8185V6.92472ZM25.8597 6.79261L26.0646 7.24871L26.0676 7.24735L25.8597 6.79261ZM26.3285 6.40909L25.9202 6.12045L25.9169 6.12522L26.3285 6.40909ZM26.1665 5.05398L25.838 5.43087L25.8404 5.43293L26.1665 5.05398ZM23.8185 4.7642V4.2642H23.3185V4.7642H23.8185ZM21.9734 12H22.4734V3.27273H21.9734H21.4734V12H21.9734ZM21.9734 3.27273V3.77273H25.4677V3.27273V2.77273H21.9734V3.27273ZM25.4677 3.27273V3.77273C26.064 3.77273 26.5252 3.86165 26.8714 4.01527L27.0742 3.55824L27.277 3.10121C26.7653 2.87414 26.1554 2.77273 25.4677 2.77273V3.27273ZM27.0742 3.55824L26.8714 4.01527C27.2263 4.17271 27.4656 4.37794 27.6202 4.61998L28.0415 4.35085L28.4629 4.08173C28.1857 3.64763 27.7801 3.32445 27.277 3.10121L27.0742 3.55824ZM28.0415 4.35085L27.6212 4.62159C27.7801 4.86831 27.8654 5.15877 27.8654 5.50994H28.3654H28.8654C28.8654 4.98612 28.7348 4.50385 28.4619 4.08011L28.0415 4.35085ZM28.3654 5.50994H27.8654C27.8654 5.78311 27.8112 6.00031 27.7186 6.17582L28.1609 6.40909L28.6031 6.64236C28.7833 6.30083 28.8654 5.91859 28.8654 5.50994H28.3654ZM28.1609 6.40909L27.7197 6.1738C27.6209 6.35901 27.4873 6.50886 27.3143 6.62832L27.5984 7.03977L27.8825 7.45122C28.1867 7.24114 28.4281 6.97054 28.602 6.64438L28.1609 6.40909ZM27.5984 7.03977L27.3153 6.62761C27.1365 6.75037 26.9267 6.84158 26.6793 6.89706L26.7887 7.38494L26.8981 7.87282C27.2587 7.79194 27.5886 7.65303 27.8814 7.45194L27.5984 7.03977ZM26.7887 7.38494H26.2887V7.47017H26.7887H27.2887V7.38494H26.7887ZM26.7887 7.47017L26.7674 7.96971C27.0154 7.98031 27.2458 8.04925 27.4653 8.18054L27.7219 7.75142L27.9786 7.3223C27.6186 7.107 27.2268 6.98844 26.8101 6.97063L26.7887 7.47017ZM27.7219 7.75142L27.4672 8.18163C27.6817 8.3087 27.8597 8.488 28.0014 8.73156L28.4336 8.48011L28.8658 8.22867C28.6438 7.84723 28.3474 7.54073 27.9767 7.32121L27.7219 7.75142ZM28.4336 8.48011L28.0024 8.73328C28.1311 8.95246 28.2063 9.23071 28.2063 9.58807H28.7063H29.2063C29.2063 9.08747 29.0997 8.62709 28.8648 8.22695L28.4336 8.48011ZM28.7063 9.58807H28.2063C28.2063 9.96398 28.1143 10.2832 27.9386 10.5608L28.3612 10.8281L28.7837 11.0955C29.0683 10.6458 29.2063 10.1383 29.2063 9.58807H28.7063ZM28.3612 10.8281L27.9381 10.5616C27.7692 10.8298 27.5116 11.0563 27.138 11.2324L27.3512 11.6847L27.5644 12.1369C28.0829 11.8926 28.4986 11.5481 28.7842 11.0946L28.3612 10.8281ZM27.3512 11.6847L27.138 11.2324C26.7767 11.4027 26.3046 11.5 25.7021 11.5V12V12.5C26.4063 12.5 27.0337 12.3871 27.5644 12.1369L27.3512 11.6847ZM25.7021 12V11.5H21.9734V12V12.5H25.7021V12ZM23.8185 10.4915V10.9915H25.3228V10.4915V9.99148H23.8185V10.4915ZM25.3228 10.4915V10.9915C25.8811 10.9915 26.3985 10.8886 26.7674 10.5819L26.4478 10.1974L26.1282 9.81295C26.0255 9.8983 25.7929 9.99148 25.3228 9.99148V10.4915ZM26.4478 10.1974L26.7701 10.5797C27.1271 10.2786 27.3015 9.87025 27.3015 9.40483H26.8015H26.3015C26.3015 9.59849 26.2401 9.71852 26.1254 9.81523L26.4478 10.1974ZM26.8015 9.40483H27.3015C27.3015 9.07929 27.2218 8.77171 27.0497 8.49887L26.6268 8.76562L26.2039 9.03238C26.2647 9.12885 26.3015 9.24741 26.3015 9.40483H26.8015ZM26.6268 8.76562L27.0497 8.49887C26.8786 8.22772 26.638 8.02307 26.3471 7.88141L26.1282 8.33097L25.9093 8.78052C26.0502 8.84909 26.142 8.93421 26.2039 9.03238L26.6268 8.76562ZM26.1282 8.33097L26.3494 7.88256C26.0528 7.73626 25.7193 7.6733 25.3654 7.6733V8.1733V8.6733C25.6024 8.6733 25.7774 8.71545 25.907 8.77937L26.1282 8.33097ZM25.3654 8.1733V7.6733H23.8185V8.1733V8.6733H25.3654V8.1733ZM23.8185 8.1733H23.3185V10.4915H23.8185H24.3185V8.1733H23.8185ZM23.8185 6.92472V7.42472H25.1864V6.92472V6.42472H23.8185V6.92472ZM25.1864 6.92472V7.42472C25.4976 7.42472 25.7938 7.37037 26.0646 7.2487L25.8597 6.79261L25.6548 6.33653C25.5336 6.39099 25.381 6.42472 25.1864 6.42472V6.92472ZM25.8597 6.79261L26.0676 7.24735C26.3407 7.1225 26.5705 6.93881 26.7401 6.69296L26.3285 6.40909L25.9169 6.12522C25.8592 6.20891 25.7765 6.28091 25.6518 6.33788L25.8597 6.79261ZM26.3285 6.40909L26.7368 6.69771C26.9211 6.43701 27.0032 6.13519 27.0032 5.81676H26.5032H26.0032C26.0032 5.95856 25.9689 6.05163 25.9202 6.12047L26.3285 6.40909ZM26.5032 5.81676H27.0032C27.0032 5.36656 26.8354 4.96998 26.4927 4.67503L26.1665 5.05398L25.8404 5.43293C25.9466 5.52434 26.0032 5.63628 26.0032 5.81676H26.5032ZM26.1665 5.05398L26.4951 4.67709C26.1523 4.37822 25.7033 4.2642 25.2205 4.2642V4.7642V5.2642C25.556 5.2642 25.7376 5.34337 25.838 5.43086L26.1665 5.05398ZM25.2205 4.7642V4.2642H23.8185V4.7642V5.2642H25.2205V4.7642ZM23.8185 4.7642H23.3185V6.92472H23.8185H24.3185V4.7642H23.8185ZM35.2976 3.27273V2.77273H34.7976V3.27273H35.2976ZM37.1428 3.27273H37.6428V2.77273H37.1428V3.27273ZM36.6868 10.6108L36.2651 10.3422L36.2639 10.344L36.6868 10.6108ZM35.4212 11.7273L35.6401 12.1768L35.6419 12.1759L35.4212 11.7273ZM31.6243 11.7273L31.4035 12.1759L31.4054 12.1768L31.6243 11.7273ZM30.3587 10.6108L29.9358 10.8776L30.3587 10.6108ZM29.907 3.27273V2.77273H29.407V3.27273H29.907ZM31.7521 3.27273H32.2521V2.77273H31.7521V3.27273ZM31.9695 9.66903L31.5333 9.91349L31.5353 9.9171L31.9695 9.66903ZM32.5916 10.2784L32.3496 10.7159L32.5916 10.2784ZM34.4581 10.2784L34.2161 9.84089L34.2141 9.842L34.4581 10.2784ZM35.076 9.66903L34.6419 9.42096L34.6398 9.42459L35.076 9.66903ZM35.2976 3.27273V3.77273H37.1428V3.27273V2.77273H35.2976V3.27273ZM37.1428 3.27273H36.6428V8.94034H37.1428H37.6428V3.27273H37.1428ZM37.1428 8.94034H36.6428C36.6428 9.49376 36.5117 9.9549 36.2651 10.3422L36.6868 10.6108L37.1085 10.8794C37.4698 10.3121 37.6428 9.65965 37.6428 8.94034H37.1428ZM36.6868 10.6108L36.2639 10.344C36.0156 10.7375 35.6663 11.0494 35.2004 11.2787L35.4212 11.7273L35.6419 12.1759C36.2612 11.8711 36.7557 11.4386 37.1097 10.8776L36.6868 10.6108ZM35.4212 11.7273L35.2023 11.2777C34.7399 11.5029 34.1853 11.6236 33.5249 11.6236V12.1236V12.6236C34.3076 12.6236 35.0172 12.4801 35.6401 12.1768L35.4212 11.7273ZM33.5249 12.1236V11.6236C32.8613 11.6236 32.3053 11.5027 31.8432 11.2777L31.6243 11.7273L31.4054 12.1768C32.0285 12.4802 32.7396 12.6236 33.5249 12.6236V12.1236ZM31.6243 11.7273L31.8451 11.2787C31.3791 11.0494 31.0298 10.7375 30.7815 10.344L30.3587 10.6108L29.9358 10.8776C30.2898 11.4386 30.7842 11.8711 31.4035 12.1759L31.6243 11.7273ZM30.3587 10.6108L30.7815 10.344C30.537 9.95645 30.407 9.49466 30.407 8.94034H29.907H29.407C29.407 9.65874 29.578 10.3106 29.9358 10.8776L30.3587 10.6108ZM29.907 8.94034H30.407V3.27273H29.907H29.407V8.94034H29.907ZM29.907 3.27273V3.77273H31.7521V3.27273V2.77273H29.907V3.27273ZM31.7521 3.27273H31.2521V8.78267H31.7521H32.2521V3.27273H31.7521ZM31.7521 8.78267H31.2521C31.2521 9.19005 31.3417 9.57155 31.5333 9.91348L31.9695 9.66903L32.4056 9.42459C32.3075 9.24947 32.2521 9.04006 32.2521 8.78267H31.7521ZM31.9695 9.66903L31.5353 9.9171C31.7297 10.2572 32.0045 10.525 32.3496 10.7159L32.5916 10.2784L32.8337 9.84089C32.6447 9.73636 32.5047 9.59787 32.4036 9.42096L31.9695 9.66903ZM32.5916 10.2784L32.3496 10.7159C32.702 10.9109 33.099 11 33.5249 11V10.5V10C33.2405 10 33.0153 9.94138 32.8337 9.84089L32.5916 10.2784ZM33.5249 10.5V11C33.9526 11 34.3508 10.9113 34.7021 10.7148L34.4581 10.2784L34.2141 9.842C34.037 9.94101 33.813 10 33.5249 10V10.5ZM34.4581 10.2784L34.7001 10.7159C35.046 10.5246 35.3204 10.2557 35.5122 9.91348L35.076 9.66903L34.6398 9.42459C34.5418 9.59943 34.4042 9.73679 34.2161 9.84089L34.4581 10.2784ZM35.076 9.66903L35.5101 9.9171C35.7059 9.57453 35.7976 9.19173 35.7976 8.78267H35.2976H34.7976C34.7976 9.03839 34.7416 9.24649 34.6419 9.42096L35.076 9.66903ZM35.2976 8.78267H35.7976V3.27273H35.2976H34.7976V8.78267H35.2976ZM43.3952 5.78267L42.8977 5.83202L42.9424 6.28267H43.3952V5.78267ZM41.141 4.82386L41.3256 5.28857L41.331 5.28633L41.141 4.82386ZM40.6637 5.16903L40.2637 4.86901L40.26 4.87403L40.6637 5.16903ZM40.5018 5.67188L41.0014 5.69004L41.0018 5.68096V5.67188H40.5018ZM40.5998 6.08097L40.1728 6.34131L40.1775 6.34874L40.5998 6.08097ZM40.9023 6.38352L40.625 6.7996L40.6315 6.80381L40.9023 6.38352ZM41.3455 6.60085L41.1708 7.06939L41.1779 7.0719L41.3455 6.60085ZM41.8825 6.75426L41.9988 6.26792L41.9917 6.26634L41.8825 6.75426ZM42.6665 6.94176L42.5503 7.4281L42.5573 7.42968L42.6665 6.94176ZM43.7148 7.28267L43.511 7.73924L43.7148 7.28267ZM44.5415 7.80682L44.874 7.43336V7.43336L44.5415 7.80682ZM45.0827 8.53977L44.6275 8.74668L44.6293 8.75046L45.0827 8.53977ZM45.283 9.5071L45.7831 9.50976L45.783 9.5032L45.283 9.5071ZM44.8739 10.8963L44.4621 10.6128L44.4617 10.6134L44.8739 10.8963ZM43.7148 11.804L43.9099 12.2644L43.9112 12.2638L43.7148 11.804ZM40.0543 11.7997L39.8626 12.2615L39.8635 12.2618L40.0543 11.7997ZM38.8356 10.8409L38.4221 11.1221L38.4243 11.1252L38.8356 10.8409ZM38.3796 9.25994V8.75994H37.8682L37.8797 9.27125L38.3796 9.25994ZM40.1651 9.25994L40.664 9.22604L40.6323 8.75994H40.1651V9.25994ZM40.4165 9.9929L40.0172 10.2939L40.0222 10.3003L40.4165 9.9929ZM41.0174 10.4318L40.8326 10.8965L40.839 10.8989L41.0174 10.4318ZM42.6879 10.4403L42.5061 9.97455L42.5041 9.97532L42.6879 10.4403ZM43.229 10.0611L43.6215 10.3709L43.229 10.0611ZM43.2461 9.00852L42.8653 9.33261L42.8693 9.33721L43.2461 9.00852ZM42.7433 8.66761L42.5463 9.12719L42.5484 9.1281L42.7433 8.66761ZM41.9379 8.41193L41.8161 8.8969L41.8207 8.89801L41.9379 8.41193ZM40.9876 8.1733L41.1094 7.68834L41.1057 7.68746L40.9876 8.1733ZM39.2447 7.33381L38.9116 7.70669L39.2447 7.33381ZM38.6097 5.79545L39.1097 5.79766L39.1097 5.79277L38.6097 5.79545ZM39.0316 4.41051L38.6271 4.1166L38.6257 4.11851L39.0316 4.41051ZM43.6126 3.4858L43.4041 3.94024L43.4051 3.9407L43.6126 3.4858ZM44.7461 4.41051L44.3333 4.69264V4.69264L44.7461 4.41051ZM45.1637 5.78267V6.28267H45.672L45.6636 5.77447L45.1637 5.78267ZM43.3952 5.78267L43.8928 5.73333C43.8459 5.26069 43.6347 4.86012 43.2528 4.57889L42.9563 4.98153L42.6599 5.38417C42.795 5.48363 42.8764 5.61715 42.8977 5.83202L43.3952 5.78267ZM42.9563 4.98153L43.2528 4.57889C42.8811 4.30524 42.4139 4.19602 41.9038 4.19602V4.69602V5.19602C42.28 5.19602 42.5145 5.27714 42.6599 5.38417L42.9563 4.98153ZM41.9038 4.69602V4.19602C41.5585 4.19602 41.2354 4.24447 40.9509 4.36139L41.141 4.82386L41.331 5.28633C41.4613 5.23281 41.6467 5.19602 41.9038 5.19602V4.69602ZM41.141 4.82386L40.9564 4.35919C40.6813 4.46846 40.4403 4.63359 40.2637 4.86903L40.6637 5.16903L41.0637 5.46903C41.1087 5.40902 41.1859 5.34404 41.3256 5.28854L41.141 4.82386ZM40.6637 5.16903L40.26 4.87403C40.0878 5.10963 40.0018 5.38113 40.0018 5.67188H40.5018H41.0018C41.0018 5.58762 41.0237 5.52389 41.0674 5.46404L40.6637 5.16903ZM40.5018 5.67188L40.0021 5.65371C39.9934 5.89319 40.0437 6.12936 40.1729 6.34127L40.5998 6.08097L41.0267 5.82066C41.0139 5.79961 40.9988 5.76306 41.0014 5.69004L40.5018 5.67188ZM40.5998 6.08097L40.1775 6.34874C40.2929 6.53061 40.4457 6.68 40.625 6.79955L40.9023 6.38352L41.1797 5.9675C41.1033 5.91659 41.0544 5.86427 41.022 5.81319L40.5998 6.08097ZM40.9023 6.38352L40.6315 6.80381C40.7943 6.90873 40.9753 6.99641 41.1708 7.06934L41.3455 6.60085L41.5202 6.13236C41.3806 6.08029 41.2661 6.02309 41.1732 5.96324L40.9023 6.38352ZM41.3455 6.60085L41.1779 7.0719C41.3663 7.13898 41.5649 7.19555 41.7732 7.24218L41.8825 6.75426L41.9917 6.26634C41.8193 6.22774 41.66 6.18204 41.5132 6.1298L41.3455 6.60085ZM41.8825 6.75426L41.7662 7.24055L42.5503 7.42805L42.6665 6.94176L42.7828 6.45547L41.9987 6.26797L41.8825 6.75426ZM42.6665 6.94176L42.5573 7.42968C42.9093 7.50848 43.2266 7.61227 43.511 7.73924L43.7148 7.28267L43.9187 6.8261C43.5667 6.66898 43.1852 6.54549 42.7758 6.45384L42.6665 6.94176ZM43.7148 7.28267L43.511 7.73924C43.7877 7.86277 44.0187 8.01077 44.2091 8.18027L44.5415 7.80682L44.874 7.43336C44.5985 7.18809 44.2783 6.98666 43.9187 6.8261L43.7148 7.28267ZM44.5415 7.80682L44.2091 8.18027C44.3905 8.34176 44.5288 8.52951 44.6276 8.74667L45.0827 8.53977L45.5379 8.33287C45.381 7.98753 45.1585 7.68665 44.874 7.43336L44.5415 7.80682ZM45.0827 8.53977L44.6293 8.75046C44.7251 8.95667 44.7807 9.20662 44.783 9.51101L45.283 9.5071L45.783 9.5032C45.7797 9.08031 45.7017 8.68538 45.5362 8.32908L45.0827 8.53977ZM45.283 9.5071L44.783 9.50444C44.7807 9.95091 44.6683 10.3133 44.4621 10.6128L44.8739 10.8963L45.2858 11.1798C45.6194 10.6952 45.7797 10.1315 45.783 9.50976L45.283 9.5071ZM44.8739 10.8963L44.4617 10.6134C44.2567 10.9121 43.9515 11.1592 43.5185 11.3441L43.7148 11.804L43.9112 12.2638C44.4895 12.0169 44.9571 11.6589 45.2862 11.1792L44.8739 10.8963ZM43.7148 11.804L43.5198 11.3436C43.0942 11.5239 42.5577 11.6236 41.8952 11.6236V12.1236V12.6236C42.6533 12.6236 43.3298 12.5101 43.9099 12.2644L43.7148 11.804ZM41.8952 12.1236V11.6236C41.2406 11.6236 40.6945 11.5232 40.2452 11.3376L40.0543 11.7997L39.8635 12.2618C40.4596 12.5081 41.1408 12.6236 41.8952 12.6236V12.1236ZM40.0543 11.7997L40.2461 11.338C39.8063 11.1553 39.4798 10.8935 39.2469 10.5566L38.8356 10.8409L38.4243 11.1252C38.7766 11.6349 39.2626 12.0123 39.8626 12.2615L40.0543 11.7997ZM38.8356 10.8409L39.249 10.5598C39.0243 10.2293 38.892 9.8013 38.8795 9.24863L38.3796 9.25994L37.8797 9.27125C37.8956 9.97427 38.0673 10.6003 38.4221 11.1221L38.8356 10.8409ZM38.3796 9.25994V9.75994H40.1651V9.25994V8.75994H38.3796V9.25994ZM40.1651 9.25994L39.6663 9.29385C39.6914 9.66411 39.8006 10.0063 40.0172 10.2938L40.4165 9.9929L40.8159 9.69197C40.7371 9.58742 40.6786 9.441 40.664 9.22604L40.1651 9.25994ZM40.4165 9.9929L40.0222 10.3003C40.2327 10.5703 40.5084 10.7675 40.8326 10.8964L41.0174 10.4318L41.2022 9.96722C41.0264 9.89731 40.9016 9.80182 40.8109 9.68553L40.4165 9.9929ZM41.0174 10.4318L40.839 10.8989C41.1578 11.0207 41.5053 11.0767 41.8739 11.0767V10.5767V10.0767C41.6062 10.0767 41.3827 10.0361 41.1958 9.96474L41.0174 10.4318ZM41.8739 10.5767V11.0767C42.2334 11.0767 42.5698 11.0246 42.8716 10.9054L42.6879 10.4403L42.5041 9.97532C42.3457 10.0379 42.1394 10.0767 41.8739 10.0767V10.5767ZM42.6879 10.4403L42.8696 10.9061C43.1679 10.7897 43.4279 10.6161 43.6215 10.3709L43.229 10.0611L42.8366 9.75126C42.7745 9.82995 42.6737 9.90912 42.5061 9.97455L42.6879 10.4403ZM43.229 10.0611L43.6215 10.3709C43.8204 10.1189 43.9208 9.82318 43.9208 9.50284H43.4208H42.9208C42.9208 9.60295 42.8934 9.67937 42.8366 9.75126L43.229 10.0611ZM43.4208 9.50284H43.9208C43.9208 9.19977 43.8274 8.91432 43.6229 8.67984L43.2461 9.00852L42.8693 9.33721C42.8977 9.36977 42.9208 9.41386 42.9208 9.50284H43.4208ZM43.2461 9.00852L43.6269 8.68446C43.4475 8.47372 43.2061 8.32054 42.9381 8.20713L42.7433 8.66761L42.5484 9.1281C42.7235 9.20218 42.8174 9.27628 42.8653 9.33258L43.2461 9.00852ZM42.7433 8.66761L42.9402 8.20804C42.6881 8.1 42.3912 8.00689 42.055 7.92586L41.9379 8.41193L41.8207 8.89801C42.1209 8.97039 42.3609 9.04773 42.5463 9.12719L42.7433 8.66761ZM41.9379 8.41193L42.0596 7.92699L41.1094 7.68835L40.9876 8.1733L40.8658 8.65824L41.8161 8.89687L41.9379 8.41193ZM40.9876 8.1733L41.1057 7.68746C40.4248 7.52182 39.926 7.27197 39.5778 6.96093L39.2447 7.33381L38.9116 7.70669C39.4157 8.15701 40.0788 8.46681 40.8694 8.65913L40.9876 8.1733ZM39.2447 7.33381L39.5778 6.96093C39.2728 6.68846 39.1074 6.31987 39.1097 5.79766L38.6097 5.79545L38.1097 5.79325C38.1064 6.56081 38.3643 7.21779 38.9116 7.70669L39.2447 7.33381ZM38.6097 5.79545L39.1097 5.79277C39.1074 5.36044 39.2205 5.00409 39.4375 4.70251L39.0316 4.41051L38.6257 4.11851C38.2745 4.6067 38.1064 5.17365 38.1097 5.79814L38.6097 5.79545ZM39.0316 4.41051L39.4361 4.70442C39.6653 4.38905 39.9852 4.13322 40.4146 3.94291L40.212 3.4858L40.0094 3.02868C39.4388 3.28155 38.9718 3.6422 38.6271 4.1166L39.0316 4.41051ZM40.212 3.4858L40.4146 3.94291C40.8412 3.75385 41.3386 3.65341 41.9165 3.65341V3.15341V2.65341C41.2217 2.65341 40.5828 2.77456 40.0094 3.02868L40.212 3.4858ZM41.9165 3.15341V3.65341C42.5077 3.65341 42.9992 3.7545 43.4041 3.94024L43.6126 3.4858L43.8211 3.03135C43.26 2.77391 42.6208 2.65341 41.9165 2.65341V3.15341ZM43.6126 3.4858L43.4051 3.9407C43.8179 4.129 44.1206 4.38148 44.3333 4.69264L44.7461 4.41051L45.1589 4.12838C44.8318 3.64977 44.3789 3.28577 43.8201 3.03089L43.6126 3.4858ZM44.7461 4.41051L44.3333 4.69264C44.5431 4.99967 44.6567 5.35995 44.6638 5.79087L45.1637 5.78267L45.6636 5.77447C45.6537 5.16561 45.4888 4.61113 45.1589 4.12838L44.7461 4.41051ZM45.1637 5.78267V5.28267H43.3952V5.78267V6.28267H45.1637V5.78267Z" fill="#333333" mask="url(#path-1-outside-1_28_107)"/>
</svg>
