<svg width="37" height="12" viewBox="0 0 37 12" fill="none" xmlns="http://www.w3.org/2000/svg">
<mask id="path-1-outside-1_28_109" maskUnits="userSpaceOnUse" x="0" y="1" width="37" height="9" fill="black">
<rect fill="white" y="1" width="37" height="9"/>
<path d="M2.79137 9H1.22603L3.61115 2.09091H5.49361L7.87536 9H6.31001L4.57937 3.66974H4.52539L2.79137 9ZM2.69354 6.28427H6.39098V7.42454H2.69354V6.28427ZM10.1677 2.09091V9H8.70694V2.09091H10.1677ZM11.3695 9V2.09091H14.0954C14.6172 2.09091 15.0625 2.18424 15.4313 2.37092C15.8024 2.55534 16.0847 2.81735 16.2781 3.15696C16.4738 3.49432 16.5716 3.89128 16.5716 4.34783C16.5716 4.80664 16.4726 5.20135 16.2747 5.53196C16.0768 5.86032 15.7901 6.11222 15.4145 6.28764C15.0411 6.46307 14.5891 6.55078 14.0583 6.55078H12.2332V5.37678H13.8221C14.101 5.37678 14.3327 5.33854 14.5171 5.26207C14.7015 5.18561 14.8387 5.0709 14.9287 4.91797C15.0209 4.76503 15.067 4.57499 15.067 4.34783C15.067 4.11843 15.0209 3.92501 14.9287 3.76758C14.8387 3.61014 14.7004 3.49094 14.5137 3.40998C14.3293 3.32676 14.0965 3.28516 13.8154 3.28516H12.8303V9H11.3695ZM15.1007 5.85582L16.8179 9H15.2053L13.5253 5.85582H15.1007ZM17.6039 9V2.09091H20.3703C20.8785 2.09091 21.3025 2.16625 21.6421 2.31694C21.9817 2.46763 22.237 2.67679 22.4079 2.94442C22.5788 3.20981 22.6643 3.51568 22.6643 3.86204C22.6643 4.13192 22.6103 4.3692 22.5024 4.57386C22.3944 4.77628 22.246 4.94271 22.057 5.07315C21.8704 5.20135 21.6567 5.29244 21.4161 5.34641V5.41388C21.6792 5.42513 21.9255 5.49935 22.1549 5.63654C22.3865 5.77373 22.5743 5.96603 22.7183 6.21342C22.8622 6.45857 22.9342 6.75095 22.9342 7.09055C22.9342 7.45715 22.8431 7.78439 22.6609 8.07227C22.481 8.3579 22.2145 8.58393 21.8614 8.75036C21.5083 8.91679 21.0731 9 20.5558 9H17.6039ZM19.0647 7.80575H20.2555C20.6626 7.80575 20.9595 7.72816 21.1462 7.57298C21.3328 7.41554 21.4262 7.20638 21.4262 6.94549C21.4262 6.75432 21.3801 6.58564 21.2879 6.43945C21.1957 6.29326 21.0641 6.17856 20.8932 6.09535C20.7245 6.01213 20.5232 5.97053 20.2893 5.97053H19.0647V7.80575ZM19.0647 4.98207H20.1476C20.3478 4.98207 20.5254 4.94721 20.6806 4.87749C20.8381 4.80552 20.9618 4.70431 21.0517 4.57386C21.1439 4.44342 21.19 4.28711 21.19 4.10494C21.19 3.85529 21.1012 3.654 20.9235 3.50107C20.7481 3.34813 20.4984 3.27166 20.1746 3.27166H19.0647V4.98207ZM28.1523 2.09091H29.613V6.57777C29.613 7.08156 29.4927 7.52237 29.252 7.90021C29.0136 8.27805 28.6797 8.57268 28.2501 8.78409C27.8205 8.99325 27.3201 9.09783 26.7488 9.09783C26.1753 9.09783 25.6738 8.99325 25.2442 8.78409C24.8147 8.57268 24.4807 8.27805 24.2423 7.90021C24.0039 7.52237 23.8847 7.08156 23.8847 6.57777V2.09091H25.3454V6.45295C25.3454 6.71609 25.4028 6.94999 25.5175 7.15465C25.6344 7.35932 25.7986 7.52012 26.01 7.63707C26.2214 7.75402 26.4677 7.8125 26.7488 7.8125C27.0322 7.8125 27.2785 7.75402 27.4877 7.63707C27.6991 7.52012 27.8621 7.35932 27.9768 7.15465C28.0938 6.94999 28.1523 6.71609 28.1523 6.45295V2.09091ZM34.5629 4.07795C34.5359 3.80581 34.4201 3.5944 34.2154 3.44371C34.0108 3.29303 33.733 3.21768 33.3821 3.21768C33.1437 3.21768 32.9425 3.25142 32.7783 3.31889C32.6141 3.38411 32.4881 3.4752 32.4004 3.59215C32.315 3.7091 32.2722 3.8418 32.2722 3.99023C32.2677 4.11393 32.2936 4.22189 32.3498 4.3141C32.4083 4.40631 32.4881 4.48615 32.5894 4.55362C32.6906 4.61884 32.8075 4.6762 32.9402 4.72567C33.0729 4.7729 33.2146 4.81339 33.3653 4.84712L33.986 4.99556C34.2874 5.06303 34.564 5.15299 34.8159 5.26545C35.0678 5.3779 35.286 5.51622 35.4704 5.6804C35.6548 5.84458 35.7976 6.038 35.8988 6.26065C36.0023 6.48331 36.0551 6.73858 36.0574 7.02646C36.0551 7.44928 35.9472 7.81587 35.7335 8.12624C35.5221 8.43436 35.2162 8.67389 34.8159 8.84482C34.4178 9.01349 33.9377 9.09783 33.3754 9.09783C32.8176 9.09783 32.3318 9.01237 31.918 8.84144C31.5064 8.67051 31.1848 8.4175 30.9532 8.08239C30.7238 7.74503 30.6034 7.32783 30.5922 6.83079H32.0057C32.0215 7.06244 32.0878 7.25586 32.2048 7.41104C32.324 7.56398 32.4825 7.67981 32.6804 7.75852C32.8806 7.83499 33.1066 7.87322 33.3585 7.87322C33.6059 7.87322 33.8207 7.83724 34.0029 7.76527C34.1873 7.6933 34.3301 7.59322 34.4313 7.46502C34.5325 7.33683 34.5831 7.18951 34.5831 7.02308C34.5831 6.8679 34.537 6.73745 34.4448 6.63175C34.3549 6.52604 34.2222 6.43608 34.0467 6.36186C33.8736 6.28764 33.661 6.22017 33.4091 6.15945L32.6568 5.97053C32.0743 5.82884 31.6144 5.6073 31.277 5.30593C30.9397 5.00456 30.7721 4.5986 30.7744 4.08807C30.7721 3.66974 30.8834 3.30427 31.1084 2.99165C31.3355 2.67904 31.647 2.43501 32.0428 2.25959C32.4387 2.08416 32.8885 1.99645 33.3923 1.99645C33.9051 1.99645 34.3526 2.08416 34.735 2.25959C35.1195 2.43501 35.4187 2.67904 35.6323 2.99165C35.846 3.30427 35.9562 3.66637 35.9629 4.07795H34.5629Z"/>
</mask>
<path d="M2.79137 9H1.22603L3.61115 2.09091H5.49361L7.87536 9H6.31001L4.57937 3.66974H4.52539L2.79137 9ZM2.69354 6.28427H6.39098V7.42454H2.69354V6.28427ZM10.1677 2.09091V9H8.70694V2.09091H10.1677ZM11.3695 9V2.09091H14.0954C14.6172 2.09091 15.0625 2.18424 15.4313 2.37092C15.8024 2.55534 16.0847 2.81735 16.2781 3.15696C16.4738 3.49432 16.5716 3.89128 16.5716 4.34783C16.5716 4.80664 16.4726 5.20135 16.2747 5.53196C16.0768 5.86032 15.7901 6.11222 15.4145 6.28764C15.0411 6.46307 14.5891 6.55078 14.0583 6.55078H12.2332V5.37678H13.8221C14.101 5.37678 14.3327 5.33854 14.5171 5.26207C14.7015 5.18561 14.8387 5.0709 14.9287 4.91797C15.0209 4.76503 15.067 4.57499 15.067 4.34783C15.067 4.11843 15.0209 3.92501 14.9287 3.76758C14.8387 3.61014 14.7004 3.49094 14.5137 3.40998C14.3293 3.32676 14.0965 3.28516 13.8154 3.28516H12.8303V9H11.3695ZM15.1007 5.85582L16.8179 9H15.2053L13.5253 5.85582H15.1007ZM17.6039 9V2.09091H20.3703C20.8785 2.09091 21.3025 2.16625 21.6421 2.31694C21.9817 2.46763 22.237 2.67679 22.4079 2.94442C22.5788 3.20981 22.6643 3.51568 22.6643 3.86204C22.6643 4.13192 22.6103 4.3692 22.5024 4.57386C22.3944 4.77628 22.246 4.94271 22.057 5.07315C21.8704 5.20135 21.6567 5.29244 21.4161 5.34641V5.41388C21.6792 5.42513 21.9255 5.49935 22.1549 5.63654C22.3865 5.77373 22.5743 5.96603 22.7183 6.21342C22.8622 6.45857 22.9342 6.75095 22.9342 7.09055C22.9342 7.45715 22.8431 7.78439 22.6609 8.07227C22.481 8.3579 22.2145 8.58393 21.8614 8.75036C21.5083 8.91679 21.0731 9 20.5558 9H17.6039ZM19.0647 7.80575H20.2555C20.6626 7.80575 20.9595 7.72816 21.1462 7.57298C21.3328 7.41554 21.4262 7.20638 21.4262 6.94549C21.4262 6.75432 21.3801 6.58564 21.2879 6.43945C21.1957 6.29326 21.0641 6.17856 20.8932 6.09535C20.7245 6.01213 20.5232 5.97053 20.2893 5.97053H19.0647V7.80575ZM19.0647 4.98207H20.1476C20.3478 4.98207 20.5254 4.94721 20.6806 4.87749C20.8381 4.80552 20.9618 4.70431 21.0517 4.57386C21.1439 4.44342 21.19 4.28711 21.19 4.10494C21.19 3.85529 21.1012 3.654 20.9235 3.50107C20.7481 3.34813 20.4984 3.27166 20.1746 3.27166H19.0647V4.98207ZM28.1523 2.09091H29.613V6.57777C29.613 7.08156 29.4927 7.52237 29.252 7.90021C29.0136 8.27805 28.6797 8.57268 28.2501 8.78409C27.8205 8.99325 27.3201 9.09783 26.7488 9.09783C26.1753 9.09783 25.6738 8.99325 25.2442 8.78409C24.8147 8.57268 24.4807 8.27805 24.2423 7.90021C24.0039 7.52237 23.8847 7.08156 23.8847 6.57777V2.09091H25.3454V6.45295C25.3454 6.71609 25.4028 6.94999 25.5175 7.15465C25.6344 7.35932 25.7986 7.52012 26.01 7.63707C26.2214 7.75402 26.4677 7.8125 26.7488 7.8125C27.0322 7.8125 27.2785 7.75402 27.4877 7.63707C27.6991 7.52012 27.8621 7.35932 27.9768 7.15465C28.0938 6.94999 28.1523 6.71609 28.1523 6.45295V2.09091ZM34.5629 4.07795C34.5359 3.80581 34.4201 3.5944 34.2154 3.44371C34.0108 3.29303 33.733 3.21768 33.3821 3.21768C33.1437 3.21768 32.9425 3.25142 32.7783 3.31889C32.6141 3.38411 32.4881 3.4752 32.4004 3.59215C32.315 3.7091 32.2722 3.8418 32.2722 3.99023C32.2677 4.11393 32.2936 4.22189 32.3498 4.3141C32.4083 4.40631 32.4881 4.48615 32.5894 4.55362C32.6906 4.61884 32.8075 4.6762 32.9402 4.72567C33.0729 4.7729 33.2146 4.81339 33.3653 4.84712L33.986 4.99556C34.2874 5.06303 34.564 5.15299 34.8159 5.26545C35.0678 5.3779 35.286 5.51622 35.4704 5.6804C35.6548 5.84458 35.7976 6.038 35.8988 6.26065C36.0023 6.48331 36.0551 6.73858 36.0574 7.02646C36.0551 7.44928 35.9472 7.81587 35.7335 8.12624C35.5221 8.43436 35.2162 8.67389 34.8159 8.84482C34.4178 9.01349 33.9377 9.09783 33.3754 9.09783C32.8176 9.09783 32.3318 9.01237 31.918 8.84144C31.5064 8.67051 31.1848 8.4175 30.9532 8.08239C30.7238 7.74503 30.6034 7.32783 30.5922 6.83079H32.0057C32.0215 7.06244 32.0878 7.25586 32.2048 7.41104C32.324 7.56398 32.4825 7.67981 32.6804 7.75852C32.8806 7.83499 33.1066 7.87322 33.3585 7.87322C33.6059 7.87322 33.8207 7.83724 34.0029 7.76527C34.1873 7.6933 34.3301 7.59322 34.4313 7.46502C34.5325 7.33683 34.5831 7.18951 34.5831 7.02308C34.5831 6.8679 34.537 6.73745 34.4448 6.63175C34.3549 6.52604 34.2222 6.43608 34.0467 6.36186C33.8736 6.28764 33.661 6.22017 33.4091 6.15945L32.6568 5.97053C32.0743 5.82884 31.6144 5.6073 31.277 5.30593C30.9397 5.00456 30.7721 4.5986 30.7744 4.08807C30.7721 3.66974 30.8834 3.30427 31.1084 2.99165C31.3355 2.67904 31.647 2.43501 32.0428 2.25959C32.4387 2.08416 32.8885 1.99645 33.3923 1.99645C33.9051 1.99645 34.3526 2.08416 34.735 2.25959C35.1195 2.43501 35.4187 2.67904 35.6323 2.99165C35.846 3.30427 35.9562 3.66637 35.9629 4.07795H34.5629Z" fill="#333333"/>
<path d="M2.79137 9V9.5H3.15451L3.26684 9.15468L2.79137 9ZM1.22603 9L0.7534 8.83684L0.524467 9.5H1.22603V9ZM3.61115 2.09091V1.59091H3.2548L3.13852 1.92775L3.61115 2.09091ZM5.49361 2.09091L5.96631 1.92796L5.85012 1.59091H5.49361V2.09091ZM7.87536 9V9.5H8.57659L8.34806 8.83705L7.87536 9ZM6.31001 9L5.83445 9.15441L5.94666 9.5H6.31001V9ZM4.57937 3.66974L5.05493 3.51534L4.94272 3.16974H4.57937V3.66974ZM4.52539 3.66974V3.16974H4.16226L4.04992 3.51506L4.52539 3.66974ZM2.69354 6.28427V5.78427H2.19354V6.28427H2.69354ZM6.39098 6.28427H6.89098V5.78427H6.39098V6.28427ZM6.39098 7.42454V7.92454H6.89098V7.42454H6.39098ZM2.69354 7.42454H2.19354V7.92454H2.69354V7.42454ZM2.79137 9V8.5H1.22603V9V9.5H2.79137V9ZM1.22603 9L1.69866 9.16316L4.08378 2.25407L3.61115 2.09091L3.13852 1.92775L0.7534 8.83684L1.22603 9ZM3.61115 2.09091V2.59091H5.49361V2.09091V1.59091H3.61115V2.09091ZM5.49361 2.09091L5.02091 2.25386L7.40265 9.16295L7.87536 9L8.34806 8.83705L5.96631 1.92796L5.49361 2.09091ZM7.87536 9V8.5H6.31001V9V9.5H7.87536V9ZM6.31001 9L6.78558 8.84559L5.05493 3.51534L4.57937 3.66974L4.10381 3.82415L5.83445 9.15441L6.31001 9ZM4.57937 3.66974V3.16974H4.52539V3.66974V4.16974H4.57937V3.66974ZM4.52539 3.66974L4.04992 3.51506L2.3159 8.84532L2.79137 9L3.26684 9.15468L5.00086 3.82442L4.52539 3.66974ZM2.69354 6.28427V6.78427H6.39098V6.28427V5.78427H2.69354V6.28427ZM6.39098 6.28427H5.89098V7.42454H6.39098H6.89098V6.28427H6.39098ZM6.39098 7.42454V6.92454H2.69354V7.42454V7.92454H6.39098V7.42454ZM2.69354 7.42454H3.19354V6.28427H2.69354H2.19354V7.42454H2.69354ZM10.1677 2.09091H10.6677V1.59091H10.1677V2.09091ZM10.1677 9V9.5H10.6677V9H10.1677ZM8.70694 9H8.20694V9.5H8.70694V9ZM8.70694 2.09091V1.59091H8.20694V2.09091H8.70694ZM10.1677 2.09091H9.6677V9H10.1677H10.6677V2.09091H10.1677ZM10.1677 9V8.5H8.70694V9V9.5H10.1677V9ZM8.70694 9H9.20694V2.09091H8.70694H8.20694V9H8.70694ZM8.70694 2.09091V2.59091H10.1677V2.09091V1.59091H8.70694V2.09091ZM11.3695 9H10.8695V9.5H11.3695V9ZM11.3695 2.09091V1.59091H10.8695V2.09091H11.3695ZM15.4313 2.37092L15.2055 2.81705L15.2088 2.81867L15.4313 2.37092ZM16.2781 3.15696L15.8436 3.40442L15.8456 3.40782L16.2781 3.15696ZM16.2747 5.53196L16.703 5.79007L16.7037 5.78878L16.2747 5.53196ZM15.4145 6.28764L15.2029 5.83462L15.2018 5.83511L15.4145 6.28764ZM12.2332 6.55078H11.7332V7.05078H12.2332V6.55078ZM12.2332 5.37678V4.87678H11.7332V5.37678H12.2332ZM14.5171 5.26207L14.7086 5.72395L14.5171 5.26207ZM14.9287 4.91797L14.5005 4.65978L14.4977 4.66446L14.9287 4.91797ZM14.9287 3.76758L14.4945 4.01566L14.4972 4.02028L14.9287 3.76758ZM14.5137 3.40998L14.3081 3.86578L14.3148 3.86869L14.5137 3.40998ZM12.8303 3.28516V2.78516H12.3303V3.28516H12.8303ZM12.8303 9V9.5H13.3303V9H12.8303ZM15.1007 5.85582L15.5395 5.61617L15.3974 5.35582H15.1007V5.85582ZM16.8179 9V9.5H17.6606L17.2567 8.76034L16.8179 9ZM15.2053 9L14.7643 9.23564L14.9056 9.5H15.2053V9ZM13.5253 5.85582V5.35582H12.6912L13.0843 6.09146L13.5253 5.85582ZM11.3695 9H11.8695V2.09091H11.3695H10.8695V9H11.3695ZM11.3695 2.09091V2.59091H14.0954V2.09091V1.59091H11.3695V2.09091ZM14.0954 2.09091V2.59091C14.5588 2.59091 14.9226 2.67385 15.2055 2.81704L15.4313 2.37092L15.6571 1.9248C15.2023 1.69464 14.6756 1.59091 14.0954 1.59091V2.09091ZM15.4313 2.37092L15.2088 2.81867C15.4966 2.96168 15.7024 3.15647 15.8436 3.40441L16.2781 3.15696L16.7126 2.90951C16.4669 2.47823 16.1083 2.149 15.6539 1.92316L15.4313 2.37092ZM16.2781 3.15696L15.8456 3.40782C15.99 3.65683 16.0716 3.96421 16.0716 4.34783H16.5716H17.0716C17.0716 3.81834 16.9575 3.3318 16.7106 2.9061L16.2781 3.15696ZM16.5716 4.34783H16.0716C16.0716 4.73355 15.989 5.0358 15.8457 5.27514L16.2747 5.53196L16.7037 5.78878C16.9563 5.3669 17.0716 4.87973 17.0716 4.34783H16.5716ZM16.2747 5.53196L15.8465 5.27385C15.704 5.51021 15.4962 5.69764 15.2029 5.83462L15.4145 6.28764L15.6261 6.74066C16.084 6.52679 16.4496 6.21043 16.703 5.79007L16.2747 5.53196ZM15.4145 6.28764L15.2018 5.83511C14.9112 5.97166 14.5359 6.05078 14.0583 6.05078V6.55078V7.05078C14.6423 7.05078 15.171 6.95448 15.6271 6.74017L15.4145 6.28764ZM14.0583 6.55078V6.05078H12.2332V6.55078V7.05078H14.0583V6.55078ZM12.2332 6.55078H12.7332V5.37678H12.2332H11.7332V6.55078H12.2332ZM12.2332 5.37678V5.87678H13.8221V5.37678V4.87678H12.2332V5.37678ZM13.8221 5.37678V5.87678C14.1425 5.87678 14.4445 5.83345 14.7086 5.72395L14.5171 5.26207L14.3256 4.8002C14.2208 4.84363 14.0595 4.87678 13.8221 4.87678V5.37678ZM14.5171 5.26207L14.7086 5.72395C14.9802 5.61134 15.2078 5.42963 15.3596 5.17148L14.9287 4.91797L14.4977 4.66446C14.4696 4.71218 14.4229 4.75987 14.3256 4.8002L14.5171 5.26207ZM14.9287 4.91797L15.3569 5.17614C15.5072 4.92674 15.567 4.64157 15.567 4.34783H15.067H14.567C14.567 4.5084 14.5345 4.60332 14.5005 4.6598L14.9287 4.91797ZM15.067 4.34783H15.567C15.567 4.05217 15.5074 3.76634 15.3601 3.51488L14.9287 3.76758L14.4972 4.02028C14.5344 4.08369 14.567 4.18469 14.567 4.34783H15.067ZM14.9287 3.76758L15.3628 3.51951C15.2128 3.25696 14.9857 3.0697 14.7127 2.95127L14.5137 3.40998L14.3148 3.86869C14.415 3.91219 14.4646 3.96333 14.4945 4.01565L14.9287 3.76758ZM14.5137 3.40998L14.7194 2.95423C14.4503 2.83282 14.1416 2.78516 13.8154 2.78516V3.28516V3.78516C14.0515 3.78516 14.2083 3.82071 14.3081 3.86573L14.5137 3.40998ZM13.8154 3.28516V2.78516H12.8303V3.28516V3.78516H13.8154V3.28516ZM12.8303 3.28516H12.3303V9H12.8303H13.3303V3.28516H12.8303ZM12.8303 9V8.5H11.3695V9V9.5H12.8303V9ZM15.1007 5.85582L14.6619 6.09548L16.379 9.23966L16.8179 9L17.2567 8.76034L15.5395 5.61617L15.1007 5.85582ZM16.8179 9V8.5H15.2053V9V9.5H16.8179V9ZM15.2053 9L15.6463 8.76436L13.9663 5.62019L13.5253 5.85582L13.0843 6.09146L14.7643 9.23564L15.2053 9ZM13.5253 5.85582V6.35582H15.1007V5.85582V5.35582H13.5253V5.85582ZM17.6039 9H17.1039V9.5H17.6039V9ZM17.6039 2.09091V1.59091H17.1039V2.09091H17.6039ZM21.6421 2.31694L21.4393 2.77397V2.77397L21.6421 2.31694ZM22.4079 2.94442L21.9865 3.21355L21.9875 3.21516L22.4079 2.94442ZM22.5024 4.57386L22.9435 4.80916L22.9446 4.80714L22.5024 4.57386ZM22.057 5.07315L22.3401 5.48532L22.3411 5.4846L22.057 5.07315ZM21.4161 5.34641L21.3066 4.85854L20.9161 4.94614V5.34641H21.4161ZM21.4161 5.41388H20.9161V5.89297L21.3947 5.91343L21.4161 5.41388ZM22.1549 5.63654L21.8982 6.06566L21.9001 6.06675L22.1549 5.63654ZM22.7183 6.21342L22.2861 6.46487L22.2871 6.46659L22.7183 6.21342ZM22.6609 8.07227L22.2384 7.8049L22.2379 7.80577L22.6609 8.07227ZM21.8614 8.75035L21.6482 8.29808L21.8614 8.75035ZM19.0647 7.80575H18.5647V8.30575H19.0647V7.80575ZM21.1462 7.57298L21.4658 7.95748L21.4685 7.95519L21.1462 7.57298ZM21.2879 6.43945L20.865 6.7062V6.7062L21.2879 6.43945ZM20.8932 6.09535L20.6719 6.54376L20.6743 6.5449L20.8932 6.09535ZM19.0647 5.97053V5.47053H18.5647V5.97053H19.0647ZM19.0647 4.98207H18.5647V5.48207H19.0647V4.98207ZM20.6806 4.87749L20.8855 5.33358L20.8885 5.33222L20.6806 4.87749ZM21.0517 4.57386L20.6434 4.28523L20.6401 4.29L21.0517 4.57386ZM20.9235 3.50107L20.5949 3.87796L20.5973 3.88002L20.9235 3.50107ZM19.0647 3.27166V2.77166H18.5647V3.27166H19.0647ZM17.6039 9H18.1039V2.09091H17.6039H17.1039V9H17.6039ZM17.6039 2.09091V2.59091H20.3703V2.09091V1.59091H17.6039V2.09091ZM20.3703 2.09091V2.59091C20.8329 2.59091 21.1825 2.66001 21.4393 2.77397L21.6421 2.31694L21.8449 1.85991C21.4225 1.6725 20.9242 1.59091 20.3703 1.59091V2.09091ZM21.6421 2.31694L21.4393 2.77397C21.7048 2.89176 21.8769 3.04194 21.9865 3.21355L22.4079 2.94442L22.8293 2.6753C22.597 2.31163 22.2586 2.04349 21.8449 1.85991L21.6421 2.31694ZM22.4079 2.94442L21.9875 3.21516C22.1015 3.39204 22.1643 3.60201 22.1643 3.86204H22.6643H23.1643C23.1643 3.42936 23.0562 3.02758 22.8283 2.67369L22.4079 2.94442ZM22.6643 3.86204H22.1643C22.1643 4.06418 22.1243 4.21894 22.0601 4.34059L22.5024 4.57386L22.9446 4.80714C23.0963 4.51946 23.1643 4.19966 23.1643 3.86204H22.6643ZM22.5024 4.57386L22.0612 4.33857C21.9908 4.47052 21.8963 4.57657 21.7729 4.66171L22.057 5.07315L22.3411 5.4846C22.5957 5.30885 22.798 5.08204 22.9435 4.80916L22.5024 4.57386ZM22.057 5.07315L21.774 4.66099C21.6443 4.75002 21.4907 4.81725 21.3066 4.85854L21.4161 5.34641L21.5255 5.83429C21.8227 5.76762 22.0964 5.65268 22.3401 5.48532L22.057 5.07315ZM21.4161 5.34641H20.9161V5.41388H21.4161H21.9161V5.34641H21.4161ZM21.4161 5.41388L21.3947 5.91343C21.5735 5.92107 21.7391 5.97047 21.8982 6.06566L22.1549 5.63654L22.4115 5.20742C22.1119 5.02822 21.7849 4.92919 21.4374 4.91434L21.4161 5.41388ZM22.1549 5.63654L21.9001 6.06675C22.0537 6.15772 22.1823 6.28641 22.2861 6.46487L22.7183 6.21342L23.1504 5.96198C22.9664 5.64565 22.7194 5.38975 22.4097 5.20633L22.1549 5.63654ZM22.7183 6.21342L22.2871 6.46659C22.3779 6.62125 22.4342 6.82257 22.4342 7.09055H22.9342H23.4342C23.4342 6.67933 23.3465 6.29589 23.1494 5.96026L22.7183 6.21342ZM22.9342 7.09055H22.4342C22.4342 7.36999 22.3661 7.60312 22.2384 7.8049L22.6609 8.07227L23.0834 8.33963C23.3201 7.96565 23.4342 7.5443 23.4342 7.09055H22.9342ZM22.6609 8.07227L22.2379 7.80577C22.1163 7.99874 21.9288 8.1658 21.6482 8.29808L21.8614 8.75035L22.0745 9.20263C22.5001 9.00205 22.8457 8.71705 23.084 8.33876L22.6609 8.07227ZM21.8614 8.75035L21.6482 8.29808C21.3798 8.4246 21.0222 8.5 20.5558 8.5V9V9.5C21.1239 9.5 21.6368 9.40897 22.0745 9.20263L21.8614 8.75035ZM20.5558 9V8.5H17.6039V9V9.5H20.5558V9ZM19.0647 7.80575V8.30575H20.2555V7.80575V7.30575H19.0647V7.80575ZM20.2555 7.80575V8.30575C20.7067 8.30575 21.146 8.22333 21.4658 7.95747L21.1462 7.57298L20.8265 7.18849C20.773 7.23299 20.6185 7.30575 20.2555 7.30575V7.80575ZM21.1462 7.57298L21.4685 7.95519C21.7763 7.6956 21.9262 7.34226 21.9262 6.94549H21.4262H20.9262C20.9262 7.0705 20.8894 7.13549 20.8238 7.19076L21.1462 7.57298ZM21.4262 6.94549H21.9262C21.9262 6.67026 21.8586 6.40707 21.7108 6.1727L21.2879 6.43945L20.865 6.7062C20.9016 6.76421 20.9262 6.83838 20.9262 6.94549H21.4262ZM21.2879 6.43945L21.7108 6.1727C21.564 5.94002 21.358 5.76555 21.112 5.64579L20.8932 6.09535L20.6743 6.5449C20.7702 6.59158 20.8273 6.64651 20.865 6.7062L21.2879 6.43945ZM20.8932 6.09535L21.1144 5.64694C20.8622 5.52254 20.5816 5.47053 20.2893 5.47053V5.97053V6.47053C20.4647 6.47053 20.5868 6.50173 20.6719 6.54375L20.8932 6.09535ZM20.2893 5.97053V5.47053H19.0647V5.97053V6.47053H20.2893V5.97053ZM19.0647 5.97053H18.5647V7.80575H19.0647H19.5647V5.97053H19.0647ZM19.0647 4.98207V5.48207H20.1476V4.98207V4.48207H19.0647V4.98207ZM20.1476 4.98207V5.48207C20.4061 5.48207 20.6555 5.4369 20.8855 5.33357L20.6806 4.87749L20.4757 4.4214C20.3953 4.45751 20.2895 4.48207 20.1476 4.48207V4.98207ZM20.6806 4.87749L20.8885 5.33222C21.1202 5.22631 21.3174 5.06926 21.4633 4.85773L21.0517 4.57386L20.6401 4.29C20.6061 4.33936 20.5559 4.38472 20.4727 4.42275L20.6806 4.87749ZM21.0517 4.57386L21.46 4.86248C21.62 4.63611 21.69 4.37543 21.69 4.10494H21.19H20.69C20.69 4.19879 20.6678 4.25073 20.6434 4.28525L21.0517 4.57386ZM21.19 4.10494H21.69C21.69 3.72043 21.5456 3.37682 21.2497 3.12212L20.9235 3.50107L20.5973 3.88002C20.6568 3.93118 20.69 3.99015 20.69 4.10494H21.19ZM20.9235 3.50107L21.2521 3.12418C20.9554 2.86556 20.5721 2.77166 20.1746 2.77166V3.27166V3.77166C20.4248 3.77166 20.5408 3.8307 20.5949 3.87795L20.9235 3.50107ZM20.1746 3.27166V2.77166H19.0647V3.27166V3.77166H20.1746V3.27166ZM19.0647 3.27166H18.5647V4.98207H19.0647H19.5647V3.27166H19.0647ZM28.1523 2.09091V1.59091H27.6523V2.09091H28.1523ZM29.613 2.09091H30.113V1.59091H29.613V2.09091ZM29.252 7.90021L28.8303 7.63161L28.8292 7.63341L29.252 7.90021ZM28.2501 8.78409L28.469 9.23364L28.4709 9.23271L28.2501 8.78409ZM25.2442 8.78409L25.0234 9.23271L25.0253 9.23363L25.2442 8.78409ZM24.2423 7.90021L23.8194 8.16702L24.2423 7.90021ZM23.8847 2.09091V1.59091H23.3847V2.09091H23.8847ZM25.3454 2.09091H25.8454V1.59091H25.3454V2.09091ZM25.5175 7.15465L25.0813 7.39911L25.0834 7.40272L25.5175 7.15465ZM26.01 7.63707L25.768 8.07459L26.01 7.63707ZM27.4877 7.63707L27.2456 7.19955L27.2436 7.20066L27.4877 7.63707ZM27.9768 7.15465L27.5427 6.90657L27.5407 6.9102L27.9768 7.15465ZM28.1523 2.09091V2.59091H29.613V2.09091V1.59091H28.1523V2.09091ZM29.613 2.09091H29.113V6.57777H29.613H30.113V2.09091H29.613ZM29.613 6.57777H29.113C29.113 6.99861 29.0137 7.34375 28.8303 7.63161L29.252 7.90021L29.6738 8.16881C29.9717 7.701 30.113 7.1645 30.113 6.57777H29.613ZM29.252 7.90021L28.8292 7.63341C28.6436 7.92752 28.3822 8.1618 28.0293 8.33548L28.2501 8.78409L28.4709 9.23271C28.9771 8.98356 29.3837 8.62859 29.6749 8.16702L29.252 7.90021ZM28.2501 8.78409L28.0312 8.33455C27.6819 8.50463 27.2589 8.59783 26.7488 8.59783V9.09783V9.59783C27.3813 9.59783 27.9591 9.48187 28.469 9.23363L28.2501 8.78409ZM26.7488 9.09783V8.59783C26.2362 8.59783 25.8122 8.50451 25.4631 8.33455L25.2442 8.78409L25.0253 9.23363C25.5354 9.482 26.1145 9.59783 26.7488 9.59783V9.09783ZM25.2442 8.78409L25.465 8.33548C25.1121 8.1618 24.8507 7.92752 24.6651 7.63341L24.2423 7.90021L23.8194 8.16702C24.1106 8.62859 24.5172 8.98356 25.0234 9.23271L25.2442 8.78409ZM24.2423 7.90021L24.6651 7.63341C24.4834 7.3453 24.3847 6.99952 24.3847 6.57777H23.8847H23.3847C23.3847 7.1636 23.5244 7.69944 23.8194 8.16702L24.2423 7.90021ZM23.8847 6.57777H24.3847V2.09091H23.8847H23.3847V6.57777H23.8847ZM23.8847 2.09091V2.59091H25.3454V2.09091V1.59091H23.8847V2.09091ZM25.3454 2.09091H24.8454V6.45295H25.3454H25.8454V2.09091H25.3454ZM25.3454 6.45295H24.8454C24.8454 6.79108 24.9199 7.11103 25.0813 7.3991L25.5175 7.15465L25.9537 6.9102C25.8857 6.78895 25.8454 6.64109 25.8454 6.45295H25.3454ZM25.5175 7.15465L25.0834 7.40272C25.247 7.68901 25.4785 7.91445 25.768 8.07459L26.01 7.63707L26.2521 7.19956C26.1187 7.1258 26.0219 7.02963 25.9516 6.90658L25.5175 7.15465ZM26.01 7.63707L25.768 8.07459C26.0648 8.23878 26.397 8.3125 26.7488 8.3125V7.8125V7.3125C26.5384 7.3125 26.3781 7.26926 26.2521 7.19956L26.01 7.63707ZM26.7488 7.8125V8.3125C27.102 8.3125 27.4354 8.23915 27.7317 8.07349L27.4877 7.63707L27.2436 7.20066C27.1216 7.2689 26.9624 7.3125 26.7488 7.3125V7.8125ZM27.4877 7.63707L27.7297 8.07459C28.02 7.91401 28.2514 7.68744 28.413 7.3991L27.9768 7.15465L27.5407 6.9102C27.4729 7.03119 27.3782 7.12623 27.2456 7.19956L27.4877 7.63707ZM27.9768 7.15465L28.4109 7.40272C28.5759 7.11401 28.6523 6.79276 28.6523 6.45295H28.1523H27.6523C27.6523 6.63942 27.6116 6.78597 27.5427 6.90658L27.9768 7.15465ZM28.1523 6.45295H28.6523V2.09091H28.1523H27.6523V6.45295H28.1523ZM34.5629 4.07795L34.0653 4.12729L34.11 4.57795H34.5629V4.07795ZM32.7783 3.31889L32.9629 3.7836L32.9683 3.78136L32.7783 3.31889ZM32.4004 3.59215L32.0004 3.29213L31.9967 3.29714L32.4004 3.59215ZM32.2722 3.99023L32.7719 4.0084L32.7722 3.99932V3.99023H32.2722ZM32.3498 4.3141L31.9229 4.57444L31.9276 4.58187L32.3498 4.3141ZM32.5894 4.55362L32.312 4.9697L32.3185 4.97391L32.5894 4.55362ZM32.9402 4.72567L32.7655 5.19422L32.7725 5.19673L32.9402 4.72567ZM33.3653 4.84712L33.4816 4.36078L33.4745 4.3592L33.3653 4.84712ZM33.986 4.99556L33.8697 5.4819L33.8768 5.48348L33.986 4.99556ZM34.8159 5.26545L34.6121 5.72202L34.8159 5.26545ZM35.4704 5.6804L35.8029 5.30694L35.4704 5.6804ZM35.8988 6.26065L35.4436 6.46756L35.4454 6.47134L35.8988 6.26065ZM36.0574 7.02646L36.5574 7.02912L36.5574 7.02255L36.0574 7.02646ZM35.7335 8.12624L35.3217 7.84272L35.3212 7.84336L35.7335 8.12624ZM34.8159 8.84482L35.011 9.30519L35.0123 9.30466L34.8159 8.84482ZM31.918 8.84144L31.7262 9.3032L31.7271 9.30357L31.918 8.84144ZM30.9532 8.08239L30.5397 8.36355L30.5419 8.3667L30.9532 8.08239ZM30.5922 6.83079V6.33079H30.0808L30.0923 6.8421L30.5922 6.83079ZM32.0057 6.83079L32.5046 6.79689L32.4729 6.33079H32.0057V6.83079ZM32.2048 7.41104L31.8054 7.71201L31.8104 7.71842L32.2048 7.41104ZM32.6804 7.75852L32.4956 8.22317L32.502 8.2256L32.6804 7.75852ZM34.0029 7.76527L33.8211 7.29948L33.8192 7.30024L34.0029 7.76527ZM34.4313 7.46502L34.8238 7.77484L34.4313 7.46502ZM34.4448 6.63175L34.064 6.95583L34.068 6.96043L34.4448 6.63175ZM34.0467 6.36186L33.8498 6.82144L33.8519 6.82234L34.0467 6.36186ZM33.4091 6.15945L33.2873 6.64441L33.292 6.64552L33.4091 6.15945ZM32.6568 5.97053L32.7786 5.48557L32.775 5.48469L32.6568 5.97053ZM31.277 5.30593L30.9439 5.67881L31.277 5.30593ZM30.7744 4.08807L31.2744 4.09027L31.2744 4.08538L30.7744 4.08807ZM31.1084 2.99165L30.7039 2.69774L30.7025 2.69966L31.1084 2.99165ZM34.735 2.25959L34.5264 2.71404L34.5275 2.7145L34.735 2.25959ZM35.6323 2.99165L35.2195 3.27378V3.27378L35.6323 2.99165ZM35.9629 4.07795V4.57795H36.4712L36.4629 4.06975L35.9629 4.07795ZM34.5629 4.07795L35.0605 4.0286C35.0207 3.62758 34.84 3.28265 34.5119 3.04108L34.2154 3.44371L33.919 3.84635C34.0002 3.90615 34.0511 3.98405 34.0653 4.12729L34.5629 4.07795ZM34.2154 3.44371L34.5119 3.04108C34.194 2.80708 33.7999 2.71768 33.3821 2.71768V3.21768V3.71768C33.666 3.71768 33.8275 3.77898 33.919 3.84635L34.2154 3.44371ZM33.3821 3.21768V2.71768C33.0996 2.71768 32.8295 2.75725 32.5882 2.85642L32.7783 3.31889L32.9683 3.78136C33.0554 3.74559 33.1879 3.71768 33.3821 3.71768V3.21768ZM32.7783 3.31889L32.5937 2.85422C32.3618 2.94633 32.1539 3.08748 32.0004 3.29215L32.4004 3.59215L32.8004 3.89215C32.8224 3.86292 32.8664 3.8219 32.9629 3.78357L32.7783 3.31889ZM32.4004 3.59215L31.9967 3.29714C31.8471 3.50197 31.7722 3.73855 31.7722 3.99023H32.2722H32.7722C32.7722 3.94504 32.7829 3.91623 32.8041 3.88716L32.4004 3.59215ZM32.2722 3.99023L31.7726 3.97206C31.765 4.179 31.8085 4.38676 31.9229 4.5744L32.3498 4.3141L32.7767 4.05379C32.7765 4.05347 32.7756 4.05215 32.7745 4.04748C32.7733 4.0423 32.7711 4.0301 32.7719 4.0084L32.2722 3.99023ZM32.3498 4.3141L31.9276 4.58187C32.0275 4.73948 32.1593 4.86786 32.312 4.96965L32.5894 4.55362L32.8667 4.1376C32.817 4.10444 32.7891 4.07314 32.7721 4.04633L32.3498 4.3141ZM32.5894 4.55362L32.3185 4.97391C32.4547 5.06166 32.6049 5.13426 32.7655 5.19416L32.9402 4.72567L33.1149 4.25718C33.0102 4.21813 32.9264 4.17603 32.8602 4.13334L32.5894 4.55362ZM32.9402 4.72567L32.7725 5.19673C32.9261 5.25137 33.0874 5.29729 33.256 5.33504L33.3653 4.84712L33.4745 4.3592C33.3418 4.32948 33.2197 4.29444 33.1079 4.25462L32.9402 4.72567ZM33.3653 4.84712L33.249 5.33341L33.8697 5.48185L33.986 4.99556L34.1023 4.50927L33.4816 4.36083L33.3653 4.84712ZM33.986 4.99556L33.8768 5.48348C34.1495 5.54453 34.394 5.62464 34.6121 5.72202L34.8159 5.26545L35.0197 4.80888C34.7341 4.68135 34.4253 4.58154 34.0953 4.50764L33.986 4.99556ZM34.8159 5.26545L34.6121 5.72202C34.8225 5.81596 34.9961 5.92756 35.1379 6.05385L35.4704 5.6804L35.8029 5.30694C35.5759 5.10487 35.3131 4.93984 35.0197 4.80888L34.8159 5.26545ZM35.4704 5.6804L35.1379 6.05385C35.2708 6.17213 35.3716 6.30899 35.4437 6.46756L35.8988 6.26065L36.354 6.05375C36.2237 5.76701 36.0388 5.51702 35.8029 5.30694L35.4704 5.6804ZM35.8988 6.26065L35.4454 6.47134C35.514 6.61896 35.5556 6.80173 35.5574 7.03036L36.0574 7.02646L36.5574 7.02255C36.5547 6.67543 36.4906 6.34766 36.3523 6.04996L35.8988 6.26065ZM36.0574 7.02646L35.5574 7.0238C35.5556 7.359 35.4716 7.6249 35.3217 7.84273L35.7335 8.12624L36.1454 8.40976C36.4227 8.00685 36.5547 7.53956 36.5574 7.02912L36.0574 7.02646ZM35.7335 8.12624L35.3212 7.84336C35.1719 8.061 34.9473 8.24507 34.6196 8.38498L34.8159 8.84482L35.0123 9.30466C35.4852 9.10271 35.8723 8.80773 36.1458 8.40912L35.7335 8.12624ZM34.8159 8.84482L34.6208 8.38444C34.3 8.52039 33.8899 8.59783 33.3754 8.59783V9.09783V9.59783C33.9855 9.59783 34.5357 9.5066 35.011 9.30519L34.8159 8.84482ZM33.3754 9.09783V8.59783C32.8676 8.59783 32.4493 8.51991 32.1089 8.37931L31.918 8.84144L31.7271 9.30357C32.2144 9.50483 32.7677 9.59783 33.3754 9.59783V9.09783ZM31.918 8.84144L32.1098 8.37968C31.7782 8.24199 31.5364 8.0468 31.3645 7.79807L30.9532 8.08239L30.5419 8.3667C30.8332 8.78819 31.2346 9.09904 31.7262 9.3032L31.918 8.84144ZM30.9532 8.08239L31.3666 7.80123C31.2023 7.55951 31.1016 7.24134 31.0921 6.81948L30.5922 6.83079L30.0923 6.8421C30.1053 7.41431 30.2453 7.93054 30.5397 8.36354L30.9532 8.08239ZM30.5922 6.83079V7.33079H32.0057V6.83079V6.33079H30.5922V6.83079ZM32.0057 6.83079L31.5069 6.86469C31.5279 7.174 31.6196 7.46531 31.8055 7.71197L32.2048 7.41104L32.6041 7.11012C32.5561 7.04641 32.515 6.95088 32.5046 6.79689L32.0057 6.83079ZM32.2048 7.41104L31.8104 7.71842C31.9895 7.94824 32.2235 8.11489 32.4957 8.22312L32.6804 7.75852L32.8652 7.29392C32.7415 7.24473 32.6584 7.17972 32.5991 7.10367L32.2048 7.41104ZM32.6804 7.75852L32.502 8.2256C32.7682 8.32729 33.0561 8.37322 33.3585 8.37322V7.87322V7.37322C33.1571 7.37322 32.993 7.34269 32.8589 7.29145L32.6804 7.75852ZM33.3585 7.87322V8.37322C33.6529 8.37322 33.9328 8.33057 34.1866 8.2303L34.0029 7.76527L33.8192 7.30024C33.7086 7.34391 33.5589 7.37322 33.3585 7.37322V7.87322ZM34.0029 7.76527L34.1847 8.23106C34.4344 8.13361 34.6569 7.98628 34.8238 7.77484L34.4313 7.46502L34.0389 7.1552C34.0034 7.20016 33.9402 7.25299 33.8211 7.29948L34.0029 7.76527ZM34.4313 7.46502L34.8238 7.77484C34.9961 7.55661 35.0831 7.29963 35.0831 7.02308H34.5831H34.0831C34.0831 7.0794 34.069 7.11705 34.0389 7.1552L34.4313 7.46502ZM34.5831 7.02308H35.0831C35.0831 6.76085 35.0019 6.50973 34.8216 6.30306L34.4448 6.63175L34.068 6.96043C34.0722 6.96517 34.0831 6.97494 34.0831 7.02308H34.5831ZM34.4448 6.63175L34.8256 6.30769C34.6699 6.12477 34.4635 5.99526 34.2416 5.90138L34.0467 6.36186L33.8519 6.82234C33.9809 6.8769 34.0398 6.92732 34.0641 6.95581L34.4448 6.63175ZM34.0467 6.36186L34.2437 5.90229C34.0372 5.81378 33.7961 5.73842 33.5263 5.67337L33.4091 6.15945L33.292 6.64552C33.5259 6.70192 33.71 6.76151 33.8498 6.82143L34.0467 6.36186ZM33.4091 6.15945L33.5309 5.6745L32.7786 5.48558L32.6568 5.97053L32.535 6.45547L33.2874 6.64439L33.4091 6.15945ZM32.6568 5.97053L32.775 5.48469C32.2473 5.35634 31.8695 5.16479 31.6101 4.93305L31.277 5.30593L30.9439 5.67881C31.3592 6.04982 31.9013 6.30133 32.5387 6.45636L32.6568 5.97053ZM31.277 5.30593L31.6101 4.93305C31.3939 4.73989 31.2727 4.47813 31.2744 4.09027L30.7744 4.08807L30.2744 4.08587C30.2716 4.71907 30.4854 5.26922 30.9439 5.67881L31.277 5.30593ZM30.7744 4.08807L31.2744 4.08538C31.2726 3.76314 31.3565 3.50297 31.5142 3.28365L31.1084 2.99165L30.7025 2.69966C30.4104 3.10558 30.2716 3.57635 30.2744 4.09076L30.7744 4.08807ZM31.1084 2.99165L31.5128 3.28557C31.6822 3.05246 31.9202 2.86085 32.2454 2.71671L32.0428 2.25959L31.8402 1.80247C31.3738 2.00918 30.9888 2.30561 30.7039 2.69774L31.1084 2.99165ZM32.0428 2.25959L32.2454 2.71671C32.5679 2.57381 32.9469 2.49645 33.3923 2.49645V1.99645V1.49645C32.83 1.49645 32.3095 1.59452 31.8402 1.80247L32.0428 2.25959ZM33.3923 1.99645V2.49645C33.8485 2.49645 34.2222 2.57446 34.5264 2.71404L34.735 2.25959L34.9435 1.80514C34.483 1.59387 33.9616 1.49645 33.3923 1.49645V1.99645ZM34.735 2.25959L34.5275 2.7145C34.839 2.85663 35.0631 3.0449 35.2195 3.27378L35.6323 2.99165L36.0451 2.70953C35.7742 2.31318 35.4 2.0134 34.9425 1.80468L34.735 2.25959ZM35.6323 2.99165L35.2195 3.27378C35.3731 3.49854 35.4577 3.76354 35.463 4.08614L35.9629 4.07795L36.4629 4.06975C36.4547 3.5692 36.3188 3.11 36.0451 2.70953L35.6323 2.99165ZM35.9629 4.07795V3.57795H34.5629V4.07795V4.57795H35.9629V4.07795Z" fill="#333333" mask="url(#path-1-outside-1_28_109)"/>
</svg>
