<svg width="61" height="20" viewBox="0 0 61 20" fill="none" xmlns="http://www.w3.org/2000/svg">
<mask id="path-1-outside-1_28_105" maskUnits="userSpaceOnUse" x="0" y="3" width="61" height="14" fill="black">
<rect fill="white" y="3" width="61" height="14"/>
<path d="M4.01705 16H1.38068L5.39773 4.36364H8.56818L12.5795 16H9.94318L7.02841 7.02273H6.9375L4.01705 16ZM3.85227 11.4261H10.0795V13.3466H3.85227V11.4261ZM16.4403 4.36364V16H13.9801V4.36364H16.4403ZM18.4645 16V4.36364H23.0554C23.9342 4.36364 24.6842 4.52083 25.3054 4.83523C25.9304 5.14583 26.4058 5.58712 26.7315 6.15909C27.0611 6.72727 27.2259 7.39583 27.2259 8.16477C27.2259 8.9375 27.0592 9.60227 26.7259 10.1591C26.3925 10.7121 25.9096 11.1364 25.277 11.4318C24.6482 11.7273 23.8868 11.875 22.9929 11.875H19.919V9.89773H22.5952C23.0649 9.89773 23.455 9.83333 23.7656 9.70455C24.0762 9.57576 24.3073 9.38258 24.4588 9.125C24.6141 8.86742 24.6918 8.54735 24.6918 8.16477C24.6918 7.77841 24.6141 7.45265 24.4588 7.1875C24.3073 6.92235 24.0743 6.72159 23.7599 6.58523C23.4493 6.44508 23.0573 6.375 22.5838 6.375H20.9247V16H18.4645ZM24.7486 10.7045L27.6406 16H24.9247L22.0952 10.7045H24.7486ZM28.9645 16V4.36364H33.6236C34.4796 4.36364 35.1937 4.49053 35.7656 4.74432C36.3376 4.99811 36.7675 5.35038 37.0554 5.80114C37.3433 6.24811 37.4872 6.76326 37.4872 7.34659C37.4872 7.80114 37.3963 8.20076 37.2145 8.54545C37.0327 8.88636 36.7827 9.16667 36.4645 9.38636C36.1501 9.60227 35.7902 9.75568 35.3849 9.84659V9.96023C35.8281 9.97917 36.2429 10.1042 36.6293 10.3352C37.0194 10.5663 37.3357 10.8902 37.5781 11.3068C37.8205 11.7197 37.9418 12.2121 37.9418 12.7841C37.9418 13.4015 37.7884 13.9527 37.4815 14.4375C37.1785 14.9186 36.7296 15.2992 36.1349 15.5795C35.5402 15.8598 34.8073 16 33.9361 16H28.9645ZM31.4247 13.9886H33.4304C34.116 13.9886 34.616 13.858 34.9304 13.5966C35.2448 13.3314 35.402 12.9792 35.402 12.5398C35.402 12.2178 35.3243 11.9337 35.169 11.6875C35.0137 11.4413 34.7921 11.2481 34.5043 11.108C34.2202 10.9678 33.8812 10.8977 33.4872 10.8977H31.4247V13.9886ZM31.4247 9.23295H33.2486C33.5857 9.23295 33.8849 9.17424 34.1463 9.05682C34.4115 8.93561 34.6198 8.76515 34.7713 8.54545C34.9266 8.32576 35.0043 8.0625 35.0043 7.75568C35.0043 7.33523 34.8546 6.99621 34.5554 6.73864C34.2599 6.48106 33.8395 6.35227 33.294 6.35227H31.4247V9.23295ZM46.7301 4.36364H49.1903V11.9205C49.1903 12.7689 48.9877 13.5114 48.5824 14.1477C48.1809 14.7841 47.6184 15.2803 46.8949 15.6364C46.1714 15.9886 45.3286 16.1648 44.3665 16.1648C43.4006 16.1648 42.5559 15.9886 41.8324 15.6364C41.1089 15.2803 40.5464 14.7841 40.1449 14.1477C39.7434 13.5114 39.5426 12.7689 39.5426 11.9205V4.36364H42.0028V11.7102C42.0028 12.1534 42.0994 12.5473 42.2926 12.892C42.4896 13.2367 42.7661 13.5076 43.1222 13.7045C43.4782 13.9015 43.893 14 44.3665 14C44.8438 14 45.2585 13.9015 45.6108 13.7045C45.9669 13.5076 46.2415 13.2367 46.4347 12.892C46.6316 12.5473 46.7301 12.1534 46.7301 11.7102V4.36364ZM57.527 7.71023C57.4815 7.25189 57.2865 6.89583 56.9418 6.64205C56.5971 6.38826 56.1293 6.26136 55.5384 6.26136C55.1368 6.26136 54.7978 6.31818 54.5213 6.43182C54.2448 6.54167 54.0327 6.69508 53.8849 6.89205C53.741 7.08902 53.669 7.3125 53.669 7.5625C53.6615 7.77083 53.705 7.95265 53.7997 8.10795C53.8982 8.26326 54.0327 8.39773 54.2031 8.51136C54.3736 8.62121 54.5705 8.7178 54.794 8.80114C55.0175 8.88068 55.2562 8.94886 55.5099 9.00568L56.5554 9.25568C57.063 9.36932 57.5289 9.52083 57.9531 9.71023C58.3774 9.89962 58.7448 10.1326 59.0554 10.4091C59.366 10.6856 59.6065 11.0114 59.777 11.3864C59.9512 11.7614 60.0402 12.1913 60.044 12.6761C60.0402 13.3883 59.8584 14.0057 59.4986 14.5284C59.1425 15.0473 58.6274 15.4508 57.9531 15.7386C57.2827 16.0227 56.474 16.1648 55.527 16.1648C54.5876 16.1648 53.7694 16.0208 53.0724 15.733C52.3793 15.4451 51.8376 15.0189 51.4474 14.4545C51.0611 13.8864 50.8584 13.1837 50.8395 12.3466H53.2202C53.2467 12.7367 53.3584 13.0625 53.5554 13.3239C53.7562 13.5814 54.0232 13.7765 54.3565 13.9091C54.6937 14.0379 55.0743 14.1023 55.4986 14.1023C55.9152 14.1023 56.277 14.0417 56.5838 13.9205C56.8944 13.7992 57.1349 13.6307 57.3054 13.4148C57.4759 13.1989 57.5611 12.9508 57.5611 12.6705C57.5611 12.4091 57.4834 12.1894 57.3281 12.0114C57.1766 11.8333 56.9531 11.6818 56.6577 11.5568C56.366 11.4318 56.008 11.3182 55.5838 11.2159L54.3168 10.8977C53.3357 10.6591 52.5611 10.286 51.9929 9.77841C51.4247 9.27083 51.1425 8.58712 51.1463 7.72727C51.1425 7.02273 51.33 6.4072 51.7088 5.88068C52.0914 5.35417 52.616 4.94318 53.2827 4.64773C53.9493 4.35227 54.7069 4.20455 55.5554 4.20455C56.419 4.20455 57.1728 4.35227 57.8168 4.64773C58.4645 4.94318 58.9683 5.35417 59.3281 5.88068C59.688 6.4072 59.8736 7.01705 59.8849 7.71023H57.527Z"/>
</mask>
<path d="M4.01705 16H1.38068L5.39773 4.36364H8.56818L12.5795 16H9.94318L7.02841 7.02273H6.9375L4.01705 16ZM3.85227 11.4261H10.0795V13.3466H3.85227V11.4261ZM16.4403 4.36364V16H13.9801V4.36364H16.4403ZM18.4645 16V4.36364H23.0554C23.9342 4.36364 24.6842 4.52083 25.3054 4.83523C25.9304 5.14583 26.4058 5.58712 26.7315 6.15909C27.0611 6.72727 27.2259 7.39583 27.2259 8.16477C27.2259 8.9375 27.0592 9.60227 26.7259 10.1591C26.3925 10.7121 25.9096 11.1364 25.277 11.4318C24.6482 11.7273 23.8868 11.875 22.9929 11.875H19.919V9.89773H22.5952C23.0649 9.89773 23.455 9.83333 23.7656 9.70455C24.0762 9.57576 24.3073 9.38258 24.4588 9.125C24.6141 8.86742 24.6918 8.54735 24.6918 8.16477C24.6918 7.77841 24.6141 7.45265 24.4588 7.1875C24.3073 6.92235 24.0743 6.72159 23.7599 6.58523C23.4493 6.44508 23.0573 6.375 22.5838 6.375H20.9247V16H18.4645ZM24.7486 10.7045L27.6406 16H24.9247L22.0952 10.7045H24.7486ZM28.9645 16V4.36364H33.6236C34.4796 4.36364 35.1937 4.49053 35.7656 4.74432C36.3376 4.99811 36.7675 5.35038 37.0554 5.80114C37.3433 6.24811 37.4872 6.76326 37.4872 7.34659C37.4872 7.80114 37.3963 8.20076 37.2145 8.54545C37.0327 8.88636 36.7827 9.16667 36.4645 9.38636C36.1501 9.60227 35.7902 9.75568 35.3849 9.84659V9.96023C35.8281 9.97917 36.2429 10.1042 36.6293 10.3352C37.0194 10.5663 37.3357 10.8902 37.5781 11.3068C37.8205 11.7197 37.9418 12.2121 37.9418 12.7841C37.9418 13.4015 37.7884 13.9527 37.4815 14.4375C37.1785 14.9186 36.7296 15.2992 36.1349 15.5795C35.5402 15.8598 34.8073 16 33.9361 16H28.9645ZM31.4247 13.9886H33.4304C34.116 13.9886 34.616 13.858 34.9304 13.5966C35.2448 13.3314 35.402 12.9792 35.402 12.5398C35.402 12.2178 35.3243 11.9337 35.169 11.6875C35.0137 11.4413 34.7921 11.2481 34.5043 11.108C34.2202 10.9678 33.8812 10.8977 33.4872 10.8977H31.4247V13.9886ZM31.4247 9.23295H33.2486C33.5857 9.23295 33.8849 9.17424 34.1463 9.05682C34.4115 8.93561 34.6198 8.76515 34.7713 8.54545C34.9266 8.32576 35.0043 8.0625 35.0043 7.75568C35.0043 7.33523 34.8546 6.99621 34.5554 6.73864C34.2599 6.48106 33.8395 6.35227 33.294 6.35227H31.4247V9.23295ZM46.7301 4.36364H49.1903V11.9205C49.1903 12.7689 48.9877 13.5114 48.5824 14.1477C48.1809 14.7841 47.6184 15.2803 46.8949 15.6364C46.1714 15.9886 45.3286 16.1648 44.3665 16.1648C43.4006 16.1648 42.5559 15.9886 41.8324 15.6364C41.1089 15.2803 40.5464 14.7841 40.1449 14.1477C39.7434 13.5114 39.5426 12.7689 39.5426 11.9205V4.36364H42.0028V11.7102C42.0028 12.1534 42.0994 12.5473 42.2926 12.892C42.4896 13.2367 42.7661 13.5076 43.1222 13.7045C43.4782 13.9015 43.893 14 44.3665 14C44.8438 14 45.2585 13.9015 45.6108 13.7045C45.9669 13.5076 46.2415 13.2367 46.4347 12.892C46.6316 12.5473 46.7301 12.1534 46.7301 11.7102V4.36364ZM57.527 7.71023C57.4815 7.25189 57.2865 6.89583 56.9418 6.64205C56.5971 6.38826 56.1293 6.26136 55.5384 6.26136C55.1368 6.26136 54.7978 6.31818 54.5213 6.43182C54.2448 6.54167 54.0327 6.69508 53.8849 6.89205C53.741 7.08902 53.669 7.3125 53.669 7.5625C53.6615 7.77083 53.705 7.95265 53.7997 8.10795C53.8982 8.26326 54.0327 8.39773 54.2031 8.51136C54.3736 8.62121 54.5705 8.7178 54.794 8.80114C55.0175 8.88068 55.2562 8.94886 55.5099 9.00568L56.5554 9.25568C57.063 9.36932 57.5289 9.52083 57.9531 9.71023C58.3774 9.89962 58.7448 10.1326 59.0554 10.4091C59.366 10.6856 59.6065 11.0114 59.777 11.3864C59.9512 11.7614 60.0402 12.1913 60.044 12.6761C60.0402 13.3883 59.8584 14.0057 59.4986 14.5284C59.1425 15.0473 58.6274 15.4508 57.9531 15.7386C57.2827 16.0227 56.474 16.1648 55.527 16.1648C54.5876 16.1648 53.7694 16.0208 53.0724 15.733C52.3793 15.4451 51.8376 15.0189 51.4474 14.4545C51.0611 13.8864 50.8584 13.1837 50.8395 12.3466H53.2202C53.2467 12.7367 53.3584 13.0625 53.5554 13.3239C53.7562 13.5814 54.0232 13.7765 54.3565 13.9091C54.6937 14.0379 55.0743 14.1023 55.4986 14.1023C55.9152 14.1023 56.277 14.0417 56.5838 13.9205C56.8944 13.7992 57.1349 13.6307 57.3054 13.4148C57.4759 13.1989 57.5611 12.9508 57.5611 12.6705C57.5611 12.4091 57.4834 12.1894 57.3281 12.0114C57.1766 11.8333 56.9531 11.6818 56.6577 11.5568C56.366 11.4318 56.008 11.3182 55.5838 11.2159L54.3168 10.8977C53.3357 10.6591 52.5611 10.286 51.9929 9.77841C51.4247 9.27083 51.1425 8.58712 51.1463 7.72727C51.1425 7.02273 51.33 6.4072 51.7088 5.88068C52.0914 5.35417 52.616 4.94318 53.2827 4.64773C53.9493 4.35227 54.7069 4.20455 55.5554 4.20455C56.419 4.20455 57.1728 4.35227 57.8168 4.64773C58.4645 4.94318 58.9683 5.35417 59.3281 5.88068C59.688 6.4072 59.8736 7.01705 59.8849 7.71023H57.527Z" fill="#333333"/>
<path d="M4.01705 16V16.5H4.38018L4.49252 16.1547L4.01705 16ZM1.38068 16L0.908052 15.8368L0.679119 16.5H1.38068V16ZM5.39773 4.36364V3.86364H5.04138L4.9251 4.20048L5.39773 4.36364ZM8.56818 4.36364L9.04088 4.20068L8.92469 3.86364H8.56818V4.36364ZM12.5795 16V16.5H13.2808L13.0522 15.837L12.5795 16ZM9.94318 16L9.46762 16.1544L9.57983 16.5H9.94318V16ZM7.02841 7.02273L7.50397 6.86832L7.39176 6.52273H7.02841V7.02273ZM6.9375 7.02273V6.52273H6.57437L6.46203 6.86805L6.9375 7.02273ZM3.85227 11.4261V10.9261H3.35227V11.4261H3.85227ZM10.0795 11.4261H10.5795V10.9261H10.0795V11.4261ZM10.0795 13.3466V13.8466H10.5795V13.3466H10.0795ZM3.85227 13.3466H3.35227V13.8466H3.85227V13.3466ZM4.01705 16V15.5H1.38068V16V16.5H4.01705V16ZM1.38068 16L1.85331 16.1632L5.87036 4.52679L5.39773 4.36364L4.9251 4.20048L0.908052 15.8368L1.38068 16ZM5.39773 4.36364V4.86364H8.56818V4.36364V3.86364H5.39773V4.36364ZM8.56818 4.36364L8.09548 4.52659L12.1068 16.163L12.5795 16L13.0522 15.837L9.04088 4.20068L8.56818 4.36364ZM12.5795 16V15.5H9.94318V16V16.5H12.5795V16ZM9.94318 16L10.4187 15.8456L7.50397 6.86832L7.02841 7.02273L6.55285 7.17713L9.46762 16.1544L9.94318 16ZM7.02841 7.02273V6.52273H6.9375V7.02273V7.52273H7.02841V7.02273ZM6.9375 7.02273L6.46203 6.86805L3.54157 15.8453L4.01705 16L4.49252 16.1547L7.41297 7.17741L6.9375 7.02273ZM3.85227 11.4261V11.9261H10.0795V11.4261V10.9261H3.85227V11.4261ZM10.0795 11.4261H9.57955V13.3466H10.0795H10.5795V11.4261H10.0795ZM10.0795 13.3466V12.8466H3.85227V13.3466V13.8466H10.0795V13.3466ZM3.85227 13.3466H4.35227V11.4261H3.85227H3.35227V13.3466H3.85227ZM16.4403 4.36364H16.9403V3.86364H16.4403V4.36364ZM16.4403 16V16.5H16.9403V16H16.4403ZM13.9801 16H13.4801V16.5H13.9801V16ZM13.9801 4.36364V3.86364H13.4801V4.36364H13.9801ZM16.4403 4.36364H15.9403V16H16.4403H16.9403V4.36364H16.4403ZM16.4403 16V15.5H13.9801V16V16.5H16.4403V16ZM13.9801 16H14.4801V4.36364H13.9801H13.4801V16H13.9801ZM13.9801 4.36364V4.86364H16.4403V4.36364V3.86364H13.9801V4.36364ZM18.4645 16H17.9645V16.5H18.4645V16ZM18.4645 4.36364V3.86364H17.9645V4.36364H18.4645ZM25.3054 4.83523L25.0796 5.28136L25.0829 5.28298L25.3054 4.83523ZM26.7315 6.15909L26.297 6.40655L26.299 6.40995L26.7315 6.15909ZM26.7259 10.1591L27.1541 10.4172L27.1549 10.4159L26.7259 10.1591ZM25.277 11.4318L25.0654 10.9788L25.0644 10.9793L25.277 11.4318ZM19.919 11.875H19.419V12.375H19.919V11.875ZM19.919 9.89773V9.39773H19.419V9.89773H19.919ZM23.7656 9.70455L23.9571 10.1664V10.1664L23.7656 9.70455ZM24.4588 9.125L24.0306 8.86681L24.0278 8.87149L24.4588 9.125ZM24.4588 7.1875L24.0247 7.43558L24.0274 7.4402L24.4588 7.1875ZM23.7599 6.58523L23.5543 7.04103L23.561 7.04394L23.7599 6.58523ZM20.9247 6.375V5.875H20.4247V6.375H20.9247ZM20.9247 16V16.5H21.4247V16H20.9247ZM24.7486 10.7045L25.1874 10.4649L25.0452 10.2045H24.7486V10.7045ZM27.6406 16V16.5H28.4834L28.0794 15.7603L27.6406 16ZM24.9247 16L24.4837 16.2356L24.625 16.5H24.9247V16ZM22.0952 10.7045V10.2045H21.2611L21.6542 10.9402L22.0952 10.7045ZM18.4645 16H18.9645V4.36364H18.4645H17.9645V16H18.4645ZM18.4645 4.36364V4.86364H23.0554V4.36364V3.86364H18.4645V4.36364ZM23.0554 4.36364V4.86364C23.8758 4.86364 24.5443 5.01044 25.0796 5.28135L25.3054 4.83523L25.5312 4.38911C24.824 4.03123 23.9926 3.86364 23.0554 3.86364V4.36364ZM25.3054 4.83523L25.0829 5.28298C25.6245 5.55217 26.0235 5.92624 26.2971 6.40654L26.7315 6.15909L27.166 5.91164C26.788 5.248 26.2363 4.73949 25.5279 4.38747L25.3054 4.83523ZM26.7315 6.15909L26.299 6.40995C26.5773 6.88979 26.7259 7.46876 26.7259 8.16477H27.2259H27.7259C27.7259 7.3229 27.5448 6.56476 27.164 5.90823L26.7315 6.15909ZM27.2259 8.16477H26.7259C26.7259 8.86441 26.5755 9.43672 26.2968 9.90227L26.7259 10.1591L27.1549 10.4159C27.5428 9.76783 27.7259 9.01059 27.7259 8.16477H27.2259ZM26.7259 10.1591L26.2976 9.90098C26.0197 10.362 25.6157 10.7218 25.0654 10.9788L25.277 11.4318L25.4886 11.8848C26.2035 11.5509 26.7653 11.0622 27.1541 10.4172L26.7259 10.1591ZM25.277 11.4318L25.0644 10.9793C24.5183 11.2359 23.8336 11.375 22.9929 11.375V11.875V12.375C23.94 12.375 24.7781 12.2187 25.4896 11.8844L25.277 11.4318ZM22.9929 11.875V11.375H19.919V11.875V12.375H22.9929V11.875ZM19.919 11.875H20.419V9.89773H19.919H19.419V11.875H19.919ZM19.919 9.89773V10.3977H22.5952V9.89773V9.39773H19.919V9.89773ZM22.5952 9.89773V10.3977C23.1063 10.3977 23.5668 10.3282 23.9571 10.1664L23.7656 9.70455L23.5741 9.24267C23.3432 9.33842 23.0234 9.39773 22.5952 9.39773V9.89773ZM23.7656 9.70455L23.9571 10.1664C24.3549 10.0015 24.6764 9.7413 24.8898 9.37851L24.4588 9.125L24.0278 8.87149C23.9382 9.02385 23.7976 9.15002 23.5741 9.24267L23.7656 9.70455ZM24.4588 9.125L24.887 9.38317C25.1005 9.02914 25.1918 8.61393 25.1918 8.16477H24.6918H24.1918C24.1918 8.48077 24.1278 8.70571 24.0306 8.86683L24.4588 9.125ZM24.6918 8.16477H25.1918C25.1918 7.71215 25.1006 7.29397 24.8902 6.9348L24.4588 7.1875L24.0274 7.4402C24.1276 7.61133 24.1918 7.84467 24.1918 8.16477H24.6918ZM24.4588 7.1875L24.8929 6.93943C24.6813 6.56917 24.3597 6.30035 23.9589 6.12652L23.7599 6.58523L23.561 7.04394C23.789 7.14283 23.9332 7.27553 24.0247 7.43557L24.4588 7.1875ZM23.7599 6.58523L23.9656 6.12947C23.5703 5.95113 23.1024 5.875 22.5838 5.875V6.375V6.875C23.0122 6.875 23.3283 6.93902 23.5543 7.04098L23.7599 6.58523ZM22.5838 6.375V5.875H20.9247V6.375V6.875H22.5838V6.375ZM20.9247 6.375H20.4247V16H20.9247H21.4247V6.375H20.9247ZM20.9247 16V15.5H18.4645V16V16.5H20.9247V16ZM24.7486 10.7045L24.3098 10.9442L27.2018 16.2397L27.6406 16L28.0794 15.7603L25.1874 10.4649L24.7486 10.7045ZM27.6406 16V15.5H24.9247V16V16.5H27.6406V16ZM24.9247 16L25.3657 15.7644L22.5362 10.4689L22.0952 10.7045L21.6542 10.9402L24.4837 16.2356L24.9247 16ZM22.0952 10.7045V11.2045H24.7486V10.7045V10.2045H22.0952V10.7045ZM28.9645 16H28.4645V16.5H28.9645V16ZM28.9645 4.36364V3.86364H28.4645V4.36364H28.9645ZM35.7656 4.74432L35.5628 5.20135L35.7656 4.74432ZM37.0554 5.80114L36.634 6.07026L36.635 6.07187L37.0554 5.80114ZM37.2145 8.54545L37.6557 8.78075L37.6567 8.77873L37.2145 8.54545ZM36.4645 9.38636L36.7475 9.79853L36.7486 9.79781L36.4645 9.38636ZM35.3849 9.84659L35.2755 9.35871L34.8849 9.44632V9.84659H35.3849ZM35.3849 9.96023H34.8849V10.4393L35.3636 10.4598L35.3849 9.96023ZM36.6293 10.3352L36.3726 10.7643L36.3745 10.7654L36.6293 10.3352ZM37.5781 11.3068L37.1459 11.5583L37.147 11.56L37.5781 11.3068ZM37.4815 14.4375L37.059 14.1701L37.0585 14.171L37.4815 14.4375ZM36.1349 15.5795L35.9218 15.1273L36.1349 15.5795ZM31.4247 13.9886H30.9247V14.4886H31.4247V13.9886ZM34.9304 13.5966L35.25 13.9811L35.2528 13.9788L34.9304 13.5966ZM35.169 11.6875L34.7461 11.9543L35.169 11.6875ZM34.5043 11.108L34.283 11.5564L34.2854 11.5575L34.5043 11.108ZM31.4247 10.8977V10.3977H30.9247V10.8977H31.4247ZM31.4247 9.23295H30.9247V9.73295H31.4247V9.23295ZM34.1463 9.05682L34.3512 9.51291L34.3542 9.51156L34.1463 9.05682ZM34.7713 8.54545L34.363 8.25682L34.3597 8.26159L34.7713 8.54545ZM34.5554 6.73864L34.2268 7.11553L34.2292 7.11759L34.5554 6.73864ZM31.4247 6.35227V5.85227H30.9247V6.35227H31.4247ZM28.9645 16H29.4645V4.36364H28.9645H28.4645V16H28.9645ZM28.9645 4.36364V4.86364H33.6236V4.36364V3.86364H28.9645V4.36364ZM33.6236 4.36364V4.86364C34.434 4.86364 35.0736 4.98428 35.5628 5.20135L35.7656 4.74432L35.9684 4.28729C35.3137 3.99678 34.5253 3.86364 33.6236 3.86364V4.36364ZM35.7656 4.74432L35.5628 5.20135C36.0607 5.42224 36.4075 5.71553 36.634 6.07026L37.0554 5.80114L37.4768 5.53201C37.1276 4.98523 36.6145 4.57397 35.9684 4.28729L35.7656 4.74432ZM37.0554 5.80114L36.635 6.07187C36.8659 6.43034 36.9872 6.84959 36.9872 7.34659H37.4872H37.9872C37.9872 6.67693 37.8206 6.06587 37.4758 5.5304L37.0554 5.80114ZM37.4872 7.34659H36.9872C36.9872 7.7334 36.9103 8.05049 36.7722 8.31218L37.2145 8.54545L37.6567 8.77873C37.8823 8.35102 37.9872 7.86888 37.9872 7.34659H37.4872ZM37.2145 8.54545L36.7733 8.31016C36.6291 8.5806 36.433 8.80052 36.1804 8.97491L36.4645 9.38636L36.7486 9.79781C37.1324 9.53281 37.4363 9.19213 37.6557 8.78075L37.2145 8.54545ZM36.4645 9.38636L36.1814 8.9742C35.9241 9.15094 35.6242 9.2805 35.2755 9.35871L35.3849 9.84659L35.4944 10.3345C35.9563 10.2309 36.3761 10.0536 36.7475 9.79853L36.4645 9.38636ZM35.3849 9.84659H34.8849V9.96023H35.3849H35.8849V9.84659H35.3849ZM35.3849 9.96023L35.3636 10.4598C35.7224 10.4751 36.0565 10.5753 36.3726 10.7643L36.6293 10.3352L36.8859 9.90611C36.4293 9.63304 35.9338 9.48323 35.4063 9.46068L35.3849 9.96023ZM36.6293 10.3352L36.3745 10.7654C36.6866 10.9503 36.9436 11.2105 37.146 11.5583L37.5781 11.3068L38.0103 11.0554C37.7278 10.5698 37.3523 10.1823 36.884 9.90501L36.6293 10.3352ZM37.5781 11.3068L37.147 11.56C37.3363 11.8824 37.4418 12.2837 37.4418 12.7841H37.9418H38.4418C38.4418 12.1405 38.3048 11.557 38.0093 11.0537L37.5781 11.3068ZM37.9418 12.7841H37.4418C37.4418 13.3144 37.3114 13.7714 37.059 14.1701L37.4815 14.4375L37.904 14.7049C38.2654 14.1339 38.4418 13.4887 38.4418 12.7841H37.9418ZM37.4815 14.4375L37.0585 14.171C36.8138 14.5594 36.444 14.8811 35.9218 15.1273L36.1349 15.5795L36.3481 16.0318C37.0153 15.7174 37.5432 15.2777 37.9046 14.704L37.4815 14.4375ZM36.1349 15.5795L35.9218 15.1273C35.4117 15.3677 34.7565 15.5 33.9361 15.5V16V16.5C34.8581 16.5 35.6688 16.352 36.3481 16.0318L36.1349 15.5795ZM33.9361 16V15.5H28.9645V16V16.5H33.9361V16ZM31.4247 13.9886V14.4886H33.4304V13.9886V13.4886H31.4247V13.9886ZM33.4304 13.9886V14.4886C34.1601 14.4886 34.8025 14.3531 35.25 13.9811L34.9304 13.5966L34.6108 13.2121C34.4295 13.3628 34.0719 13.4886 33.4304 13.4886V13.9886ZM34.9304 13.5966L35.2528 13.9788C35.6883 13.6115 35.902 13.115 35.902 12.5398H35.402H34.902C34.902 12.8433 34.8013 13.0514 34.608 13.2144L34.9304 13.5966ZM35.402 12.5398H35.902C35.902 12.1337 35.8029 11.7551 35.5919 11.4207L35.169 11.6875L34.7461 11.9543C34.8458 12.1123 34.902 12.3019 34.902 12.5398H35.402ZM35.169 11.6875L35.5919 11.4207C35.3821 11.088 35.0861 10.8351 34.7231 10.6584L34.5043 11.108L34.2854 11.5575C34.4982 11.6611 34.6454 11.7945 34.7461 11.9543L35.169 11.6875ZM34.5043 11.108L34.7255 10.6596C34.3579 10.4782 33.9396 10.3977 33.4872 10.3977V10.8977V11.3977C33.8227 11.3977 34.0825 11.4574 34.2831 11.5564L34.5043 11.108ZM33.4872 10.8977V10.3977H31.4247V10.8977V11.3977H33.4872V10.8977ZM31.4247 10.8977H30.9247V13.9886H31.4247H31.9247V10.8977H31.4247ZM31.4247 9.23295V9.73295H33.2486V9.23295V8.73295H31.4247V9.23295ZM33.2486 9.23295V9.73295C33.644 9.73295 34.015 9.66394 34.3512 9.5129L34.1463 9.05682L33.9414 8.60073C33.7548 8.68455 33.5274 8.73295 33.2486 8.73295V9.23295ZM34.1463 9.05682L34.3542 9.51156C34.6936 9.3564 34.9755 9.1301 35.1829 8.82932L34.7713 8.54545L34.3597 8.26159C34.2641 8.4002 34.1293 8.51481 33.9384 8.60208L34.1463 9.05682ZM34.7713 8.54545L35.1796 8.83407C35.4027 8.51845 35.5043 8.15082 35.5043 7.75568H35.0043H34.5043C34.5043 7.97418 34.4505 8.13306 34.363 8.25684L34.7713 8.54545ZM35.0043 7.75568H35.5043C35.5043 7.20037 35.2991 6.71904 34.8816 6.35969L34.5554 6.73864L34.2292 7.11759C34.4102 7.27339 34.5043 7.47009 34.5043 7.75568H35.0043ZM34.5554 6.73864L34.884 6.36175C34.4673 5.99849 33.9131 5.85227 33.294 5.85227V6.35227V6.85227C33.7659 6.85227 34.0526 6.96363 34.2268 7.11552L34.5554 6.73864ZM33.294 6.35227V5.85227H31.4247V6.35227V6.85227H33.294V6.35227ZM31.4247 6.35227H30.9247V9.23295H31.4247H31.9247V6.35227H31.4247ZM46.7301 4.36364V3.86364H46.2301V4.36364H46.7301ZM49.1903 4.36364H49.6903V3.86364H49.1903V4.36364ZM48.5824 14.1477L48.1607 13.8791L48.1595 13.8809L48.5824 14.1477ZM46.8949 15.6364L47.1138 16.0859L47.1157 16.085L46.8949 15.6364ZM41.8324 15.6364L41.6116 16.085L41.6135 16.0859L41.8324 15.6364ZM40.1449 14.1477L39.722 14.4145L40.1449 14.1477ZM39.5426 4.36364V3.86364H39.0426V4.36364H39.5426ZM42.0028 4.36364H42.5028V3.86364H42.0028V4.36364ZM42.2926 12.892L41.8564 13.1365L41.8585 13.1401L42.2926 12.892ZM43.1222 13.7045L42.8801 14.1421L43.1222 13.7045ZM45.6108 13.7045L45.3688 13.267L45.3668 13.2681L45.6108 13.7045ZM46.4347 12.892L46.0005 12.644L45.9985 12.6476L46.4347 12.892ZM46.7301 4.36364V4.86364H49.1903V4.36364V3.86364H46.7301V4.36364ZM49.1903 4.36364H48.6903V11.9205H49.1903H49.6903V4.36364H49.1903ZM49.1903 11.9205H48.6903C48.6903 12.686 48.5087 13.3327 48.1607 13.8791L48.5824 14.1477L49.0041 14.4163C49.4667 13.69 49.6903 12.8519 49.6903 11.9205H49.1903ZM48.5824 14.1477L48.1595 13.8809C47.8108 14.4336 47.3209 14.8694 46.6741 15.1877L46.8949 15.6364L47.1157 16.085C47.9158 15.6912 48.5509 15.1346 49.0053 14.4145L48.5824 14.1477ZM46.8949 15.6364L46.676 15.1868C46.0328 15.5 45.2674 15.6648 44.3665 15.6648V16.1648V16.6648C45.3898 16.6648 46.31 16.4773 47.1138 16.0859L46.8949 15.6364ZM44.3665 16.1648V15.6648C43.4614 15.6648 42.6942 15.4999 42.0513 15.1868L41.8324 15.6364L41.6135 16.0859C42.4175 16.4774 43.3397 16.6648 44.3665 16.6648V16.1648ZM41.8324 15.6364L42.0532 15.1877C41.4064 14.8694 40.9164 14.4336 40.5677 13.8809L40.1449 14.1477L39.722 14.4145C40.1764 15.1346 40.8114 15.6912 41.6116 16.085L41.8324 15.6364ZM40.1449 14.1477L40.5677 13.8809C40.2229 13.3343 40.0426 12.6869 40.0426 11.9205H39.5426H39.0426C39.0426 12.851 39.2639 13.6884 39.722 14.4145L40.1449 14.1477ZM39.5426 11.9205H40.0426V4.36364H39.5426H39.0426V11.9205H39.5426ZM39.5426 4.36364V4.86364H42.0028V4.36364V3.86364H39.5426V4.36364ZM42.0028 4.36364H41.5028V11.7102H42.0028H42.5028V4.36364H42.0028ZM42.0028 11.7102H41.5028C41.5028 12.2284 41.6165 12.7084 41.8564 13.1365L42.2926 12.892L42.7288 12.6476C42.5824 12.3863 42.5028 12.0784 42.5028 11.7102H42.0028ZM42.2926 12.892L41.8585 13.1401C42.1021 13.5664 42.446 13.9019 42.8801 14.1421L43.1222 13.7045L43.3642 13.267C43.0862 13.1132 42.8771 12.9071 42.7267 12.644L42.2926 12.892ZM43.1222 13.7045L42.8801 14.1421C43.3216 14.3863 43.8223 14.5 44.3665 14.5V14V13.5C43.9637 13.5 43.6348 13.4168 43.3642 13.267L43.1222 13.7045ZM44.3665 14V14.5C44.9135 14.5 45.4154 14.3866 45.8548 14.141L45.6108 13.7045L45.3668 13.2681C45.1016 13.4164 44.774 13.5 44.3665 13.5V14ZM45.6108 13.7045L45.8528 14.1421C46.2878 13.9015 46.6308 13.5649 46.8708 13.1365L46.4347 12.892L45.9985 12.6476C45.8522 12.9086 45.646 13.1137 45.3688 13.267L45.6108 13.7045ZM46.4347 12.892L46.8688 13.1401C47.1138 12.7114 47.2301 12.2301 47.2301 11.7102H46.7301H46.2301C46.2301 12.0767 46.1495 12.3833 46.0005 12.644L46.4347 12.892ZM46.7301 11.7102H47.2301V4.36364H46.7301H46.2301V11.7102H46.7301ZM57.527 7.71023L57.0294 7.75957L57.0741 8.21023H57.527V7.71023ZM54.5213 6.43182L54.7059 6.89653L54.7114 6.89429L54.5213 6.43182ZM53.8849 6.89205L53.4849 6.59202L53.4812 6.59704L53.8849 6.89205ZM53.669 7.5625L54.1687 7.58067L54.169 7.57159V7.5625H53.669ZM53.7997 8.10795L53.3728 8.3683L53.3775 8.37573L53.7997 8.10795ZM54.2031 8.51136L53.9257 8.92744L53.9323 8.93165L54.2031 8.51136ZM54.794 8.80114L54.6193 9.26968L54.6264 9.27219L54.794 8.80114ZM55.5099 9.00568L55.6262 8.51934L55.6192 8.51776L55.5099 9.00568ZM56.5554 9.25568L56.4391 9.74202L56.4462 9.7436L56.5554 9.25568ZM57.9531 9.71023L57.7493 10.1668L57.9531 9.71023ZM59.0554 10.4091L59.3879 10.0356L59.0554 10.4091ZM59.777 11.3864L59.3218 11.5933L59.3235 11.5971L59.777 11.3864ZM60.044 12.6761L60.5441 12.6788L60.544 12.6722L60.044 12.6761ZM59.4986 14.5284L59.0867 14.2449L59.0863 14.2455L59.4986 14.5284ZM57.9531 15.7386L58.1482 16.199L58.1495 16.1985L57.9531 15.7386ZM53.0724 15.733L52.8807 16.1947L52.8816 16.1951L53.0724 15.733ZM51.4474 14.4545L51.034 14.7357L51.0361 14.7389L51.4474 14.4545ZM50.8395 12.3466V11.8466H50.328L50.3396 12.3579L50.8395 12.3466ZM53.2202 12.3466L53.719 12.3127L53.6873 11.8466H53.2202V12.3466ZM53.5554 13.3239L53.156 13.6248L53.161 13.6312L53.5554 13.3239ZM54.3565 13.9091L54.1717 14.3737L54.1781 14.3762L54.3565 13.9091ZM56.5838 13.9205L56.402 13.4547L56.4001 13.4554L56.5838 13.9205ZM57.3054 13.4148L57.6978 13.7246L57.3054 13.4148ZM57.3281 12.0114L56.9473 12.3354L56.9513 12.34L57.3281 12.0114ZM56.6577 11.5568L56.4607 12.0164L56.4628 12.0173L56.6577 11.5568ZM55.5838 11.2159L55.462 11.7009L55.4666 11.702L55.5838 11.2159ZM54.3168 10.8977L54.4385 10.4128L54.4349 10.4119L54.3168 10.8977ZM51.9929 9.77841L51.6598 10.1513L51.9929 9.77841ZM51.1463 7.72727L51.6463 7.72947L51.6463 7.72458L51.1463 7.72727ZM51.7088 5.88068L51.3043 5.58677L51.3029 5.58868L51.7088 5.88068ZM57.8168 4.64773L57.6082 5.10218L57.6093 5.10264L57.8168 4.64773ZM59.3281 5.88068L58.9153 6.16281V6.16281L59.3281 5.88068ZM59.8849 7.71023V8.21023H60.3932L60.3849 7.70203L59.8849 7.71023ZM57.527 7.71023L58.0245 7.66088C57.9663 7.07366 57.7063 6.58408 57.2382 6.23941L56.9418 6.64205L56.6453 7.04468C56.8666 7.20759 56.9968 7.43013 57.0294 7.75957L57.527 7.71023ZM56.9418 6.64205L57.2382 6.23941C56.7804 5.90231 56.1962 5.76136 55.5384 5.76136V6.26136V6.76136C56.0623 6.76136 56.4138 6.87421 56.6453 7.04468L56.9418 6.64205ZM55.5384 6.26136V5.76136C55.0927 5.76136 54.6849 5.82401 54.3312 5.96935L54.5213 6.43182L54.7114 6.89429C54.9107 6.81235 55.181 6.76136 55.5384 6.76136V6.26136ZM54.5213 6.43182L54.3367 5.96714C53.9925 6.10388 53.6985 6.30736 53.4849 6.59204L53.8849 6.89205L54.2849 7.19205C54.3669 7.08279 54.4971 6.97945 54.7059 6.89649L54.5213 6.43182ZM53.8849 6.89205L53.4812 6.59704C53.2731 6.88189 53.169 7.20926 53.169 7.5625H53.669H54.169C54.169 7.41574 54.2089 7.29614 54.2886 7.18705L53.8849 6.89205ZM53.669 7.5625L53.1694 7.54433C53.1588 7.8359 53.2199 8.11753 53.3728 8.36826L53.7997 8.10795L54.2266 7.84765C54.1901 7.78778 54.1642 7.70577 54.1687 7.58067L53.669 7.5625ZM53.7997 8.10795L53.3775 8.37573C53.5174 8.59643 53.7038 8.77944 53.9258 8.92739L54.2031 8.51136L54.4805 8.09534C54.3615 8.01602 54.279 7.93009 54.222 7.84018L53.7997 8.10795ZM54.2031 8.51136L53.9323 8.93165C54.1377 9.06403 54.3679 9.17586 54.6193 9.26963L54.794 8.80114L54.9687 8.33265C54.7732 8.25974 54.6095 8.17839 54.474 8.09108L54.2031 8.51136ZM54.794 8.80114L54.6264 9.27219C54.8707 9.35915 55.129 9.43277 55.4007 9.4936L55.5099 9.00568L55.6192 8.51776C55.3833 8.46496 55.1643 8.40221 54.9617 8.33008L54.794 8.80114ZM55.5099 9.00568L55.3937 9.49197L56.4391 9.74197L56.5554 9.25568L56.6717 8.76939L55.6262 8.51939L55.5099 9.00568ZM56.5554 9.25568L56.4462 9.7436C56.925 9.85081 57.3588 9.99248 57.7493 10.1668L57.9531 9.71023L58.157 9.25366C57.6989 9.04919 57.2009 8.88782 56.6646 8.76776L56.5554 9.25568ZM57.9531 9.71023L57.7493 10.1668C58.1321 10.3377 58.4549 10.5439 58.7229 10.7825L59.0554 10.4091L59.3879 10.0356C59.0347 9.72123 58.6227 9.46156 58.157 9.25366L57.9531 9.71023ZM59.0554 10.4091L58.7229 10.7825C58.982 11.0132 59.1805 11.2824 59.3218 11.5933L59.777 11.3864L60.2322 11.1795C60.0326 10.7404 59.75 10.3581 59.3879 10.0356L59.0554 10.4091ZM59.777 11.3864L59.3235 11.5971C59.4629 11.897 59.5407 12.2544 59.544 12.68L60.044 12.6761L60.544 12.6722C60.5398 12.1281 60.4395 11.6257 60.2304 11.1757L59.777 11.3864ZM60.044 12.6761L59.544 12.6735C59.5407 13.298 59.3829 13.8147 59.0867 14.2449L59.4986 14.5284L59.9104 14.8119C60.334 14.1967 60.5398 13.4785 60.544 12.6788L60.044 12.6761ZM59.4986 14.5284L59.0863 14.2455C58.7923 14.674 58.3584 15.0219 57.7568 15.2788L57.9531 15.7386L58.1495 16.1985C58.8964 15.8796 59.4927 15.4207 59.9109 14.8113L59.4986 14.5284ZM57.9531 15.7386L57.758 15.2783C57.1648 15.5296 56.4262 15.6648 55.527 15.6648V16.1648V16.6648C56.5218 16.6648 57.4005 16.5158 58.1482 16.199L57.9531 15.7386ZM55.527 16.1648V15.6648C54.6375 15.6648 53.8869 15.5284 53.2633 15.2708L53.0724 15.733L52.8816 16.1951C53.652 16.5133 54.5377 16.6648 55.527 16.6648V16.1648ZM53.0724 15.733L53.2642 15.2712C52.6511 15.0166 52.1892 14.6482 51.8587 14.1702L51.4474 14.4545L51.0361 14.7389C51.486 15.3896 52.1075 15.8736 52.8807 16.1947L53.0724 15.733ZM51.4474 14.4545L51.8609 14.1734C51.5396 13.7008 51.3566 13.0972 51.3394 12.3353L50.8395 12.3466L50.3396 12.3579C50.3603 13.2702 50.5826 14.0719 51.034 14.7357L51.4474 14.4545ZM50.8395 12.3466V12.8466H53.2202V12.3466V11.8466H50.8395V12.3466ZM53.2202 12.3466L52.7213 12.3805C52.7531 12.8483 52.8902 13.272 53.1561 13.6248L53.5554 13.3239L53.9547 13.0229C53.8267 12.853 53.7403 12.6252 53.719 12.3127L53.2202 12.3466ZM53.5554 13.3239L53.161 13.6312C53.4217 13.9657 53.7642 14.2116 54.1717 14.3737L54.3565 13.9091L54.5413 13.4445C54.2822 13.3414 54.0906 13.1972 53.9498 13.0165L53.5554 13.3239ZM54.3565 13.9091L54.1781 14.3762C54.5812 14.5302 55.0238 14.6023 55.4986 14.6023V14.1023V13.6023C55.1248 13.6023 54.8061 13.5456 54.535 13.442L54.3565 13.9091ZM55.4986 14.1023V14.6023C55.9623 14.6023 56.3891 14.535 56.7675 14.3855L56.5838 13.9205L56.4001 13.4554C56.1649 13.5483 55.8682 13.6023 55.4986 13.6023V14.1023ZM56.5838 13.9205L56.7656 14.3862C57.1415 14.2396 57.4617 14.0237 57.6978 13.7246L57.3054 13.4148L56.913 13.1049C56.8082 13.2376 56.6474 13.3589 56.402 13.4547L56.5838 13.9205ZM57.3054 13.4148L57.6978 13.7246C57.9394 13.4186 58.0611 13.0609 58.0611 12.6705H57.5611H57.0611C57.0611 12.8406 57.0123 12.9791 56.913 13.105L57.3054 13.4148ZM57.5611 12.6705H58.0611C58.0611 12.302 57.9483 11.9617 57.7049 11.6827L57.3281 12.0114L56.9513 12.34C57.0186 12.4171 57.0611 12.5161 57.0611 12.6705H57.5611ZM57.3281 12.0114L57.7089 11.6873C57.4917 11.4321 57.1944 11.241 56.8525 11.0963L56.6577 11.5568L56.4628 12.0173C56.7118 12.1226 56.8616 12.2346 56.9474 12.3354L57.3281 12.0114ZM56.6577 11.5568L56.8546 11.0972C56.5296 10.958 56.1432 10.8364 55.701 10.7298L55.5838 11.2159L55.4666 11.702C55.8729 11.7999 56.2024 11.9057 56.4607 12.0164L56.6577 11.5568ZM55.5838 11.2159L55.7056 10.731L54.4385 10.4128L54.3168 10.8977L54.195 11.3827L55.462 11.7009L55.5838 11.2159ZM54.3168 10.8977L54.4349 10.4119C53.5087 10.1866 52.8162 9.84347 52.326 9.40553L51.9929 9.77841L51.6598 10.1513C52.3059 10.7285 53.1627 11.1316 54.1986 11.3836L54.3168 10.8977ZM51.9929 9.77841L52.326 9.40553C51.879 9.00617 51.6431 8.46665 51.6463 7.72947L51.1463 7.72727L50.6463 7.72507C50.642 8.70759 50.9705 9.5355 51.6598 10.1513L51.9929 9.77841ZM51.1463 7.72727L51.6463 7.72458C51.643 7.11612 51.803 6.60589 52.1147 6.17268L51.7088 5.88068L51.3029 5.58868C50.857 6.2085 50.642 6.92933 50.6463 7.72996L51.1463 7.72727ZM51.7088 5.88068L52.1133 6.17459C52.4381 5.72759 52.8892 5.36902 53.4853 5.10485L53.2827 4.64773L53.0801 4.19061C52.3428 4.51735 51.7447 4.98074 51.3043 5.58677L51.7088 5.88068ZM53.2827 4.64773L53.4853 5.10485C54.0785 4.84192 54.7654 4.70455 55.5554 4.70455V4.20455V3.70455C54.6484 3.70455 53.8201 3.86263 53.0801 4.19061L53.2827 4.64773ZM55.5554 4.20455V4.70455C56.3625 4.70455 57.0424 4.84257 57.6082 5.10217L57.8168 4.64773L58.0253 4.19328C57.3032 3.86198 56.4756 3.70455 55.5554 3.70455V4.20455ZM57.8168 4.64773L57.6093 5.10264C58.184 5.3648 58.6127 5.72003 58.9153 6.16281L59.3281 5.88068L59.7409 5.59855C59.3239 4.98831 58.745 4.52157 58.0243 4.19282L57.8168 4.64773ZM59.3281 5.88068L58.9153 6.16281C59.2151 6.60147 59.3751 7.11422 59.385 7.71842L59.8849 7.71023L60.3849 7.70203C60.3721 6.91987 60.1608 6.21293 59.7409 5.59855L59.3281 5.88068ZM59.8849 7.71023V7.21023H57.527V7.71023V8.21023H59.8849V7.71023Z" fill="#333333" mask="url(#path-1-outside-1_28_105)"/>
</svg>
