<svg width="46" height="15" viewBox="0 0 46 15" fill="none" xmlns="http://www.w3.org/2000/svg">
<mask id="path-1-outside-1_28_130" maskUnits="userSpaceOnUse" x="0" y="2" width="46" height="11" fill="black">
<rect fill="white" y="2" width="46" height="11"/>
<path d="M0.758523 12V3.27273H4.25284C4.89489 3.27273 5.4304 3.3679 5.85938 3.55824C6.28835 3.74858 6.6108 4.01278 6.8267 4.35085C7.04261 4.68608 7.15057 5.07244 7.15057 5.50994C7.15057 5.85085 7.08239 6.15057 6.94602 6.40909C6.80966 6.66477 6.62216 6.875 6.38352 7.03977C6.14773 7.2017 5.87784 7.31676 5.57386 7.38494V7.47017C5.90625 7.48437 6.21733 7.57812 6.5071 7.75142C6.79972 7.92472 7.03693 8.16761 7.21875 8.48011C7.40057 8.78977 7.49148 9.15909 7.49148 9.58807C7.49148 10.0511 7.37642 10.4645 7.14631 10.8281C6.91903 11.1889 6.58239 11.4744 6.13636 11.6847C5.69034 11.8949 5.14063 12 4.48722 12H0.758523ZM2.60369 10.4915H4.10795C4.62216 10.4915 4.99716 10.3935 5.23295 10.1974C5.46875 9.99858 5.58665 9.73437 5.58665 9.40483C5.58665 9.16335 5.52841 8.95028 5.41193 8.76562C5.29545 8.58097 5.12926 8.43608 4.91335 8.33097C4.70028 8.22585 4.44602 8.1733 4.15057 8.1733H2.60369V10.4915ZM2.60369 6.92472H3.97159C4.22443 6.92472 4.44886 6.88068 4.64489 6.79261C4.84375 6.7017 5 6.57386 5.11364 6.40909C5.23011 6.24432 5.28835 6.04688 5.28835 5.81676C5.28835 5.50142 5.17614 5.24716 4.9517 5.05398C4.73011 4.8608 4.41477 4.7642 4.00568 4.7642H2.60369V6.92472ZM16.712 7.63636C16.712 8.58807 16.5316 9.39773 16.1708 10.0653C15.8129 10.733 15.3242 11.2429 14.7049 11.5952C14.0884 11.9446 13.3952 12.1193 12.6254 12.1193C11.8498 12.1193 11.1538 11.9432 10.5373 11.5909C9.92081 11.2386 9.43359 10.7287 9.07564 10.0611C8.71768 9.39347 8.53871 8.58523 8.53871 7.63636C8.53871 6.68466 8.71768 5.875 9.07564 5.20739C9.43359 4.53977 9.92081 4.03125 10.5373 3.68182C11.1538 3.32955 11.8498 3.15341 12.6254 3.15341C13.3952 3.15341 14.0884 3.32955 14.7049 3.68182C15.3242 4.03125 15.8129 4.53977 16.1708 5.20739C16.5316 5.875 16.712 6.68466 16.712 7.63636ZM14.8413 7.63636C14.8413 7.01989 14.7489 6.5 14.5643 6.0767C14.3825 5.65341 14.1254 5.33239 13.793 5.11364C13.4606 4.89489 13.0714 4.78551 12.6254 4.78551C12.1793 4.78551 11.7901 4.89489 11.4577 5.11364C11.1254 5.33239 10.8668 5.65341 10.6822 6.0767C10.5004 6.5 10.4094 7.01989 10.4094 7.63636C10.4094 8.25284 10.5004 8.77273 10.6822 9.19602C10.8668 9.61932 11.1254 9.94034 11.4577 10.1591C11.7901 10.3778 12.1793 10.4872 12.6254 10.4872C13.0714 10.4872 13.4606 10.3778 13.793 10.1591C14.1254 9.94034 14.3825 9.61932 14.5643 9.19602C14.7489 8.77273 14.8413 8.25284 14.8413 7.63636ZM18.0788 12V3.27273H23.9595V4.79403H19.924V6.87358H23.657V8.39489H19.924V10.4787H23.9766V12H18.0788ZM27.2717 3.27273V12H25.4265V3.27273H27.2717ZM36.0895 3.27273V12H34.4957L30.6989 6.5071H30.6349V12H28.7898V3.27273H30.4091L34.1761 8.76136H34.2528V3.27273H36.0895ZM43.4009 6.09375C43.3413 5.88636 43.2575 5.70312 43.1495 5.54403C43.0415 5.3821 42.9094 5.24574 42.7532 5.13494C42.5998 5.02131 42.4237 4.93466 42.2248 4.875C42.0288 4.81534 41.8114 4.78551 41.5728 4.78551C41.1268 4.78551 40.7347 4.89631 40.3967 5.1179C40.0614 5.33949 39.8001 5.66193 39.6126 6.08523C39.4251 6.50568 39.3313 7.01989 39.3313 7.62784C39.3313 8.2358 39.4237 8.75284 39.6083 9.17898C39.793 9.60511 40.0543 9.9304 40.3924 10.1548C40.7305 10.3764 41.1296 10.4872 41.5898 10.4872C42.0075 10.4872 42.364 10.4134 42.6594 10.2656C42.9577 10.1151 43.185 9.90341 43.3413 9.63068C43.5004 9.35795 43.5799 9.03551 43.5799 8.66335L43.9549 8.71875H41.7049V7.32955H45.3569V8.42898C45.3569 9.19602 45.195 9.85511 44.8711 10.4062C44.5472 10.9545 44.1012 11.3778 43.533 11.6761C42.9648 11.9716 42.3143 12.1193 41.5813 12.1193C40.7631 12.1193 40.0444 11.9389 39.4251 11.5781C38.8058 11.2145 38.3228 10.6989 37.9762 10.0312C37.6325 9.3608 37.4606 8.56534 37.4606 7.64489C37.4606 6.9375 37.5629 6.30682 37.7674 5.75284C37.9748 5.19602 38.2646 4.72443 38.6367 4.33807C39.0089 3.9517 39.4421 3.65767 39.9364 3.45597C40.4308 3.25426 40.9663 3.15341 41.543 3.15341C42.0373 3.15341 42.4975 3.22585 42.9237 3.37074C43.3498 3.51278 43.7276 3.71449 44.0572 3.97585C44.3896 4.23722 44.6609 4.5483 44.8711 4.90909C45.0813 5.26705 45.2163 5.66193 45.2759 6.09375H43.4009Z"/>
</mask>
<path d="M0.758523 12V3.27273H4.25284C4.89489 3.27273 5.4304 3.3679 5.85938 3.55824C6.28835 3.74858 6.6108 4.01278 6.8267 4.35085C7.04261 4.68608 7.15057 5.07244 7.15057 5.50994C7.15057 5.85085 7.08239 6.15057 6.94602 6.40909C6.80966 6.66477 6.62216 6.875 6.38352 7.03977C6.14773 7.2017 5.87784 7.31676 5.57386 7.38494V7.47017C5.90625 7.48437 6.21733 7.57812 6.5071 7.75142C6.79972 7.92472 7.03693 8.16761 7.21875 8.48011C7.40057 8.78977 7.49148 9.15909 7.49148 9.58807C7.49148 10.0511 7.37642 10.4645 7.14631 10.8281C6.91903 11.1889 6.58239 11.4744 6.13636 11.6847C5.69034 11.8949 5.14063 12 4.48722 12H0.758523ZM2.60369 10.4915H4.10795C4.62216 10.4915 4.99716 10.3935 5.23295 10.1974C5.46875 9.99858 5.58665 9.73437 5.58665 9.40483C5.58665 9.16335 5.52841 8.95028 5.41193 8.76562C5.29545 8.58097 5.12926 8.43608 4.91335 8.33097C4.70028 8.22585 4.44602 8.1733 4.15057 8.1733H2.60369V10.4915ZM2.60369 6.92472H3.97159C4.22443 6.92472 4.44886 6.88068 4.64489 6.79261C4.84375 6.7017 5 6.57386 5.11364 6.40909C5.23011 6.24432 5.28835 6.04688 5.28835 5.81676C5.28835 5.50142 5.17614 5.24716 4.9517 5.05398C4.73011 4.8608 4.41477 4.7642 4.00568 4.7642H2.60369V6.92472ZM16.712 7.63636C16.712 8.58807 16.5316 9.39773 16.1708 10.0653C15.8129 10.733 15.3242 11.2429 14.7049 11.5952C14.0884 11.9446 13.3952 12.1193 12.6254 12.1193C11.8498 12.1193 11.1538 11.9432 10.5373 11.5909C9.92081 11.2386 9.43359 10.7287 9.07564 10.0611C8.71768 9.39347 8.53871 8.58523 8.53871 7.63636C8.53871 6.68466 8.71768 5.875 9.07564 5.20739C9.43359 4.53977 9.92081 4.03125 10.5373 3.68182C11.1538 3.32955 11.8498 3.15341 12.6254 3.15341C13.3952 3.15341 14.0884 3.32955 14.7049 3.68182C15.3242 4.03125 15.8129 4.53977 16.1708 5.20739C16.5316 5.875 16.712 6.68466 16.712 7.63636ZM14.8413 7.63636C14.8413 7.01989 14.7489 6.5 14.5643 6.0767C14.3825 5.65341 14.1254 5.33239 13.793 5.11364C13.4606 4.89489 13.0714 4.78551 12.6254 4.78551C12.1793 4.78551 11.7901 4.89489 11.4577 5.11364C11.1254 5.33239 10.8668 5.65341 10.6822 6.0767C10.5004 6.5 10.4094 7.01989 10.4094 7.63636C10.4094 8.25284 10.5004 8.77273 10.6822 9.19602C10.8668 9.61932 11.1254 9.94034 11.4577 10.1591C11.7901 10.3778 12.1793 10.4872 12.6254 10.4872C13.0714 10.4872 13.4606 10.3778 13.793 10.1591C14.1254 9.94034 14.3825 9.61932 14.5643 9.19602C14.7489 8.77273 14.8413 8.25284 14.8413 7.63636ZM18.0788 12V3.27273H23.9595V4.79403H19.924V6.87358H23.657V8.39489H19.924V10.4787H23.9766V12H18.0788ZM27.2717 3.27273V12H25.4265V3.27273H27.2717ZM36.0895 3.27273V12H34.4957L30.6989 6.5071H30.6349V12H28.7898V3.27273H30.4091L34.1761 8.76136H34.2528V3.27273H36.0895ZM43.4009 6.09375C43.3413 5.88636 43.2575 5.70312 43.1495 5.54403C43.0415 5.3821 42.9094 5.24574 42.7532 5.13494C42.5998 5.02131 42.4237 4.93466 42.2248 4.875C42.0288 4.81534 41.8114 4.78551 41.5728 4.78551C41.1268 4.78551 40.7347 4.89631 40.3967 5.1179C40.0614 5.33949 39.8001 5.66193 39.6126 6.08523C39.4251 6.50568 39.3313 7.01989 39.3313 7.62784C39.3313 8.2358 39.4237 8.75284 39.6083 9.17898C39.793 9.60511 40.0543 9.9304 40.3924 10.1548C40.7305 10.3764 41.1296 10.4872 41.5898 10.4872C42.0075 10.4872 42.364 10.4134 42.6594 10.2656C42.9577 10.1151 43.185 9.90341 43.3413 9.63068C43.5004 9.35795 43.5799 9.03551 43.5799 8.66335L43.9549 8.71875H41.7049V7.32955H45.3569V8.42898C45.3569 9.19602 45.195 9.85511 44.8711 10.4062C44.5472 10.9545 44.1012 11.3778 43.533 11.6761C42.9648 11.9716 42.3143 12.1193 41.5813 12.1193C40.7631 12.1193 40.0444 11.9389 39.4251 11.5781C38.8058 11.2145 38.3228 10.6989 37.9762 10.0312C37.6325 9.3608 37.4606 8.56534 37.4606 7.64489C37.4606 6.9375 37.5629 6.30682 37.7674 5.75284C37.9748 5.19602 38.2646 4.72443 38.6367 4.33807C39.0089 3.9517 39.4421 3.65767 39.9364 3.45597C40.4308 3.25426 40.9663 3.15341 41.543 3.15341C42.0373 3.15341 42.4975 3.22585 42.9237 3.37074C43.3498 3.51278 43.7276 3.71449 44.0572 3.97585C44.3896 4.23722 44.6609 4.5483 44.8711 4.90909C45.0813 5.26705 45.2163 5.66193 45.2759 6.09375H43.4009Z" fill="#333333"/>
<path d="M0.758523 12H0.258523V12.5H0.758523V12ZM0.758523 3.27273V2.77273H0.258523V3.27273H0.758523ZM5.85938 3.55824L5.65659 4.01527L5.85938 3.55824ZM6.8267 4.35085L6.40531 4.61998L6.40635 4.62159L6.8267 4.35085ZM6.94602 6.40909L7.3872 6.64439L7.38827 6.64236L6.94602 6.40909ZM6.38352 7.03977L6.66658 7.45194L6.66762 7.45122L6.38352 7.03977ZM5.57386 7.38494L5.46443 6.89706L5.07386 6.98467V7.38494H5.57386ZM5.57386 7.47017H5.07386V7.94926L5.55252 7.96971L5.57386 7.47017ZM6.5071 7.75142L6.25047 8.18054L6.25232 8.18163L6.5071 7.75142ZM7.21875 8.48011L6.78657 8.73156L6.78758 8.73328L7.21875 8.48011ZM7.14631 10.8281L6.7238 10.5608L6.72325 10.5616L7.14631 10.8281ZM6.13636 11.6847L5.92319 11.2324L5.92319 11.2324L6.13636 11.6847ZM2.60369 10.4915H2.10369V10.9915H2.60369V10.4915ZM5.23295 10.1974L5.5526 10.5819L5.55531 10.5797L5.23295 10.1974ZM5.41193 8.76562L4.98903 9.03238L5.41193 8.76562ZM4.91335 8.33097L4.69214 8.77938L4.69449 8.78052L4.91335 8.33097ZM2.60369 8.1733V7.6733H2.10369V8.1733H2.60369ZM2.60369 6.92472H2.10369V7.42472H2.60369V6.92472ZM4.64489 6.79261L4.8498 7.24871L4.85277 7.24735L4.64489 6.79261ZM5.11364 6.40909L4.70532 6.12045L4.70203 6.12522L5.11364 6.40909ZM4.9517 5.05398L4.62313 5.43087L4.62552 5.43293L4.9517 5.05398ZM2.60369 4.7642V4.2642H2.10369V4.7642H2.60369ZM0.758523 12H1.25852V3.27273H0.758523H0.258523V12H0.758523ZM0.758523 3.27273V3.77273H4.25284V3.27273V2.77273H0.758523V3.27273ZM4.25284 3.27273V3.77273C4.84921 3.77273 5.31037 3.86165 5.65659 4.01527L5.85938 3.55824L6.06216 3.10121C5.55042 2.87414 4.94057 2.77273 4.25284 2.77273V3.27273ZM5.85938 3.55824L5.65659 4.01527C6.01142 4.17271 6.25073 4.37794 6.40531 4.61998L6.8267 4.35085L7.2481 4.08173C6.97086 3.64763 6.56529 3.32445 6.06216 3.10121L5.85938 3.55824ZM6.8267 4.35085L6.40635 4.62159C6.56525 4.86831 6.65057 5.15877 6.65057 5.50994H7.15057H7.65057C7.65057 4.98612 7.51998 4.50385 7.24706 4.08011L6.8267 4.35085ZM7.15057 5.50994H6.65057C6.65057 5.78311 6.59635 6.00031 6.50377 6.17582L6.94602 6.40909L7.38827 6.64236C7.56842 6.30083 7.65057 5.91859 7.65057 5.50994H7.15057ZM6.94602 6.40909L6.50485 6.1738C6.40607 6.35901 6.27245 6.50886 6.09943 6.62832L6.38352 7.03977L6.66762 7.45122C6.97187 7.24114 7.21325 6.97054 7.3872 6.64438L6.94602 6.40909ZM6.38352 7.03977L6.10047 6.62761C5.9217 6.75037 5.71181 6.84158 5.46443 6.89706L5.57386 7.38494L5.68329 7.87282C6.04387 7.79194 6.37375 7.65303 6.66658 7.45194L6.38352 7.03977ZM5.57386 7.38494H5.07386V7.47017H5.57386H6.07386V7.38494H5.57386ZM5.57386 7.47017L5.55252 7.96971C5.80056 7.98031 6.03094 8.04925 6.25047 8.18054L6.5071 7.75142L6.76373 7.3223C6.40371 7.107 6.01194 6.98844 5.59521 6.97063L5.57386 7.47017ZM6.5071 7.75142L6.25232 8.18163C6.46687 8.3087 6.64487 8.488 6.78658 8.73156L7.21875 8.48011L7.65092 8.22867C7.429 7.84723 7.13256 7.54073 6.76189 7.32121L6.5071 7.75142ZM7.21875 8.48011L6.78758 8.73328C6.91627 8.95246 6.99148 9.23071 6.99148 9.58807H7.49148H7.99148C7.99148 9.08747 7.88486 8.62709 7.64992 8.22695L7.21875 8.48011ZM7.49148 9.58807H6.99148C6.99148 9.96398 6.89942 10.2832 6.7238 10.5608L7.14631 10.8281L7.56882 11.0955C7.85342 10.6458 7.99148 10.1383 7.99148 9.58807H7.49148ZM7.14631 10.8281L6.72325 10.5616C6.55434 10.8298 6.29675 11.0563 5.92319 11.2324L6.13636 11.6847L6.34954 12.1369C6.86803 11.8926 7.28373 11.5481 7.56937 11.0946L7.14631 10.8281ZM6.13636 11.6847L5.92319 11.2324C5.56182 11.4027 5.08979 11.5 4.48722 11.5V12V12.5C5.19146 12.5 5.81886 12.3871 6.34954 12.1369L6.13636 11.6847ZM4.48722 12V11.5H0.758523V12V12.5H4.48722V12ZM2.60369 10.4915V10.9915H4.10795V10.4915V9.99148H2.60369V10.4915ZM4.10795 10.4915V10.9915C4.66627 10.9915 5.18366 10.8886 5.55259 10.5819L5.23295 10.1974L4.91332 9.81295C4.81066 9.8983 4.57804 9.99148 4.10795 9.99148V10.4915ZM5.23295 10.1974L5.55531 10.5797C5.91224 10.2786 6.08665 9.87025 6.08665 9.40483H5.58665H5.08665C5.08665 9.59849 5.02526 9.71852 4.9106 9.81523L5.23295 10.1974ZM5.58665 9.40483H6.08665C6.08665 9.07929 6.00693 8.77171 5.83483 8.49887L5.41193 8.76562L4.98903 9.03238C5.04989 9.12885 5.08665 9.24741 5.08665 9.40483H5.58665ZM5.41193 8.76562L5.83483 8.49887C5.66379 8.22772 5.42318 8.02307 5.13221 7.88141L4.91335 8.33097L4.69449 8.78052C4.83534 8.84909 4.92712 8.93421 4.98903 9.03238L5.41193 8.76562ZM4.91335 8.33097L5.13456 7.88256C4.838 7.73626 4.50447 7.6733 4.15057 7.6733V8.1733V8.6733C4.38757 8.6733 4.56257 8.71545 4.69214 8.77937L4.91335 8.33097ZM4.15057 8.1733V7.6733H2.60369V8.1733V8.6733H4.15057V8.1733ZM2.60369 8.1733H2.10369V10.4915H2.60369H3.10369V8.1733H2.60369ZM2.60369 6.92472V7.42472H3.97159V6.92472V6.42472H2.60369V6.92472ZM3.97159 6.92472V7.42472C4.28274 7.42472 4.57897 7.37037 4.84979 7.2487L4.64489 6.79261L4.43998 6.33653C4.31876 6.39099 4.16613 6.42472 3.97159 6.42472V6.92472ZM4.64489 6.79261L4.85277 7.24735C5.12588 7.1225 5.35569 6.93881 5.52524 6.69296L5.11364 6.40909L4.70203 6.12522C4.64431 6.20891 4.56162 6.28091 4.43701 6.33788L4.64489 6.79261ZM5.11364 6.40909L5.52193 6.69771C5.70621 6.43701 5.78835 6.13519 5.78835 5.81676H5.28835H4.78835C4.78835 5.95856 4.75402 6.05163 4.70535 6.12047L5.11364 6.40909ZM5.28835 5.81676H5.78835C5.78835 5.36656 5.62056 4.96998 5.27789 4.67503L4.9517 5.05398L4.62552 5.43293C4.73172 5.52434 4.78835 5.63628 4.78835 5.81676H5.28835ZM4.9517 5.05398L5.28027 4.67709C4.93745 4.37822 4.48841 4.2642 4.00568 4.2642V4.7642V5.2642C4.34114 5.2642 4.52277 5.34337 4.62314 5.43086L4.9517 5.05398ZM4.00568 4.7642V4.2642H2.60369V4.7642V5.2642H4.00568V4.7642ZM2.60369 4.7642H2.10369V6.92472H2.60369H3.10369V4.7642H2.60369ZM16.1708 10.0653L15.7309 9.82762L15.7302 9.82907L16.1708 10.0653ZM14.7049 11.5952L14.9515 12.0302L14.9521 12.0298L14.7049 11.5952ZM10.5373 11.5909L10.7854 11.1568L10.5373 11.5909ZM9.07564 10.0611L8.63498 10.2973L9.07564 10.0611ZM9.07564 5.20739L9.5163 5.44365V5.44365L9.07564 5.20739ZM10.5373 3.68182L10.7838 4.1168L10.7854 4.11594L10.5373 3.68182ZM14.7049 3.68182L14.4568 4.11595L14.4592 4.11729L14.7049 3.68182ZM16.1708 5.20739L15.7302 5.44365L15.7309 5.44511L16.1708 5.20739ZM14.5643 6.0767L14.1049 6.27404L14.106 6.27663L14.5643 6.0767ZM13.793 5.11364L13.5181 5.5313L13.793 5.11364ZM11.4577 5.11364L11.7326 5.5313L11.4577 5.11364ZM10.6822 6.0767L10.2239 5.87678L10.2228 5.87937L10.6822 6.0767ZM10.6822 9.19602L10.2228 9.39336L10.2239 9.39595L10.6822 9.19602ZM11.4577 10.1591L11.7326 9.74143L11.4577 10.1591ZM13.793 10.1591L13.5181 9.74143L13.793 10.1591ZM14.5643 9.19602L14.106 8.99609L14.1049 8.99869L14.5643 9.19602ZM16.712 7.63636H16.212C16.212 8.52577 16.0435 9.2493 15.7309 9.82762L16.1708 10.0653L16.6107 10.3031C17.0197 9.54615 17.212 8.65037 17.212 7.63636H16.712ZM16.1708 10.0653L15.7302 9.82907C15.4138 10.4192 14.9899 10.8578 14.4577 11.1606L14.7049 11.5952L14.9521 12.0298C15.6586 11.628 16.2119 11.0468 16.6115 10.3016L16.1708 10.0653ZM14.7049 11.5952L14.4583 11.1602C13.9235 11.4634 13.3165 11.6193 12.6254 11.6193V12.1193V12.6193C13.474 12.6193 14.2534 12.4258 14.9515 12.0302L14.7049 11.5952ZM12.6254 12.1193V11.6193C11.9285 11.6193 11.3194 11.462 10.7854 11.1568L10.5373 11.5909L10.2892 12.025C10.9881 12.4244 11.771 12.6193 12.6254 12.6193V12.1193ZM10.5373 11.5909L10.7854 11.1568C10.2559 10.8542 9.83299 10.4155 9.5163 9.82481L9.07564 10.0611L8.63498 10.2973C9.03419 11.0419 9.58574 11.623 10.2892 12.025L10.5373 11.5909ZM9.07564 10.0611L9.5163 9.82481C9.20593 9.24596 9.03871 8.52322 9.03871 7.63636H8.53871H8.03871C8.03871 8.64723 8.22944 9.54097 8.63498 10.2973L9.07564 10.0611ZM8.53871 7.63636H9.03871C9.03871 6.74638 9.20604 6.02231 9.5163 5.44365L9.07564 5.20739L8.63498 4.97112C8.22933 5.72769 8.03871 6.62294 8.03871 7.63636H8.53871ZM9.07564 5.20739L9.5163 5.44365C9.83283 4.85328 10.2553 4.41641 10.7838 4.1168L10.5373 3.68182L10.2907 3.24684C9.58636 3.64609 9.03435 4.22626 8.63498 4.97112L9.07564 5.20739ZM10.5373 3.68182L10.7854 4.11594C11.3194 3.81076 11.9285 3.65341 12.6254 3.65341V3.15341V2.65341C11.771 2.65341 10.9881 2.84833 10.2892 3.2477L10.5373 3.68182ZM12.6254 3.15341V3.65341C13.3158 3.65341 13.9222 3.81044 14.4568 4.11594L14.7049 3.68182L14.953 3.2477C14.2546 2.84865 13.4747 2.65341 12.6254 2.65341V3.15341ZM14.7049 3.68182L14.4592 4.11729C14.9905 4.41706 15.4139 4.85388 15.7302 5.44365L16.1708 5.20739L16.6115 4.97112C16.2118 4.22567 15.6579 3.64544 14.9506 3.24635L14.7049 3.68182ZM16.1708 5.20739L15.7309 5.44511C16.0435 6.02343 16.212 6.74696 16.212 7.63636H16.712H17.212C17.212 6.62236 17.0197 5.72657 16.6107 4.96967L16.1708 5.20739ZM14.8413 7.63636H15.3413C15.3413 6.97291 15.2423 6.38047 15.0226 5.87678L14.5643 6.0767L14.106 6.27663C14.2556 6.61953 14.3413 7.06686 14.3413 7.63636H14.8413ZM14.5643 6.0767L15.0237 5.87937C14.8095 5.3807 14.4943 4.97661 14.0678 4.69597L13.793 5.11364L13.5181 5.5313C13.7564 5.68816 13.9554 5.92612 14.1049 6.27404L14.5643 6.0767ZM13.793 5.11364L14.0678 4.69597C13.6442 4.41716 13.1569 4.28551 12.6254 4.28551V4.78551V5.28551C12.9859 5.28551 13.277 5.37261 13.5181 5.5313L13.793 5.11364ZM12.6254 4.78551V4.28551C12.0939 4.28551 11.6065 4.41716 11.1829 4.69597L11.4577 5.11364L11.7326 5.5313C11.9737 5.37261 12.2648 5.28551 12.6254 5.28551V4.78551ZM11.4577 5.11364L11.1829 4.69597C10.7572 4.97612 10.4409 5.37926 10.2239 5.87678L10.6822 6.0767L11.1405 6.27663C11.2927 5.92756 11.4935 5.68865 11.7326 5.5313L11.4577 5.11364ZM10.6822 6.0767L10.2228 5.87937C10.0068 6.38226 9.90945 6.97374 9.90945 7.63636H10.4094H10.9094C10.9094 7.06604 10.994 6.61774 11.1416 6.27404L10.6822 6.0767ZM10.4094 7.63636H9.90945C9.90945 8.29899 10.0068 8.89047 10.2228 9.39335L10.6822 9.19602L11.1416 8.99869C10.994 8.65499 10.9094 8.20669 10.9094 7.63636H10.4094ZM10.6822 9.19602L10.2239 9.39595C10.4409 9.89347 10.7572 10.2966 11.1829 10.5768L11.4577 10.1591L11.7326 9.74143C11.4935 9.58407 11.2927 9.34516 11.1405 8.9961L10.6822 9.19602ZM11.4577 10.1591L11.1829 10.5768C11.6065 10.8556 12.0939 10.9872 12.6254 10.9872V10.4872V9.98722C12.2648 9.98722 11.9737 9.90012 11.7326 9.74143L11.4577 10.1591ZM12.6254 10.4872V10.9872C13.1569 10.9872 13.6442 10.8556 14.0678 10.5768L13.793 10.1591L13.5181 9.74143C13.277 9.90012 12.9859 9.98722 12.6254 9.98722V10.4872ZM13.793 10.1591L14.0678 10.5768C14.4943 10.2961 14.8095 9.89203 15.0237 9.39335L14.5643 9.19602L14.1049 8.99869C13.9554 9.34661 13.7564 9.58456 13.5181 9.74143L13.793 10.1591ZM14.5643 9.19602L15.0226 9.39595C15.2423 8.89226 15.3413 8.29981 15.3413 7.63636H14.8413H14.3413C14.3413 8.20587 14.2556 8.6532 14.106 8.9961L14.5643 9.19602ZM18.0788 12H17.5788V12.5H18.0788V12ZM18.0788 3.27273V2.77273H17.5788V3.27273H18.0788ZM23.9595 3.27273H24.4595V2.77273H23.9595V3.27273ZM23.9595 4.79403V5.29403H24.4595V4.79403H23.9595ZM19.924 4.79403V4.29403H19.424V4.79403H19.924ZM19.924 6.87358H19.424V7.37358H19.924V6.87358ZM23.657 6.87358H24.157V6.37358H23.657V6.87358ZM23.657 8.39489V8.89489H24.157V8.39489H23.657ZM19.924 8.39489V7.89489H19.424V8.39489H19.924ZM19.924 10.4787H19.424V10.9787H19.924V10.4787ZM23.9766 10.4787H24.4766V9.97869H23.9766V10.4787ZM23.9766 12V12.5H24.4766V12H23.9766ZM18.0788 12H18.5788V3.27273H18.0788H17.5788V12H18.0788ZM18.0788 3.27273V3.77273H23.9595V3.27273V2.77273H18.0788V3.27273ZM23.9595 3.27273H23.4595V4.79403H23.9595H24.4595V3.27273H23.9595ZM23.9595 4.79403V4.29403H19.924V4.79403V5.29403H23.9595V4.79403ZM19.924 4.79403H19.424V6.87358H19.924H20.424V4.79403H19.924ZM19.924 6.87358V7.37358H23.657V6.87358V6.37358H19.924V6.87358ZM23.657 6.87358H23.157V8.39489H23.657H24.157V6.87358H23.657ZM23.657 8.39489V7.89489H19.924V8.39489V8.89489H23.657V8.39489ZM19.924 8.39489H19.424V10.4787H19.924H20.424V8.39489H19.924ZM19.924 10.4787V10.9787H23.9766V10.4787V9.97869H19.924V10.4787ZM23.9766 10.4787H23.4766V12H23.9766H24.4766V10.4787H23.9766ZM23.9766 12V11.5H18.0788V12V12.5H23.9766V12ZM27.2717 3.27273H27.7717V2.77273H27.2717V3.27273ZM27.2717 12V12.5H27.7717V12H27.2717ZM25.4265 12H24.9265V12.5H25.4265V12ZM25.4265 3.27273V2.77273H24.9265V3.27273H25.4265ZM27.2717 3.27273H26.7717V12H27.2717H27.7717V3.27273H27.2717ZM27.2717 12V11.5H25.4265V12V12.5H27.2717V12ZM25.4265 12H25.9265V3.27273H25.4265H24.9265V12H25.4265ZM25.4265 3.27273V3.77273H27.2717V3.27273V2.77273H25.4265V3.27273ZM36.0895 3.27273H36.5895V2.77273H36.0895V3.27273ZM36.0895 12V12.5H36.5895V12H36.0895ZM34.4957 12L34.0844 12.2843L34.2335 12.5H34.4957V12ZM30.6989 6.5071L31.1102 6.2228L30.9611 6.0071H30.6989V6.5071ZM30.6349 6.5071V6.0071H30.1349V6.5071H30.6349ZM30.6349 12V12.5H31.1349V12H30.6349ZM28.7898 12H28.2898V12.5H28.7898V12ZM28.7898 3.27273V2.77273H28.2898V3.27273H28.7898ZM30.4091 3.27273L30.8213 2.98979L30.6724 2.77273H30.4091V3.27273ZM34.1761 8.76136L33.7639 9.0443L33.9129 9.26136H34.1761V8.76136ZM34.2528 8.76136V9.26136H34.7528V8.76136H34.2528ZM34.2528 3.27273V2.77273H33.7528V3.27273H34.2528ZM36.0895 3.27273H35.5895V12H36.0895H36.5895V3.27273H36.0895ZM36.0895 12V11.5H34.4957V12V12.5H36.0895V12ZM34.4957 12L34.907 11.7157L31.1102 6.2228L30.6989 6.5071L30.2876 6.79141L34.0844 12.2843L34.4957 12ZM30.6989 6.5071V6.0071H30.6349V6.5071V7.0071H30.6989V6.5071ZM30.6349 6.5071H30.1349V12H30.6349H31.1349V6.5071H30.6349ZM30.6349 12V11.5H28.7898V12V12.5H30.6349V12ZM28.7898 12H29.2898V3.27273H28.7898H28.2898V12H28.7898ZM28.7898 3.27273V3.77273H30.4091V3.27273V2.77273H28.7898V3.27273ZM30.4091 3.27273L29.9968 3.55567L33.7639 9.0443L34.1761 8.76136L34.5884 8.47843L30.8213 2.98979L30.4091 3.27273ZM34.1761 8.76136V9.26136H34.2528V8.76136V8.26136H34.1761V8.76136ZM34.2528 8.76136H34.7528V3.27273H34.2528H33.7528V8.76136H34.2528ZM34.2528 3.27273V3.77273H36.0895V3.27273V2.77273H34.2528V3.27273ZM43.4009 6.09375L42.9204 6.23198L43.0245 6.59375H43.4009V6.09375ZM43.1495 5.54403L42.7335 5.82139L42.7358 5.82478L43.1495 5.54403ZM42.7532 5.13494L42.4555 5.53681L42.464 5.54281L42.7532 5.13494ZM42.2248 4.875L42.0792 5.35334L42.0811 5.35391L42.2248 4.875ZM40.3967 5.1179L40.1226 4.69972L40.1209 4.70079L40.3967 5.1179ZM39.6126 6.08523L40.0692 6.28887L40.0697 6.28773L39.6126 6.08523ZM40.3924 10.1548L40.1159 10.5714L40.1183 10.573L40.3924 10.1548ZM42.6594 10.2656L42.8831 10.7128L42.8848 10.712L42.6594 10.2656ZM43.3413 9.63068L42.9094 9.37874L42.9074 9.38213L43.3413 9.63068ZM43.5799 8.66335L43.653 8.16872L43.0799 8.08406V8.66335H43.5799ZM43.9549 8.71875V9.21875L44.028 8.22412L43.9549 8.71875ZM41.7049 8.71875H41.2049V9.21875H41.7049V8.71875ZM41.7049 7.32955V6.82955H41.2049V7.32955H41.7049ZM45.3569 7.32955H45.8569V6.82955H45.3569V7.32955ZM44.8711 10.4062L45.3016 10.6605L45.3022 10.6596L44.8711 10.4062ZM43.533 11.6761L43.7637 12.1197L43.7654 12.1188L43.533 11.6761ZM39.4251 11.5781L39.1719 12.0093L39.1734 12.0102L39.4251 11.5781ZM37.9762 10.0312L37.5313 10.2594L37.5324 10.2616L37.9762 10.0312ZM37.7674 5.75284L37.2988 5.57833L37.2984 5.57965L37.7674 5.75284ZM38.6367 4.33807L38.9968 4.68494L38.6367 4.33807ZM39.9364 3.45597L39.7475 2.99302L39.9364 3.45597ZM42.9236 3.37074L42.7627 3.84413L42.7655 3.84508L42.9236 3.37074ZM44.0572 3.97585L43.7465 4.3676L43.7481 4.36889L44.0572 3.97585ZM44.8711 4.90909L44.4391 5.16082L44.44 5.1623L44.8711 4.90909ZM45.2759 6.09375V6.59375H45.8498L45.7712 6.02532L45.2759 6.09375ZM43.4009 6.09375L43.8814 5.95552C43.8089 5.70354 43.7042 5.47105 43.5632 5.26328L43.1495 5.54403L42.7358 5.82478C42.8107 5.9352 42.8736 6.06919 42.9204 6.23198L43.4009 6.09375ZM43.1495 5.54403L43.5655 5.26668C43.4242 5.05469 43.2494 4.87383 43.0424 4.72708L42.7532 5.13494L42.464 5.54281C42.5695 5.61765 42.6589 5.70952 42.7335 5.82138L43.1495 5.54403ZM42.7532 5.13494L43.0508 4.73316C42.847 4.58222 42.6179 4.47091 42.3685 4.39609L42.2248 4.875L42.0811 5.35391C42.2294 5.39841 42.3525 5.46039 42.4556 5.53672L42.7532 5.13494ZM42.2248 4.875L42.3704 4.39666C42.1201 4.3205 41.8528 4.28551 41.5728 4.28551V4.78551V5.28551C41.77 5.28551 41.9374 5.31018 42.0792 5.35334L42.2248 4.875ZM41.5728 4.78551V4.28551C41.0399 4.28551 40.5504 4.41929 40.1226 4.69972L40.3967 5.1179L40.6708 5.53607C40.919 5.37333 41.2137 5.28551 41.5728 5.28551V4.78551ZM40.3967 5.1179L40.1209 4.70079C39.6944 4.98274 39.3756 5.38563 39.1554 5.88273L39.6126 6.08523L40.0697 6.28773C40.2245 5.93824 40.4285 5.69623 40.6724 5.53501L40.3967 5.1179ZM39.6126 6.08523L39.1559 5.88159C38.9322 6.38316 38.8313 6.97114 38.8313 7.62784H39.3313H39.8313C39.8313 7.06864 39.9179 6.6282 40.0692 6.28887L39.6126 6.08523ZM39.3313 7.62784H38.8313C38.8313 8.28403 38.9307 8.87272 39.1495 9.37778L39.6083 9.17898L40.0671 8.98017C39.9166 8.63296 39.8313 8.18756 39.8313 7.62784H39.3313ZM39.6083 9.17898L39.1495 9.37778C39.3669 9.87943 39.6861 10.2861 40.1159 10.5714L40.3924 10.1548L40.6689 9.73827C40.4226 9.5747 40.219 9.3308 40.0671 8.98017L39.6083 9.17898ZM40.3924 10.1548L40.1183 10.573C40.5487 10.8551 41.0461 10.9872 41.5898 10.9872V10.4872V9.98722C41.2131 9.98722 40.9122 9.89772 40.6665 9.73665L40.3924 10.1548ZM41.5898 10.4872V10.9872C42.0651 10.9872 42.5023 10.9032 42.8831 10.7128L42.6594 10.2656L42.4358 9.81841C42.2257 9.92348 41.9498 9.98722 41.5898 9.98722V10.4872ZM42.6594 10.2656L42.8848 10.712C43.2646 10.5202 43.5671 10.2423 43.7751 9.87924L43.3413 9.63068L42.9074 9.38213C42.803 9.56447 42.6509 9.70988 42.4341 9.81926L42.6594 10.2656ZM43.3413 9.63068L43.7732 9.88262C43.9842 9.52074 44.0799 9.1081 44.0799 8.66335H43.5799H43.0799C43.0799 8.96292 43.0165 9.19517 42.9094 9.37875L43.3413 9.63068ZM43.5799 8.66335L43.5068 9.15798L43.8818 9.21338L43.9549 8.71875L44.028 8.22412L43.653 8.16872L43.5799 8.66335ZM43.9549 8.71875V8.21875H41.7049V8.71875V9.21875H43.9549V8.71875ZM41.7049 8.71875H42.2049V7.32955H41.7049H41.2049V8.71875H41.7049ZM41.7049 7.32955V7.82955H45.3569V7.32955V6.82955H41.7049V7.32955ZM45.3569 7.32955H44.8569V8.42898H45.3569H45.8569V7.32955H45.3569ZM45.3569 8.42898H44.8569C44.8569 9.12481 44.7105 9.69264 44.44 10.1529L44.8711 10.4062L45.3022 10.6596C45.6794 10.0176 45.8569 9.26724 45.8569 8.42898H45.3569ZM44.8711 10.4062L44.4406 10.152C44.1644 10.6196 43.7872 10.978 43.3006 11.2334L43.533 11.6761L43.7654 12.1188C44.4152 11.7777 44.9301 11.2895 45.3016 10.6605L44.8711 10.4062ZM43.533 11.6761L43.3023 11.2325C42.8151 11.4859 42.2457 11.6193 41.5813 11.6193V12.1193V12.6193C42.3829 12.6193 43.1146 12.4573 43.7637 12.1197L43.533 11.6761ZM41.5813 12.1193V11.6193C40.8388 11.6193 40.2094 11.4564 39.6768 11.1461L39.4251 11.5781L39.1734 12.0102C39.8794 12.4215 40.6874 12.6193 41.5813 12.6193V12.1193ZM39.4251 11.5781L39.6782 11.147C39.144 10.8333 38.7253 10.3891 38.42 9.80087L37.9762 10.0312L37.5324 10.2616C37.9202 11.0086 38.4675 11.5957 39.1719 12.0093L39.4251 11.5781ZM37.9762 10.0312L38.4211 9.80313C38.1207 9.21723 37.9606 8.50335 37.9606 7.64489H37.4606H36.9606C36.9606 8.62733 37.1442 9.50436 37.5313 10.2594L37.9762 10.0312ZM37.4606 7.64489H37.9606C37.9606 6.98522 38.056 6.4148 38.2365 5.92603L37.7674 5.75284L37.2984 5.57965C37.0697 6.19884 36.9606 6.88978 36.9606 7.64489H37.4606ZM37.7674 5.75284L38.236 5.92735C38.422 5.42787 38.6771 5.01682 38.9968 4.68494L38.6367 4.33807L38.2766 3.9912C37.852 4.43204 37.5276 4.96418 37.2988 5.57833L37.7674 5.75284ZM38.6367 4.33807L38.9968 4.68494C39.3209 4.34853 39.6959 4.09415 40.1253 3.91891L39.9364 3.45597L39.7475 2.99302C39.1884 3.22119 38.6969 3.55488 38.2766 3.9912L38.6367 4.33807ZM39.9364 3.45597L40.1253 3.91891C40.555 3.74358 41.0258 3.65341 41.543 3.65341V3.15341V2.65341C40.9067 2.65341 40.3065 2.76494 39.7475 2.99302L39.9364 3.45597ZM41.543 3.15341V3.65341C41.9879 3.65341 42.3932 3.71851 42.7627 3.84412L42.9236 3.37074L43.0846 2.89735C42.6018 2.7332 42.0867 2.65341 41.543 2.65341V3.15341ZM42.9236 3.37074L42.7655 3.84508C43.1402 3.96996 43.4656 4.14485 43.7465 4.3676L44.0572 3.97585L44.3679 3.5841C43.9896 3.28413 43.5594 3.05561 43.0818 2.8964L42.9236 3.37074ZM44.0572 3.97585L43.7481 4.36889C44.0316 4.59182 44.261 4.85515 44.4391 5.16081L44.8711 4.90909L45.3031 4.65737C45.0608 4.24144 44.7475 3.88261 44.3662 3.58281L44.0572 3.97585ZM44.8711 4.90909L44.44 5.1623C44.6152 5.46066 44.7295 5.79225 44.7806 6.16218L45.2759 6.09375L45.7712 6.02532C45.703 5.53161 45.5475 5.07343 45.3022 4.65588L44.8711 4.90909ZM45.2759 6.09375V5.59375H43.4009V6.09375V6.59375H45.2759V6.09375Z" fill="#333333" mask="url(#path-1-outside-1_28_130)"/>
</svg>
