<svg width="62" height="21" viewBox="0 0 62 21" fill="none" xmlns="http://www.w3.org/2000/svg">
<mask id="path-1-outside-1_28_128" maskUnits="userSpaceOnUse" x="0" y="3" width="61" height="14" fill="black">
<rect fill="white" y="3" width="61" height="14"/>
<path d="M1.01136 16V4.36364H5.67045C6.52652 4.36364 7.24053 4.49053 7.8125 4.74432C8.38447 4.99811 8.81439 5.35038 9.10227 5.80114C9.39015 6.24811 9.53409 6.76326 9.53409 7.34659C9.53409 7.80114 9.44318 8.20076 9.26136 8.54545C9.07955 8.88636 8.82955 9.16667 8.51136 9.38636C8.19697 9.60227 7.83712 9.75568 7.43182 9.84659V9.96023C7.875 9.97917 8.28977 10.1042 8.67614 10.3352C9.06629 10.5663 9.38258 10.8902 9.625 11.3068C9.86742 11.7197 9.98864 12.2121 9.98864 12.7841C9.98864 13.4015 9.83523 13.9527 9.52841 14.4375C9.22538 14.9186 8.77652 15.2992 8.18182 15.5795C7.58712 15.8598 6.85417 16 5.98295 16H1.01136ZM3.47159 13.9886H5.47727C6.16288 13.9886 6.66288 13.858 6.97727 13.5966C7.29167 13.3314 7.44886 12.9792 7.44886 12.5398C7.44886 12.2178 7.37121 11.9337 7.21591 11.6875C7.06061 11.4413 6.83902 11.2481 6.55114 11.108C6.26705 10.9678 5.92803 10.8977 5.53409 10.8977H3.47159V13.9886ZM3.47159 9.23295H5.29545C5.63258 9.23295 5.93182 9.17424 6.19318 9.05682C6.45833 8.93561 6.66667 8.76515 6.81818 8.54545C6.97348 8.32576 7.05114 8.0625 7.05114 7.75568C7.05114 7.33523 6.90152 6.99621 6.60227 6.73864C6.30682 6.48106 5.88636 6.35227 5.34091 6.35227H3.47159V9.23295ZM22.2827 10.1818C22.2827 11.4508 22.0421 12.5303 21.5611 13.4205C21.0838 14.3106 20.4323 14.9905 19.6065 15.4602C18.7846 15.9261 17.8603 16.1591 16.8338 16.1591C15.7997 16.1591 14.8717 15.9242 14.0497 15.4545C13.2277 14.9848 12.5781 14.3049 12.1009 13.4148C11.6236 12.5246 11.3849 11.447 11.3849 10.1818C11.3849 8.91288 11.6236 7.83333 12.1009 6.94318C12.5781 6.05303 13.2277 5.375 14.0497 4.90909C14.8717 4.43939 15.7997 4.20455 16.8338 4.20455C17.8603 4.20455 18.7846 4.43939 19.6065 4.90909C20.4323 5.375 21.0838 6.05303 21.5611 6.94318C22.0421 7.83333 22.2827 8.91288 22.2827 10.1818ZM19.7884 10.1818C19.7884 9.35985 19.6652 8.66667 19.419 8.10227C19.1766 7.53788 18.8338 7.10985 18.3906 6.81818C17.9474 6.52652 17.4285 6.38068 16.8338 6.38068C16.2391 6.38068 15.7202 6.52652 15.277 6.81818C14.8338 7.10985 14.4891 7.53788 14.2429 8.10227C14.0005 8.66667 13.8793 9.35985 13.8793 10.1818C13.8793 11.0038 14.0005 11.697 14.2429 12.2614C14.4891 12.8258 14.8338 13.2538 15.277 13.5455C15.7202 13.8371 16.2391 13.983 16.8338 13.983C17.4285 13.983 17.9474 13.8371 18.3906 13.5455C18.8338 13.2538 19.1766 12.8258 19.419 12.2614C19.6652 11.697 19.7884 11.0038 19.7884 10.1818ZM24.1051 16V4.36364H31.946V6.39205H26.5653V9.16477H31.5426V11.1932H26.5653V13.9716H31.9688V16H24.1051ZM36.3622 4.36364V16H33.902V4.36364H36.3622ZM48.1193 4.36364V16H45.9943L40.9318 8.67614H40.8466V16H38.3864V4.36364H40.5455L45.5682 11.6818H45.6705V4.36364H48.1193ZM57.8679 8.125C57.7884 7.84848 57.6766 7.60417 57.5327 7.39205C57.3887 7.17614 57.2126 6.99432 57.0043 6.84659C56.7997 6.69508 56.5649 6.57955 56.2997 6.5C56.0384 6.42045 55.7486 6.38068 55.4304 6.38068C54.8357 6.38068 54.313 6.52841 53.8622 6.82386C53.4152 7.11932 53.0668 7.54924 52.8168 8.11364C52.5668 8.67424 52.4418 9.35985 52.4418 10.1705C52.4418 10.9811 52.5649 11.6705 52.8111 12.2386C53.0573 12.8068 53.4058 13.2405 53.8565 13.5398C54.3073 13.8352 54.8395 13.983 55.4531 13.983C56.0099 13.983 56.4853 13.8845 56.8793 13.6875C57.277 13.4867 57.58 13.2045 57.7884 12.8409C58.0005 12.4773 58.1065 12.0473 58.1065 11.5511L58.6065 11.625H55.6065V9.77273H60.4759V11.2386C60.4759 12.2614 60.2599 13.1402 59.8281 13.875C59.3963 14.6061 58.8016 15.1705 58.044 15.5682C57.2865 15.9621 56.419 16.1591 55.4418 16.1591C54.3509 16.1591 53.3925 15.9186 52.5668 15.4375C51.741 14.9527 51.0971 14.2652 50.6349 13.375C50.1766 12.4811 49.9474 11.4205 49.9474 10.1932C49.9474 9.25 50.0838 8.40909 50.3565 7.67045C50.633 6.92803 51.0194 6.29924 51.5156 5.78409C52.0118 5.26894 52.5895 4.87689 53.2486 4.60795C53.9077 4.33901 54.6217 4.20455 55.3906 4.20455C56.0497 4.20455 56.6634 4.30114 57.2315 4.49432C57.7997 4.68371 58.3035 4.95265 58.7429 5.30114C59.1861 5.64962 59.5478 6.06439 59.8281 6.54545C60.1084 7.02273 60.2884 7.54924 60.3679 8.125H57.8679Z"/>
</mask>
<path d="M1.01136 16V4.36364H5.67045C6.52652 4.36364 7.24053 4.49053 7.8125 4.74432C8.38447 4.99811 8.81439 5.35038 9.10227 5.80114C9.39015 6.24811 9.53409 6.76326 9.53409 7.34659C9.53409 7.80114 9.44318 8.20076 9.26136 8.54545C9.07955 8.88636 8.82955 9.16667 8.51136 9.38636C8.19697 9.60227 7.83712 9.75568 7.43182 9.84659V9.96023C7.875 9.97917 8.28977 10.1042 8.67614 10.3352C9.06629 10.5663 9.38258 10.8902 9.625 11.3068C9.86742 11.7197 9.98864 12.2121 9.98864 12.7841C9.98864 13.4015 9.83523 13.9527 9.52841 14.4375C9.22538 14.9186 8.77652 15.2992 8.18182 15.5795C7.58712 15.8598 6.85417 16 5.98295 16H1.01136ZM3.47159 13.9886H5.47727C6.16288 13.9886 6.66288 13.858 6.97727 13.5966C7.29167 13.3314 7.44886 12.9792 7.44886 12.5398C7.44886 12.2178 7.37121 11.9337 7.21591 11.6875C7.06061 11.4413 6.83902 11.2481 6.55114 11.108C6.26705 10.9678 5.92803 10.8977 5.53409 10.8977H3.47159V13.9886ZM3.47159 9.23295H5.29545C5.63258 9.23295 5.93182 9.17424 6.19318 9.05682C6.45833 8.93561 6.66667 8.76515 6.81818 8.54545C6.97348 8.32576 7.05114 8.0625 7.05114 7.75568C7.05114 7.33523 6.90152 6.99621 6.60227 6.73864C6.30682 6.48106 5.88636 6.35227 5.34091 6.35227H3.47159V9.23295ZM22.2827 10.1818C22.2827 11.4508 22.0421 12.5303 21.5611 13.4205C21.0838 14.3106 20.4323 14.9905 19.6065 15.4602C18.7846 15.9261 17.8603 16.1591 16.8338 16.1591C15.7997 16.1591 14.8717 15.9242 14.0497 15.4545C13.2277 14.9848 12.5781 14.3049 12.1009 13.4148C11.6236 12.5246 11.3849 11.447 11.3849 10.1818C11.3849 8.91288 11.6236 7.83333 12.1009 6.94318C12.5781 6.05303 13.2277 5.375 14.0497 4.90909C14.8717 4.43939 15.7997 4.20455 16.8338 4.20455C17.8603 4.20455 18.7846 4.43939 19.6065 4.90909C20.4323 5.375 21.0838 6.05303 21.5611 6.94318C22.0421 7.83333 22.2827 8.91288 22.2827 10.1818ZM19.7884 10.1818C19.7884 9.35985 19.6652 8.66667 19.419 8.10227C19.1766 7.53788 18.8338 7.10985 18.3906 6.81818C17.9474 6.52652 17.4285 6.38068 16.8338 6.38068C16.2391 6.38068 15.7202 6.52652 15.277 6.81818C14.8338 7.10985 14.4891 7.53788 14.2429 8.10227C14.0005 8.66667 13.8793 9.35985 13.8793 10.1818C13.8793 11.0038 14.0005 11.697 14.2429 12.2614C14.4891 12.8258 14.8338 13.2538 15.277 13.5455C15.7202 13.8371 16.2391 13.983 16.8338 13.983C17.4285 13.983 17.9474 13.8371 18.3906 13.5455C18.8338 13.2538 19.1766 12.8258 19.419 12.2614C19.6652 11.697 19.7884 11.0038 19.7884 10.1818ZM24.1051 16V4.36364H31.946V6.39205H26.5653V9.16477H31.5426V11.1932H26.5653V13.9716H31.9688V16H24.1051ZM36.3622 4.36364V16H33.902V4.36364H36.3622ZM48.1193 4.36364V16H45.9943L40.9318 8.67614H40.8466V16H38.3864V4.36364H40.5455L45.5682 11.6818H45.6705V4.36364H48.1193ZM57.8679 8.125C57.7884 7.84848 57.6766 7.60417 57.5327 7.39205C57.3887 7.17614 57.2126 6.99432 57.0043 6.84659C56.7997 6.69508 56.5649 6.57955 56.2997 6.5C56.0384 6.42045 55.7486 6.38068 55.4304 6.38068C54.8357 6.38068 54.313 6.52841 53.8622 6.82386C53.4152 7.11932 53.0668 7.54924 52.8168 8.11364C52.5668 8.67424 52.4418 9.35985 52.4418 10.1705C52.4418 10.9811 52.5649 11.6705 52.8111 12.2386C53.0573 12.8068 53.4058 13.2405 53.8565 13.5398C54.3073 13.8352 54.8395 13.983 55.4531 13.983C56.0099 13.983 56.4853 13.8845 56.8793 13.6875C57.277 13.4867 57.58 13.2045 57.7884 12.8409C58.0005 12.4773 58.1065 12.0473 58.1065 11.5511L58.6065 11.625H55.6065V9.77273H60.4759V11.2386C60.4759 12.2614 60.2599 13.1402 59.8281 13.875C59.3963 14.6061 58.8016 15.1705 58.044 15.5682C57.2865 15.9621 56.419 16.1591 55.4418 16.1591C54.3509 16.1591 53.3925 15.9186 52.5668 15.4375C51.741 14.9527 51.0971 14.2652 50.6349 13.375C50.1766 12.4811 49.9474 11.4205 49.9474 10.1932C49.9474 9.25 50.0838 8.40909 50.3565 7.67045C50.633 6.92803 51.0194 6.29924 51.5156 5.78409C52.0118 5.26894 52.5895 4.87689 53.2486 4.60795C53.9077 4.33901 54.6217 4.20455 55.3906 4.20455C56.0497 4.20455 56.6634 4.30114 57.2315 4.49432C57.7997 4.68371 58.3035 4.95265 58.7429 5.30114C59.1861 5.64962 59.5478 6.06439 59.8281 6.54545C60.1084 7.02273 60.2884 7.54924 60.3679 8.125H57.8679Z" fill="#333333"/>
<path d="M1.01136 16H0.511364V16.5H1.01136V16ZM1.01136 4.36364V3.86364H0.511364V4.36364H1.01136ZM7.8125 4.74432L7.60971 5.20135L7.8125 4.74432ZM9.10227 5.80114L8.68088 6.07026L8.68192 6.07187L9.10227 5.80114ZM9.26136 8.54545L9.70255 8.78075L9.70361 8.77873L9.26136 8.54545ZM8.51136 9.38636L8.79442 9.79853L8.79546 9.79781L8.51136 9.38636ZM7.43182 9.84659L7.32239 9.35871L6.93182 9.44632V9.84659H7.43182ZM7.43182 9.96023H6.93182V10.4393L7.41047 10.4598L7.43182 9.96023ZM8.67614 10.3352L8.41951 10.7643L8.42135 10.7654L8.67614 10.3352ZM9.625 11.3068L9.19282 11.5583L9.19383 11.56L9.625 11.3068ZM9.52841 14.4375L9.1059 14.1701L9.10535 14.171L9.52841 14.4375ZM8.18182 15.5795L7.96864 15.1273H7.96864L8.18182 15.5795ZM3.47159 13.9886H2.97159V14.4886H3.47159V13.9886ZM6.97727 13.5966L7.29692 13.9811L7.29962 13.9788L6.97727 13.5966ZM7.21591 11.6875L6.79301 11.9543H6.79301L7.21591 11.6875ZM6.55114 11.108L6.32992 11.5564L6.33227 11.5575L6.55114 11.108ZM3.47159 10.8977V10.3977H2.97159V10.8977H3.47159ZM3.47159 9.23295H2.97159V9.73295H3.47159V9.23295ZM6.19318 9.05682L6.39809 9.51291L6.40106 9.51156L6.19318 9.05682ZM6.81818 8.54545L6.40987 8.25682L6.40658 8.26159L6.81818 8.54545ZM6.60227 6.73864L6.2737 7.11553L6.27609 7.11759L6.60227 6.73864ZM3.47159 6.35227V5.85227H2.97159V6.35227H3.47159ZM1.01136 16H1.51136V4.36364H1.01136H0.511364V16H1.01136ZM1.01136 4.36364V4.86364H5.67045V4.36364V3.86364H1.01136V4.36364ZM5.67045 4.36364V4.86364C6.48083 4.86364 7.1205 4.98428 7.60971 5.20135L7.8125 4.74432L8.01529 4.28729C7.36056 3.99678 6.5722 3.86364 5.67045 3.86364V4.36364ZM7.8125 4.74432L7.60971 5.20135C8.10754 5.42224 8.45433 5.71553 8.68088 6.07026L9.10227 5.80114L9.52367 5.53201C9.17446 4.98523 8.6614 4.57397 8.01529 4.28729L7.8125 4.74432ZM9.10227 5.80114L8.68192 6.07187C8.91279 6.43034 9.03409 6.84959 9.03409 7.34659H9.53409H10.0341C10.0341 6.67693 9.86751 6.06587 9.52263 5.5304L9.10227 5.80114ZM9.53409 7.34659H9.03409C9.03409 7.7334 8.95715 8.05049 8.81912 8.31218L9.26136 8.54545L9.70361 8.77873C9.92922 8.35102 10.0341 7.86888 10.0341 7.34659H9.53409ZM9.26136 8.54545L8.82019 8.31016C8.67595 8.5806 8.47984 8.80052 8.22727 8.97491L8.51136 9.38636L8.79546 9.79781C9.17926 9.53281 9.48314 9.19213 9.70254 8.78075L9.26136 8.54545ZM8.51136 9.38636L8.22831 8.9742C7.97094 9.15094 7.67109 9.2805 7.32239 9.35871L7.43182 9.84659L7.54125 10.3345C8.00315 10.2309 8.423 10.0536 8.79442 9.79853L8.51136 9.38636ZM7.43182 9.84659H6.93182V9.96023H7.43182H7.93182V9.84659H7.43182ZM7.43182 9.96023L7.41047 10.4598C7.76931 10.4751 8.10339 10.5753 8.41951 10.7643L8.67614 10.3352L8.93277 9.90611C8.47616 9.63304 7.98069 9.48323 7.45317 9.46068L7.43182 9.96023ZM8.67614 10.3352L8.42135 10.7654C8.73344 10.9503 8.99051 11.2105 9.19283 11.5583L9.625 11.3068L10.0572 11.0554C9.77464 10.5698 9.39913 10.1823 8.93092 9.90501L8.67614 10.3352ZM9.625 11.3068L9.19383 11.56C9.38313 11.8824 9.48864 12.2837 9.48864 12.7841H9.98864H10.4886C10.4886 12.1405 10.3517 11.557 10.0562 11.0537L9.625 11.3068ZM9.98864 12.7841H9.48864C9.48864 13.3144 9.35823 13.7714 9.1059 14.1701L9.52841 14.4375L9.95092 14.7049C10.3122 14.1339 10.4886 13.4887 10.4886 12.7841H9.98864ZM9.52841 14.4375L9.10535 14.171C8.86069 14.5594 8.49088 14.8811 7.96864 15.1273L8.18182 15.5795L8.39499 16.0318C9.06215 15.7174 9.59007 15.2777 9.95147 14.704L9.52841 14.4375ZM8.18182 15.5795L7.96864 15.1273C7.4586 15.3677 6.80333 15.5 5.98295 15.5V16V16.5C6.905 16.5 7.71564 16.352 8.39499 16.0318L8.18182 15.5795ZM5.98295 16V15.5H1.01136V16V16.5H5.98295V16ZM3.47159 13.9886V14.4886H5.47727V13.9886V13.4886H3.47159V13.9886ZM5.47727 13.9886V14.4886C6.20699 14.4886 6.84938 14.3531 7.29691 13.9811L6.97727 13.5966L6.65764 13.2121C6.47638 13.3628 6.11876 13.4886 5.47727 13.4886V13.9886ZM6.97727 13.5966L7.29962 13.9788C7.73515 13.6115 7.94886 13.115 7.94886 12.5398H7.44886H6.94886C6.94886 12.8433 6.84818 13.0514 6.65492 13.2144L6.97727 13.5966ZM7.44886 12.5398H7.94886C7.94886 12.1337 7.84973 11.7551 7.63881 11.4207L7.21591 11.6875L6.79301 11.9543C6.89269 12.1123 6.94886 12.3019 6.94886 12.5398H7.44886ZM7.21591 11.6875L7.63881 11.4207C7.42895 11.088 7.13294 10.8351 6.77 10.6584L6.55114 11.108L6.33227 11.5575C6.54509 11.6611 6.69227 11.7945 6.79301 11.9543L7.21591 11.6875ZM6.55114 11.108L6.77235 10.6596C6.40476 10.4782 5.98648 10.3977 5.53409 10.3977V10.8977V11.3977C5.86958 11.3977 6.12933 11.4574 6.32992 11.5564L6.55114 11.108ZM5.53409 10.8977V10.3977H3.47159V10.8977V11.3977H5.53409V10.8977ZM3.47159 10.8977H2.97159V13.9886H3.47159H3.97159V10.8977H3.47159ZM3.47159 9.23295V9.73295H5.29545V9.23295V8.73295H3.47159V9.23295ZM5.29545 9.23295V9.73295C5.69088 9.73295 6.06192 9.66394 6.39809 9.5129L6.19318 9.05682L5.98827 8.60073C5.80172 8.68455 5.57427 8.73295 5.29545 8.73295V9.23295ZM6.19318 9.05682L6.40106 9.51156C6.74047 9.3564 7.02235 9.1301 7.22979 8.82932L6.81818 8.54545L6.40658 8.26159C6.31098 8.4002 6.1762 8.51481 5.9853 8.60208L6.19318 9.05682ZM6.81818 8.54545L7.22647 8.83407C7.44958 8.51845 7.55114 8.15082 7.55114 7.75568H7.05114H6.55114C6.55114 7.97418 6.49739 8.13306 6.40989 8.25684L6.81818 8.54545ZM7.05114 7.75568H7.55114C7.55114 7.20037 7.34594 6.71904 6.92846 6.35969L6.60227 6.73864L6.27609 7.11759C6.45709 7.27339 6.55114 7.47009 6.55114 7.75568H7.05114ZM6.60227 6.73864L6.93084 6.36175C6.51416 5.99849 5.96 5.85227 5.34091 5.85227V6.35227V6.85227C5.81273 6.85227 6.09948 6.96363 6.27371 7.11552L6.60227 6.73864ZM5.34091 6.35227V5.85227H3.47159V6.35227V6.85227H5.34091V6.35227ZM3.47159 6.35227H2.97159V9.23295H3.47159H3.97159V6.35227H3.47159ZM21.5611 13.4205L21.1212 13.1827L21.1204 13.1842L21.5611 13.4205ZM19.6065 15.4602L19.8531 15.8952L19.8537 15.8948L19.6065 15.4602ZM14.0497 15.4545L14.2978 15.0204L14.0497 15.4545ZM12.1009 13.4148L11.6602 13.651L12.1009 13.4148ZM12.1009 6.94318L12.5415 7.17945V7.17945L12.1009 6.94318ZM14.0497 4.90909L14.2963 5.34408L14.2978 5.34321L14.0497 4.90909ZM19.6065 4.90909L19.3585 5.34322L19.3608 5.34456L19.6065 4.90909ZM21.5611 6.94318L21.1204 7.17945L21.1212 7.1809L21.5611 6.94318ZM19.419 8.10227L18.9596 8.29961L18.9607 8.3022L19.419 8.10227ZM18.3906 6.81818L18.1158 7.23585L18.3906 6.81818ZM15.277 6.81818L15.5519 7.23585L15.277 6.81818ZM14.2429 8.10227L13.7846 7.90234L13.7835 7.90494L14.2429 8.10227ZM14.2429 12.2614L13.7835 12.4587L13.7846 12.4613L14.2429 12.2614ZM15.277 13.5455L15.5519 13.1278L15.277 13.5455ZM18.3906 13.5455L18.1158 13.1278L18.3906 13.5455ZM19.419 12.2614L18.9607 12.0614L18.9596 12.064L19.419 12.2614ZM22.2827 10.1818H21.7827C21.7827 11.3885 21.554 12.3819 21.1212 13.1827L21.5611 13.4205L22.001 13.6582C22.5303 12.6787 22.7827 11.5131 22.7827 10.1818H22.2827ZM21.5611 13.4205L21.1204 13.1842C20.6847 13.9968 20.098 14.6055 19.3593 15.0256L19.6065 15.4602L19.8537 15.8948C20.7666 15.3756 21.4829 14.6244 22.0017 13.6567L21.5611 13.4205ZM19.6065 15.4602L19.36 15.0252C18.6196 15.4449 17.7816 15.6591 16.8338 15.6591V16.1591V16.6591C17.9391 16.6591 18.9495 16.4074 19.8531 15.8952L19.6065 15.4602ZM16.8338 16.1591V15.6591C15.8785 15.6591 15.0373 15.443 14.2978 15.0204L14.0497 15.4545L13.8016 15.8887C14.706 16.4055 15.721 16.6591 16.8338 16.6591V16.1591ZM14.0497 15.4545L14.2978 15.0204C13.5628 14.6004 12.9775 13.9917 12.5415 13.1785L12.1009 13.4148L11.6602 13.651C12.1787 14.6181 12.8927 15.3693 13.8016 15.8887L14.0497 15.4545ZM12.1009 13.4148L12.5415 13.1785C12.1118 12.3771 11.8849 11.385 11.8849 10.1818H11.3849H10.8849C10.8849 11.509 11.1353 12.6721 11.6602 13.651L12.1009 13.4148ZM11.3849 10.1818H11.8849C11.8849 8.9746 12.1119 7.98064 12.5415 7.17945L12.1009 6.94318L11.6602 6.70691C11.1352 7.68602 10.8849 8.85116 10.8849 10.1818H11.3849ZM12.1009 6.94318L12.5415 7.17945C12.9774 6.36654 13.5622 5.76016 14.2963 5.34407L14.0497 4.90909L13.8032 4.47411C12.8933 4.98984 12.1789 5.73952 11.6602 6.70692L12.1009 6.94318ZM14.0497 4.90909L14.2978 5.34321C15.0373 4.92061 15.8785 4.70455 16.8338 4.70455V4.20455V3.70455C15.721 3.70455 14.706 3.95818 13.8016 4.47497L14.0497 4.90909ZM16.8338 4.20455V4.70455C17.7809 4.70455 18.6183 4.92029 19.3585 5.34321L19.6065 4.90909L19.8546 4.47497C18.9508 3.9585 17.9398 3.70455 16.8338 3.70455V4.20455ZM19.6065 4.90909L19.3608 5.34456C20.0986 5.76081 20.6849 6.36713 21.1204 7.17945L21.5611 6.94318L22.0017 6.70692C21.4827 5.73893 20.766 4.98919 19.8522 4.47362L19.6065 4.90909ZM21.5611 6.94318L21.1212 7.1809C21.554 7.98176 21.7827 8.97518 21.7827 10.1818H22.2827H22.7827C22.7827 8.85058 22.5303 7.68491 22.001 6.70546L21.5611 6.94318ZM19.7884 10.1818H20.2884C20.2884 9.31288 20.1586 8.54713 19.8773 7.90235L19.419 8.10227L18.9607 8.3022C19.1719 8.7862 19.2884 9.40682 19.2884 10.1818H19.7884ZM19.419 8.10227L19.8784 7.90494C19.6036 7.26517 19.2027 6.75407 18.6655 6.40052L18.3906 6.81818L18.1158 7.23585C18.4649 7.46563 18.7496 7.81059 18.9596 8.2996L19.419 8.10227ZM18.3906 6.81818L18.6655 6.40052C18.1311 6.04879 17.514 5.88068 16.8338 5.88068V6.38068V6.88068C17.343 6.88068 17.7638 7.00424 18.1158 7.23585L18.3906 6.81818ZM16.8338 6.38068V5.88068C16.1536 5.88068 15.5366 6.04879 15.0021 6.40052L15.277 6.81818L15.5519 7.23585C15.9038 7.00424 16.3246 6.88068 16.8338 6.88068V6.38068ZM15.277 6.81818L15.0021 6.40052C14.4656 6.75358 14.0632 7.26373 13.7846 7.90235L14.2429 8.10227L14.7012 8.3022C14.915 7.81203 15.202 7.46612 15.5519 7.23585L15.277 6.81818ZM14.2429 8.10227L13.7835 7.90494C13.5069 8.54893 13.3793 9.3137 13.3793 10.1818H13.8793H14.3793C14.3793 9.406 14.4941 8.78441 14.7023 8.2996L14.2429 8.10227ZM13.8793 10.1818H13.3793C13.3793 11.0499 13.5069 11.8147 13.7835 12.4587L14.2429 12.2614L14.7023 12.064C14.4941 11.5792 14.3793 10.9576 14.3793 10.1818H13.8793ZM14.2429 12.2614L13.7846 12.4613C14.0632 13.0999 14.4656 13.6101 15.0021 13.9631L15.277 13.5455L15.5519 13.1278C15.202 12.8975 14.915 12.5516 14.7012 12.0614L14.2429 12.2614ZM15.277 13.5455L15.0021 13.9631C15.5366 14.3148 16.1536 14.483 16.8338 14.483V13.983V13.483C16.3246 13.483 15.9038 13.3594 15.5519 13.1278L15.277 13.5455ZM16.8338 13.983V14.483C17.514 14.483 18.1311 14.3148 18.6655 13.9631L18.3906 13.5455L18.1158 13.1278C17.7638 13.3594 17.343 13.483 16.8338 13.483V13.983ZM18.3906 13.5455L18.6655 13.9631C19.2027 13.6096 19.6036 13.0985 19.8784 12.4587L19.419 12.2614L18.9596 12.064C18.7496 12.553 18.4649 12.898 18.1158 13.1278L18.3906 13.5455ZM19.419 12.2614L19.8773 12.4613C20.1586 11.8165 20.2884 11.0508 20.2884 10.1818H19.7884H19.2884C19.2884 10.9568 19.1719 11.5774 18.9607 12.0614L19.419 12.2614ZM24.1051 16H23.6051V16.5H24.1051V16ZM24.1051 4.36364V3.86364H23.6051V4.36364H24.1051ZM31.946 4.36364H32.446V3.86364H31.946V4.36364ZM31.946 6.39205V6.89205H32.446V6.39205H31.946ZM26.5653 6.39205V5.89205H26.0653V6.39205H26.5653ZM26.5653 9.16477H26.0653V9.66477H26.5653V9.16477ZM31.5426 9.16477H32.0426V8.66477H31.5426V9.16477ZM31.5426 11.1932V11.6932H32.0426V11.1932H31.5426ZM26.5653 11.1932V10.6932H26.0653V11.1932H26.5653ZM26.5653 13.9716H26.0653V14.4716H26.5653V13.9716ZM31.9688 13.9716H32.4688V13.4716H31.9688V13.9716ZM31.9688 16V16.5H32.4688V16H31.9688ZM24.1051 16H24.6051V4.36364H24.1051H23.6051V16H24.1051ZM24.1051 4.36364V4.86364H31.946V4.36364V3.86364H24.1051V4.36364ZM31.946 4.36364H31.446V6.39205H31.946H32.446V4.36364H31.946ZM31.946 6.39205V5.89205H26.5653V6.39205V6.89205H31.946V6.39205ZM26.5653 6.39205H26.0653V9.16477H26.5653H27.0653V6.39205H26.5653ZM26.5653 9.16477V9.66477H31.5426V9.16477V8.66477H26.5653V9.16477ZM31.5426 9.16477H31.0426V11.1932H31.5426H32.0426V9.16477H31.5426ZM31.5426 11.1932V10.6932H26.5653V11.1932V11.6932H31.5426V11.1932ZM26.5653 11.1932H26.0653V13.9716H26.5653H27.0653V11.1932H26.5653ZM26.5653 13.9716V14.4716H31.9688V13.9716V13.4716H26.5653V13.9716ZM31.9688 13.9716H31.4688V16H31.9688H32.4688V13.9716H31.9688ZM31.9688 16V15.5H24.1051V16V16.5H31.9688V16ZM36.3622 4.36364H36.8622V3.86364H36.3622V4.36364ZM36.3622 16V16.5H36.8622V16H36.3622ZM33.902 16H33.402V16.5H33.902V16ZM33.902 4.36364V3.86364H33.402V4.36364H33.902ZM36.3622 4.36364H35.8622V16H36.3622H36.8622V4.36364H36.3622ZM36.3622 16V15.5H33.902V16V16.5H36.3622V16ZM33.902 16H34.402V4.36364H33.902H33.402V16H33.902ZM33.902 4.36364V4.86364H36.3622V4.36364V3.86364H33.902V4.36364ZM48.1193 4.36364H48.6193V3.86364H48.1193V4.36364ZM48.1193 16V16.5H48.6193V16H48.1193ZM45.9943 16L45.583 16.2843L45.7321 16.5H45.9943V16ZM40.9318 8.67614L41.3431 8.39183L41.194 8.17614H40.9318V8.67614ZM40.8466 8.67614V8.17614H40.3466V8.67614H40.8466ZM40.8466 16V16.5H41.3466V16H40.8466ZM38.3864 16H37.8864V16.5H38.3864V16ZM38.3864 4.36364V3.86364H37.8864V4.36364H38.3864ZM40.5455 4.36364L40.9577 4.0807L40.8087 3.86364H40.5455V4.36364ZM45.5682 11.6818L45.1559 11.9648L45.3049 12.1818H45.5682V11.6818ZM45.6705 11.6818V12.1818H46.1705V11.6818H45.6705ZM45.6705 4.36364V3.86364H45.1705V4.36364H45.6705ZM48.1193 4.36364H47.6193V16H48.1193H48.6193V4.36364H48.1193ZM48.1193 16V15.5H45.9943V16V16.5H48.1193V16ZM45.9943 16L46.4056 15.7157L41.3431 8.39183L40.9318 8.67614L40.5205 8.96044L45.583 16.2843L45.9943 16ZM40.9318 8.67614V8.17614H40.8466V8.67614V9.17614H40.9318V8.67614ZM40.8466 8.67614H40.3466V16H40.8466H41.3466V8.67614H40.8466ZM40.8466 16V15.5H38.3864V16V16.5H40.8466V16ZM38.3864 16H38.8864V4.36364H38.3864H37.8864V16H38.3864ZM38.3864 4.36364V4.86364H40.5455V4.36364V3.86364H38.3864V4.36364ZM40.5455 4.36364L40.1332 4.64657L45.1559 11.9648L45.5682 11.6818L45.9804 11.3989L40.9577 4.0807L40.5455 4.36364ZM45.5682 11.6818V12.1818H45.6705V11.6818V11.1818H45.5682V11.6818ZM45.6705 11.6818H46.1705V4.36364H45.6705H45.1705V11.6818H45.6705ZM45.6705 4.36364V4.86364H48.1193V4.36364V3.86364H45.6705V4.36364ZM57.8679 8.125L57.3874 8.26323L57.4915 8.625H57.8679V8.125ZM57.5327 7.39205L57.1166 7.6694L57.1189 7.6728L57.5327 7.39205ZM57.0043 6.84659L56.7066 7.24846L56.715 7.25446L57.0043 6.84659ZM56.2997 6.5L56.1541 6.97834L56.156 6.97891L56.2997 6.5ZM53.8622 6.82386L53.5881 6.40568L53.5865 6.40675L53.8622 6.82386ZM52.8168 8.11364L53.2734 8.31728L53.2739 8.31614L52.8168 8.11364ZM53.8565 13.5398L53.58 13.9563L53.5824 13.9579L53.8565 13.5398ZM56.8793 13.6875L57.1029 14.1347L57.1046 14.1339L56.8793 13.6875ZM57.7884 12.8409L57.3564 12.589L57.3545 12.5924L57.7884 12.8409ZM58.1065 11.5511L58.1796 11.0565L57.6065 10.9718V11.5511H58.1065ZM58.6065 11.625V12.125L58.6796 11.1304L58.6065 11.625ZM55.6065 11.625H55.1065V12.125H55.6065V11.625ZM55.6065 9.77273V9.27273H55.1065V9.77273H55.6065ZM60.4759 9.77273H60.9759V9.27273H60.4759V9.77273ZM59.8281 13.875L60.2586 14.1293L60.2592 14.1283L59.8281 13.875ZM58.044 15.5682L58.2747 16.0118L58.2765 16.0109L58.044 15.5682ZM52.5668 15.4375L52.3136 15.8687L52.3151 15.8695L52.5668 15.4375ZM50.6349 13.375L50.19 13.6031L50.1912 13.6054L50.6349 13.375ZM50.3565 7.67045L49.888 7.49594L49.8875 7.49727L50.3565 7.67045ZM51.5156 5.78409L51.8757 6.13096V6.13096L51.5156 5.78409ZM53.2486 4.60795L53.0597 4.14501V4.14501L53.2486 4.60795ZM57.2315 4.49432L57.0706 4.96771L57.0734 4.96866L57.2315 4.49432ZM58.7429 5.30114L58.4322 5.69289L58.4338 5.69418L58.7429 5.30114ZM59.8281 6.54545L59.3961 6.79718L59.397 6.79867L59.8281 6.54545ZM60.3679 8.125V8.625H60.9417L60.8632 8.05657L60.3679 8.125ZM57.8679 8.125L58.3484 7.98677C58.256 7.66566 58.1234 7.37209 57.9464 7.11129L57.5327 7.39205L57.1189 7.6728C57.2298 7.83625 57.3207 8.03131 57.3874 8.26323L57.8679 8.125ZM57.5327 7.39205L57.9487 7.11469C57.7714 6.84872 57.5525 6.62241 57.2935 6.43872L57.0043 6.84659L56.715 7.25446C56.8727 7.36623 57.0061 7.50355 57.1166 7.6694L57.5327 7.39205ZM57.0043 6.84659L57.3019 6.44481C57.047 6.25599 56.7591 6.11579 56.4434 6.02109L56.2997 6.5L56.156 6.97891C56.3707 7.0433 56.5525 7.13416 56.7066 7.24837L57.0043 6.84659ZM56.2997 6.5L56.4453 6.02166C56.1297 5.92562 55.79 5.88068 55.4304 5.88068V6.38068V6.88068C55.7072 6.88068 55.947 6.91529 56.1541 6.97834L56.2997 6.5ZM55.4304 6.38068V5.88068C54.7488 5.88068 54.1287 6.05139 53.5881 6.40569L53.8622 6.82386L54.1363 7.24204C54.4973 7.00543 54.9226 6.88068 55.4304 6.88068V6.38068ZM53.8622 6.82386L53.5865 6.40675C53.0482 6.76257 52.6423 7.27294 52.3596 7.91114L52.8168 8.11364L53.2739 8.31614C53.4912 7.82555 53.7823 7.47606 54.1379 7.24097L53.8622 6.82386ZM52.8168 8.11364L52.3601 7.90999C52.0739 8.55172 51.9418 9.3111 51.9418 10.1705H52.4418H52.9418C52.9418 9.4086 53.0596 8.79676 53.2734 8.31728L52.8168 8.11364ZM52.4418 10.1705H51.9418C51.9418 11.0293 52.0719 11.7903 52.3523 12.4374L52.8111 12.2386L53.2699 12.0398C53.0578 11.5506 52.9418 10.9328 52.9418 10.1705H52.4418ZM52.8111 12.2386L52.3523 12.4374C52.6312 13.0811 53.0376 13.5962 53.58 13.9563L53.8565 13.5398L54.1331 13.1232C53.774 12.8848 53.4833 12.5325 53.2699 12.0398L52.8111 12.2386ZM53.8565 13.5398L53.5824 13.9579C54.1255 14.3139 54.756 14.483 55.4531 14.483V13.983V13.483C54.923 13.483 54.4891 13.3565 54.1306 13.1216L53.8565 13.5398ZM55.4531 13.983V14.483C56.0676 14.483 56.6236 14.3743 57.1029 14.1347L56.8793 13.6875L56.6557 13.2403C56.347 13.3946 55.9523 13.483 55.4531 13.483V13.983ZM56.8793 13.6875L57.1046 14.1339C57.5839 13.8919 57.9621 13.5435 58.2222 13.0895L57.7884 12.8409L57.3545 12.5924C57.198 12.8656 56.9701 13.0816 56.654 13.2411L56.8793 13.6875ZM57.7884 12.8409L58.2202 13.0928C58.4844 12.6401 58.6065 12.1199 58.6065 11.5511H58.1065H57.6065C57.6065 11.9748 57.5166 12.3145 57.3565 12.589L57.7884 12.8409ZM58.1065 11.5511L58.0335 12.0458L58.5335 12.1196L58.6065 11.625L58.6796 11.1304L58.1796 11.0565L58.1065 11.5511ZM58.6065 11.625V11.125H55.6065V11.625V12.125H58.6065V11.625ZM55.6065 11.625H56.1065V9.77273H55.6065H55.1065V11.625H55.6065ZM55.6065 9.77273V10.2727H60.4759V9.77273V9.27273H55.6065V9.77273ZM60.4759 9.77273H59.9759V11.2386H60.4759H60.9759V9.77273H60.4759ZM60.4759 11.2386H59.9759C59.9759 12.1901 59.7755 12.9777 59.397 13.6217L59.8281 13.875L60.2592 14.1283C60.7444 13.3026 60.9759 12.3326 60.9759 11.2386H60.4759ZM59.8281 13.875L59.3976 13.6207C59.0134 14.2711 58.4876 14.7706 57.8116 15.1255L58.044 15.5682L58.2765 16.0109C59.1156 15.5703 59.7792 14.941 60.2586 14.1293L59.8281 13.875ZM58.044 15.5682L57.8134 15.1246C57.1367 15.4764 56.3504 15.6591 55.4418 15.6591V16.1591V16.6591C56.4877 16.6591 57.4362 16.4478 58.2747 16.0118L58.044 15.5682ZM55.4418 16.1591V15.6591C54.4266 15.6591 53.5575 15.436 52.8185 15.0055L52.5668 15.4375L52.3151 15.8695C53.2275 16.4011 54.2752 16.6591 55.4418 16.6591V16.1591ZM52.5668 15.4375L52.8199 15.0063C52.0793 14.5715 51.4996 13.9554 51.0787 13.1446L50.6349 13.375L50.1912 13.6054C50.6945 14.5749 51.4027 15.3338 52.3136 15.8687L52.5668 15.4375ZM50.6349 13.375L51.0799 13.1469C50.6649 12.3375 50.4474 11.3585 50.4474 10.1932H49.9474H49.4474C49.4474 11.4824 49.6883 12.6246 50.19 13.6031L50.6349 13.375ZM49.9474 10.1932H50.4474C50.4474 9.29772 50.5769 8.51707 50.8256 7.84364L50.3565 7.67045L49.8875 7.49727C49.5907 8.30111 49.4474 9.20228 49.4474 10.1932H49.9474ZM50.3565 7.67045L50.8251 7.84497C51.0803 7.15988 51.432 6.59163 51.8757 6.13096L51.5156 5.78409L51.1555 5.43722C50.6068 6.00685 50.1858 6.69618 49.888 7.49594L50.3565 7.67045ZM51.5156 5.78409L51.8757 6.13096C52.3238 5.66576 52.8432 5.31337 53.4375 5.0709L53.2486 4.60795L53.0597 4.14501C52.3357 4.44041 51.6998 4.87212 51.1555 5.43722L51.5156 5.78409ZM53.2486 4.60795L53.4375 5.0709C54.0319 4.82833 54.6812 4.70455 55.3906 4.70455V4.20455V3.70455C54.5621 3.70455 53.7834 3.8497 53.0597 4.14501L53.2486 4.60795ZM55.3906 4.20455V4.70455C56.0003 4.70455 56.5591 4.79379 57.0706 4.9677L57.2315 4.49432L57.3925 4.02093C56.7676 3.80848 56.0991 3.70455 55.3906 3.70455V4.20455ZM57.2315 4.49432L57.0734 4.96866C57.5901 5.14088 58.0415 5.38301 58.4322 5.69288L58.7429 5.30114L59.0536 4.90939C58.5655 4.52229 58.0093 4.22654 57.3896 4.01998L57.2315 4.49432ZM58.7429 5.30114L58.4338 5.69418C58.8281 6.00423 59.1479 6.37125 59.3961 6.79718L59.8281 6.54545L60.2601 6.29373C59.9477 5.75754 59.544 5.29502 59.052 4.90809L58.7429 5.30114ZM59.8281 6.54545L59.397 6.79867C59.6423 7.21635 59.8016 7.67957 59.8726 8.19343L60.3679 8.125L60.8632 8.05657C60.7751 7.41892 60.5746 6.82911 60.2593 6.29224L59.8281 6.54545ZM60.3679 8.125V7.625H57.8679V8.125V8.625H60.3679V8.125Z" fill="#333333" mask="url(#path-1-outside-1_28_128)"/>
</svg>
