<svg width="38" height="13" viewBox="0 0 38 13" fill="none" xmlns="http://www.w3.org/2000/svg">
<mask id="path-1-outside-1_28_132" maskUnits="userSpaceOnUse" x="0" y="2" width="37" height="9" fill="black">
<rect fill="white" y="2" width="37" height="9"/>
<path d="M0.600497 10V3.09091H3.36683C3.87512 3.09091 4.29906 3.16625 4.63867 3.31694C4.97828 3.46763 5.23355 3.67679 5.40447 3.94442C5.5754 4.20981 5.66087 4.51568 5.66087 4.86204C5.66087 5.13192 5.60689 5.3692 5.49893 5.57386C5.39098 5.77628 5.24254 5.94271 5.05362 6.07315C4.86695 6.20135 4.65329 6.29244 4.41264 6.34641V6.41388C4.67578 6.42513 4.92205 6.49935 5.15146 6.63654C5.38311 6.77373 5.5709 6.96603 5.71484 7.21342C5.85878 7.45857 5.93075 7.75095 5.93075 8.09055C5.93075 8.45715 5.83967 8.78439 5.65749 9.07227C5.47757 9.3579 5.21106 9.58393 4.85795 9.75036C4.50485 9.91679 4.06966 10 3.55238 10H0.600497ZM2.06126 8.80575H3.25213C3.65921 8.80575 3.95608 8.72816 4.14276 8.57298C4.32943 8.41554 4.42276 8.20638 4.42276 7.94549C4.42276 7.75432 4.37666 7.58564 4.28445 7.43945C4.19224 7.29326 4.06067 7.17856 3.88974 7.09535C3.72106 7.01213 3.51977 6.97053 3.28587 6.97053H2.06126V8.80575ZM2.06126 5.98207H3.14418C3.34434 5.98207 3.52202 5.94721 3.6772 5.87749C3.83464 5.80552 3.95833 5.70431 4.0483 5.57386C4.14051 5.44342 4.18661 5.28711 4.18661 5.10494C4.18661 4.85529 4.09777 4.654 3.9201 4.50107C3.74467 4.34813 3.49503 4.27166 3.17117 4.27166H2.06126V5.98207ZM13.2303 6.54545C13.2303 7.29889 13.0875 7.93987 12.8019 8.46839C12.5185 8.99692 12.1317 9.40063 11.6414 9.67951C11.1533 9.95614 10.6046 10.0945 9.99507 10.0945C9.38108 10.0945 8.83006 9.95502 8.34202 9.67614C7.85397 9.39725 7.46826 8.99355 7.18488 8.46502C6.9015 7.93649 6.75981 7.29664 6.75981 6.54545C6.75981 5.79202 6.9015 5.15104 7.18488 4.62251C7.46826 4.09399 7.85397 3.69141 8.34202 3.41477C8.83006 3.13589 9.38108 2.99645 9.99507 2.99645C10.6046 2.99645 11.1533 3.13589 11.6414 3.41477C12.1317 3.69141 12.5185 4.09399 12.8019 4.62251C13.0875 5.15104 13.2303 5.79202 13.2303 6.54545ZM11.7493 6.54545C11.7493 6.05741 11.6762 5.64583 11.5301 5.31072C11.3861 4.97562 11.1826 4.72147 10.9194 4.5483C10.6563 4.37512 10.3482 4.28853 9.99507 4.28853C9.64197 4.28853 9.33385 4.37512 9.07071 4.5483C8.80757 4.72147 8.60291 4.97562 8.45672 5.31072C8.31278 5.64583 8.24081 6.05741 8.24081 6.54545C8.24081 7.0335 8.31278 7.44508 8.45672 7.78018C8.60291 8.11529 8.80757 8.36944 9.07071 8.54261C9.33385 8.71579 9.64197 8.80238 9.99507 8.80238C10.3482 8.80238 10.6563 8.71579 10.9194 8.54261C11.1826 8.36944 11.3861 8.11529 11.5301 7.78018C11.6762 7.44508 11.7493 7.0335 11.7493 6.54545ZM14.3124 10V3.09091H18.968V4.29528H15.7732V5.94158H18.7284V7.14595H15.7732V8.79563H18.9814V10H14.3124ZM21.5901 3.09091V10H20.1293V3.09091H21.5901ZM28.5708 3.09091V10H27.3091L24.3033 5.65146H24.2527V10H22.7919V3.09091H24.0739L27.0561 7.43608H27.1168V3.09091H28.5708ZM34.3591 5.32422C34.3118 5.16004 34.2455 5.01497 34.16 4.88903C34.0746 4.76083 33.97 4.65288 33.8463 4.56516C33.7248 4.4752 33.5854 4.40661 33.428 4.35938C33.2728 4.31214 33.1007 4.28853 32.9118 4.28853C32.5587 4.28853 32.2483 4.37624 31.9807 4.55167C31.7153 4.72709 31.5084 4.98236 31.36 5.31747C31.2115 5.65033 31.1373 6.05741 31.1373 6.53871C31.1373 7.02 31.2104 7.42933 31.3566 7.76669C31.5028 8.10405 31.7097 8.36156 31.9773 8.53924C32.245 8.71467 32.5609 8.80238 32.9253 8.80238C33.2559 8.80238 33.5382 8.7439 33.7721 8.62695C34.0082 8.50775 34.1881 8.3402 34.3118 8.12429C34.4378 7.90838 34.5008 7.65311 34.5008 7.35849L34.7976 7.40234H33.0164V6.30256H35.9075V7.17294C35.9075 7.78018 35.7793 8.30196 35.5229 8.73828C35.2666 9.17235 34.9135 9.50746 34.4636 9.74361C34.0138 9.97751 33.4988 10.0945 32.9185 10.0945C32.2708 10.0945 31.7018 9.95165 31.2115 9.66602C30.7212 9.37814 30.3389 8.96993 30.0645 8.44141C29.7924 7.91063 29.6563 7.28089 29.6563 6.5522C29.6563 5.99219 29.7373 5.4929 29.8992 5.05433C30.0634 4.61352 30.2928 4.24018 30.5874 3.9343C30.882 3.62843 31.225 3.39566 31.6163 3.23597C32.0077 3.07629 32.4316 2.99645 32.8882 2.99645C33.2795 2.99645 33.6439 3.0538 33.9812 3.1685C34.3186 3.28095 34.6177 3.44064 34.8786 3.64755C35.1417 3.85446 35.3565 4.10073 35.5229 4.38636C35.6894 4.66974 35.7962 4.98236 35.8434 5.32422H34.3591Z"/>
</mask>
<path d="M0.600497 10V3.09091H3.36683C3.87512 3.09091 4.29906 3.16625 4.63867 3.31694C4.97828 3.46763 5.23355 3.67679 5.40447 3.94442C5.5754 4.20981 5.66087 4.51568 5.66087 4.86204C5.66087 5.13192 5.60689 5.3692 5.49893 5.57386C5.39098 5.77628 5.24254 5.94271 5.05362 6.07315C4.86695 6.20135 4.65329 6.29244 4.41264 6.34641V6.41388C4.67578 6.42513 4.92205 6.49935 5.15146 6.63654C5.38311 6.77373 5.5709 6.96603 5.71484 7.21342C5.85878 7.45857 5.93075 7.75095 5.93075 8.09055C5.93075 8.45715 5.83967 8.78439 5.65749 9.07227C5.47757 9.3579 5.21106 9.58393 4.85795 9.75036C4.50485 9.91679 4.06966 10 3.55238 10H0.600497ZM2.06126 8.80575H3.25213C3.65921 8.80575 3.95608 8.72816 4.14276 8.57298C4.32943 8.41554 4.42276 8.20638 4.42276 7.94549C4.42276 7.75432 4.37666 7.58564 4.28445 7.43945C4.19224 7.29326 4.06067 7.17856 3.88974 7.09535C3.72106 7.01213 3.51977 6.97053 3.28587 6.97053H2.06126V8.80575ZM2.06126 5.98207H3.14418C3.34434 5.98207 3.52202 5.94721 3.6772 5.87749C3.83464 5.80552 3.95833 5.70431 4.0483 5.57386C4.14051 5.44342 4.18661 5.28711 4.18661 5.10494C4.18661 4.85529 4.09777 4.654 3.9201 4.50107C3.74467 4.34813 3.49503 4.27166 3.17117 4.27166H2.06126V5.98207ZM13.2303 6.54545C13.2303 7.29889 13.0875 7.93987 12.8019 8.46839C12.5185 8.99692 12.1317 9.40063 11.6414 9.67951C11.1533 9.95614 10.6046 10.0945 9.99507 10.0945C9.38108 10.0945 8.83006 9.95502 8.34202 9.67614C7.85397 9.39725 7.46826 8.99355 7.18488 8.46502C6.9015 7.93649 6.75981 7.29664 6.75981 6.54545C6.75981 5.79202 6.9015 5.15104 7.18488 4.62251C7.46826 4.09399 7.85397 3.69141 8.34202 3.41477C8.83006 3.13589 9.38108 2.99645 9.99507 2.99645C10.6046 2.99645 11.1533 3.13589 11.6414 3.41477C12.1317 3.69141 12.5185 4.09399 12.8019 4.62251C13.0875 5.15104 13.2303 5.79202 13.2303 6.54545ZM11.7493 6.54545C11.7493 6.05741 11.6762 5.64583 11.5301 5.31072C11.3861 4.97562 11.1826 4.72147 10.9194 4.5483C10.6563 4.37512 10.3482 4.28853 9.99507 4.28853C9.64197 4.28853 9.33385 4.37512 9.07071 4.5483C8.80757 4.72147 8.60291 4.97562 8.45672 5.31072C8.31278 5.64583 8.24081 6.05741 8.24081 6.54545C8.24081 7.0335 8.31278 7.44508 8.45672 7.78018C8.60291 8.11529 8.80757 8.36944 9.07071 8.54261C9.33385 8.71579 9.64197 8.80238 9.99507 8.80238C10.3482 8.80238 10.6563 8.71579 10.9194 8.54261C11.1826 8.36944 11.3861 8.11529 11.5301 7.78018C11.6762 7.44508 11.7493 7.0335 11.7493 6.54545ZM14.3124 10V3.09091H18.968V4.29528H15.7732V5.94158H18.7284V7.14595H15.7732V8.79563H18.9814V10H14.3124ZM21.5901 3.09091V10H20.1293V3.09091H21.5901ZM28.5708 3.09091V10H27.3091L24.3033 5.65146H24.2527V10H22.7919V3.09091H24.0739L27.0561 7.43608H27.1168V3.09091H28.5708ZM34.3591 5.32422C34.3118 5.16004 34.2455 5.01497 34.16 4.88903C34.0746 4.76083 33.97 4.65288 33.8463 4.56516C33.7248 4.4752 33.5854 4.40661 33.428 4.35938C33.2728 4.31214 33.1007 4.28853 32.9118 4.28853C32.5587 4.28853 32.2483 4.37624 31.9807 4.55167C31.7153 4.72709 31.5084 4.98236 31.36 5.31747C31.2115 5.65033 31.1373 6.05741 31.1373 6.53871C31.1373 7.02 31.2104 7.42933 31.3566 7.76669C31.5028 8.10405 31.7097 8.36156 31.9773 8.53924C32.245 8.71467 32.5609 8.80238 32.9253 8.80238C33.2559 8.80238 33.5382 8.7439 33.7721 8.62695C34.0082 8.50775 34.1881 8.3402 34.3118 8.12429C34.4378 7.90838 34.5008 7.65311 34.5008 7.35849L34.7976 7.40234H33.0164V6.30256H35.9075V7.17294C35.9075 7.78018 35.7793 8.30196 35.5229 8.73828C35.2666 9.17235 34.9135 9.50746 34.4636 9.74361C34.0138 9.97751 33.4988 10.0945 32.9185 10.0945C32.2708 10.0945 31.7018 9.95165 31.2115 9.66602C30.7212 9.37814 30.3389 8.96993 30.0645 8.44141C29.7924 7.91063 29.6563 7.28089 29.6563 6.5522C29.6563 5.99219 29.7373 5.4929 29.8992 5.05433C30.0634 4.61352 30.2928 4.24018 30.5874 3.9343C30.882 3.62843 31.225 3.39566 31.6163 3.23597C32.0077 3.07629 32.4316 2.99645 32.8882 2.99645C33.2795 2.99645 33.6439 3.0538 33.9812 3.1685C34.3186 3.28095 34.6177 3.44064 34.8786 3.64755C35.1417 3.85446 35.3565 4.10073 35.5229 4.38636C35.6894 4.66974 35.7962 4.98236 35.8434 5.32422H34.3591Z" fill="#333333"/>
<path d="M0.600497 10H0.100497V10.5H0.600497V10ZM0.600497 3.09091V2.59091H0.100497V3.09091H0.600497ZM4.63867 3.31694L4.43588 3.77397V3.77397L4.63867 3.31694ZM5.40447 3.94442L4.98308 4.21355L4.98412 4.21516L5.40447 3.94442ZM5.49893 5.57386L5.94012 5.80916L5.94118 5.80714L5.49893 5.57386ZM5.05362 6.07315L5.33668 6.48532L5.33772 6.4846L5.05362 6.07315ZM4.41264 6.34641L4.30321 5.85854L3.91264 5.94614V6.34641H4.41264ZM4.41264 6.41388H3.91264V6.89297L4.39129 6.91343L4.41264 6.41388ZM5.15146 6.63654L4.89482 7.06566L4.89667 7.06675L5.15146 6.63654ZM5.71484 7.21342L5.28267 7.46487L5.28367 7.46659L5.71484 7.21342ZM5.65749 9.07227L5.23498 8.8049L5.23443 8.80577L5.65749 9.07227ZM4.85795 9.75035L4.64478 9.29808H4.64478L4.85795 9.75035ZM2.06126 8.80575H1.56126V9.30575H2.06126V8.80575ZM4.14276 8.57298L4.4624 8.95748L4.46511 8.95519L4.14276 8.57298ZM4.28445 7.43945L3.86155 7.7062V7.7062L4.28445 7.43945ZM3.88974 7.09535L3.66852 7.54376L3.67088 7.5449L3.88974 7.09535ZM2.06126 6.97053V6.47053H1.56126V6.97053H2.06126ZM2.06126 5.98207H1.56126V6.48207H2.06126V5.98207ZM3.6772 5.87749L3.88211 6.33358L3.88508 6.33222L3.6772 5.87749ZM4.0483 5.57386L3.63998 5.28523L3.63669 5.29L4.0483 5.57386ZM3.9201 4.50107L3.59153 4.87796L3.59391 4.88002L3.9201 4.50107ZM2.06126 4.27166V3.77166H1.56126V4.27166H2.06126ZM0.600497 10H1.1005V3.09091H0.600497H0.100497V10H0.600497ZM0.600497 3.09091V3.59091H3.36683V3.09091V2.59091H0.600497V3.09091ZM3.36683 3.09091V3.59091C3.82944 3.59091 4.17904 3.66001 4.43588 3.77397L4.63867 3.31694L4.84146 2.85991C4.41909 2.6725 3.9208 2.59091 3.36683 2.59091V3.09091ZM4.63867 3.31694L4.43588 3.77397C4.70134 3.89176 4.87348 4.04194 4.98308 4.21355L5.40447 3.94442L5.82587 3.6753C5.59361 3.31163 5.25521 3.04349 4.84146 2.85991L4.63867 3.31694ZM5.40447 3.94442L4.98412 4.21516C5.09804 4.39204 5.16087 4.60201 5.16087 4.86204H5.66087H6.16087C6.16087 4.42936 6.05276 4.02758 5.82483 3.67369L5.40447 3.94442ZM5.66087 4.86204H5.16087C5.16087 5.06418 5.12086 5.21894 5.05669 5.34059L5.49893 5.57386L5.94118 5.80714C6.09292 5.51946 6.16087 5.19966 6.16087 4.86204H5.66087ZM5.49893 5.57386L5.05776 5.33857C4.98739 5.47052 4.89283 5.57657 4.76953 5.66171L5.05362 6.07315L5.33772 6.4846C5.59225 6.30885 5.79457 6.08204 5.94011 5.80916L5.49893 5.57386ZM5.05362 6.07315L4.77057 5.66099C4.64093 5.75002 4.48726 5.81725 4.30321 5.85854L4.41264 6.34641L4.52207 6.83429C4.81932 6.76762 5.09298 6.65268 5.33668 6.48532L5.05362 6.07315ZM4.41264 6.34641H3.91264V6.41388H4.41264H4.91264V6.34641H4.41264ZM4.41264 6.41388L4.39129 6.91343C4.57009 6.92107 4.73567 6.97047 4.89483 7.06566L5.15146 6.63654L5.40809 6.20742C5.10844 6.02822 4.78147 5.92919 4.43399 5.91434L4.41264 6.41388ZM5.15146 6.63654L4.89667 7.06675C5.05026 7.15772 5.17884 7.28641 5.28267 7.46487L5.71484 7.21342L6.14702 6.96198C5.96297 6.64565 5.71596 6.38975 5.40624 6.20633L5.15146 6.63654ZM5.71484 7.21342L5.28367 7.46659C5.37449 7.62125 5.43075 7.82257 5.43075 8.09055H5.93075H6.43075C6.43075 7.67933 6.34308 7.29589 6.14601 6.96026L5.71484 7.21342ZM5.93075 8.09055H5.43075C5.43075 8.36999 5.36267 8.60312 5.23498 8.8049L5.65749 9.07227L6.08 9.33963C6.31666 8.96565 6.43075 8.5443 6.43075 8.09055H5.93075ZM5.65749 9.07227L5.23443 8.80577C5.11288 8.99874 4.92542 9.1658 4.64478 9.29808L4.85795 9.75035L5.07113 10.2026C5.4967 10.002 5.84226 9.71705 6.08055 9.33876L5.65749 9.07227ZM4.85795 9.75035L4.64478 9.29808C4.37633 9.4246 4.01882 9.5 3.55238 9.5V10V10.5C4.1205 10.5 4.63337 10.409 5.07113 10.2026L4.85795 9.75035ZM3.55238 10V9.5H0.600497V10V10.5H3.55238V10ZM2.06126 8.80575V9.30575H3.25213V8.80575V8.30575H2.06126V8.80575ZM3.25213 8.80575V9.30575C3.70332 9.30575 4.14258 9.22333 4.46239 8.95747L4.14276 8.57298L3.82312 8.18849C3.76959 8.23299 3.61509 8.30575 3.25213 8.30575V8.80575ZM4.14276 8.57298L4.46511 8.95519C4.77291 8.6956 4.92276 8.34226 4.92276 7.94549H4.42276H3.92276C3.92276 8.0705 3.88594 8.13549 3.8204 8.19076L4.14276 8.57298ZM4.42276 7.94549H4.92276C4.92276 7.67026 4.85518 7.40707 4.70735 7.1727L4.28445 7.43945L3.86155 7.7062C3.89814 7.76421 3.92276 7.83838 3.92276 7.94549H4.42276ZM4.28445 7.43945L4.70735 7.1727C4.56057 6.94002 4.35459 6.76555 4.1086 6.64579L3.88974 7.09535L3.67088 7.5449C3.76675 7.59158 3.8239 7.64651 3.86155 7.7062L4.28445 7.43945ZM3.88974 7.09535L4.11095 6.64694C3.85877 6.52254 3.57822 6.47053 3.28587 6.47053V6.97053V7.47053C3.46132 7.47053 3.58335 7.50173 3.66852 7.54375L3.88974 7.09535ZM3.28587 6.97053V6.47053H2.06126V6.97053V7.47053H3.28587V6.97053ZM2.06126 6.97053H1.56126V8.80575H2.06126H2.56126V6.97053H2.06126ZM2.06126 5.98207V6.48207H3.14418V5.98207V5.48207H2.06126V5.98207ZM3.14418 5.98207V6.48207C3.40265 6.48207 3.65212 6.4369 3.88211 6.33357L3.6772 5.87749L3.47229 5.4214C3.39192 5.45751 3.28604 5.48207 3.14418 5.48207V5.98207ZM3.6772 5.87749L3.88508 6.33222C4.11677 6.22631 4.31402 6.06926 4.4599 5.85773L4.0483 5.57386L3.63669 5.29C3.60265 5.33936 3.5525 5.38472 3.46932 5.42275L3.6772 5.87749ZM4.0483 5.57386L4.45658 5.86248C4.6166 5.63611 4.68661 5.37543 4.68661 5.10494H4.18661H3.68661C3.68661 5.19879 3.66441 5.25073 3.64001 5.28525L4.0483 5.57386ZM4.18661 5.10494H4.68661C4.68661 4.72043 4.5422 4.37682 4.24628 4.12212L3.9201 4.50107L3.59391 4.88002C3.65335 4.93118 3.68661 4.99015 3.68661 5.10494H4.18661ZM3.9201 4.50107L4.24867 4.12418C3.95201 3.86556 3.56867 3.77166 3.17116 3.77166V4.27166V4.77166C3.42139 4.77166 3.53733 4.8307 3.59153 4.87795L3.9201 4.50107ZM3.17116 4.27166V3.77166H2.06126V4.27166V4.77166H3.17116V4.27166ZM2.06126 4.27166H1.56126V5.98207H2.06126H2.56126V4.27166H2.06126ZM12.8019 8.4684L12.362 8.23067L12.3612 8.23213L12.8019 8.4684ZM11.6414 9.67951L11.8879 10.1145L11.8886 10.1141L11.6414 9.67951ZM8.34202 9.67614L8.59009 9.24201L8.34202 9.67614ZM7.18488 8.46502L6.74422 8.70129L7.18488 8.46502ZM7.18488 4.62251L7.62554 4.85878V4.85878L7.18488 4.62251ZM8.34202 3.41477L8.58858 3.84976L8.59009 3.84889L8.34202 3.41477ZM11.6414 3.41477L11.3933 3.8489L11.3957 3.85024L11.6414 3.41477ZM12.8019 4.62251L12.3612 4.85878L12.362 4.86023L12.8019 4.62251ZM11.5301 5.31072L11.0706 5.50806L11.0718 5.51065L11.5301 5.31072ZM10.9194 4.5483L10.6446 4.96596L10.9194 4.5483ZM9.07071 4.5483L9.34559 4.96596L9.07071 4.5483ZM8.45672 5.31072L7.99842 5.1108L7.99731 5.11339L8.45672 5.31072ZM8.45672 7.78018L7.9973 7.97752L7.99843 7.98011L8.45672 7.78018ZM9.07071 8.54261L9.34559 8.12495L9.07071 8.54261ZM10.9194 8.54261L10.6446 8.12495L10.9194 8.54261ZM11.5301 7.78018L11.0718 7.58026L11.0706 7.58285L11.5301 7.78018ZM13.2303 6.54545H12.7303C12.7303 7.23659 12.5994 7.79144 12.362 8.23068L12.8019 8.4684L13.2418 8.70611C13.5757 8.08829 13.7303 7.36119 13.7303 6.54545H13.2303ZM12.8019 8.4684L12.3612 8.23213C12.1194 8.68312 11.7973 9.01557 11.3942 9.2449L11.6414 9.67951L11.8886 10.1141C12.466 9.78568 12.9176 9.31072 13.2425 8.70466L12.8019 8.4684ZM11.6414 9.67951L11.3948 9.24453C10.9884 9.47491 10.5258 9.59446 9.99507 9.59446V10.0945V10.5945C10.6833 10.5945 11.3183 10.4374 11.8879 10.1145L11.6414 9.67951ZM9.99507 10.0945V9.59446C9.45984 9.59446 8.99572 9.47381 8.59009 9.24201L8.34202 9.67614L8.09395 10.1103C8.6644 10.4362 9.30233 10.5945 9.99507 10.5945V10.0945ZM8.34202 9.67614L8.59009 9.24201C8.18905 9.01285 7.86766 8.68034 7.62554 8.22875L7.18488 8.46502L6.74422 8.70129C7.06886 9.30676 7.5189 9.78166 8.09395 10.1103L8.34202 9.67614ZM7.18488 8.46502L7.62554 8.22875C7.38975 7.78898 7.25981 7.23463 7.25981 6.54545H6.75981H6.25981C6.25981 7.35864 6.41325 8.084 6.74422 8.70129L7.18488 8.46502ZM6.75981 6.54545H7.25981C7.25981 5.85375 7.38985 5.29835 7.62554 4.85878L7.18488 4.62251L6.74423 4.38625C6.41315 5.00373 6.25981 5.7303 6.25981 6.54545H6.75981ZM7.18488 4.62251L7.62554 4.85878C7.8675 4.4075 8.18843 4.07657 8.58858 3.84976L8.34202 3.41477L8.09546 2.97979C7.51952 3.30624 7.06902 3.78047 6.74422 4.38625L7.18488 4.62251ZM8.34202 3.41477L8.59009 3.84889C8.99572 3.6171 9.45984 3.49645 9.99507 3.49645V2.99645V2.49645C9.30233 2.49645 8.6644 2.65468 8.09395 2.98065L8.34202 3.41477ZM9.99507 2.99645V3.49645C10.5251 3.49645 10.9871 3.61678 11.3933 3.84889L11.6414 3.41477L11.8894 2.98065C11.3196 2.655 10.684 2.49645 9.99507 2.49645V2.99645ZM11.6414 3.41477L11.3957 3.85024C11.798 4.07722 12.1196 4.40809 12.3612 4.85878L12.8019 4.62251L13.2425 4.38625C12.9174 3.77988 12.4654 3.3056 11.8871 2.97931L11.6414 3.41477ZM12.8019 4.62251L12.362 4.86023C12.5994 5.29947 12.7303 5.85432 12.7303 6.54545H13.2303H13.7303C13.7303 5.72972 13.5757 5.00261 13.2418 4.38479L12.8019 4.62251ZM11.7493 6.54545H12.2493C12.2493 6.01044 12.1696 5.5263 11.9883 5.1108L11.5301 5.31072L11.0718 5.51065C11.1829 5.76537 11.2493 6.10438 11.2493 6.54545H11.7493ZM11.5301 5.31072L11.9895 5.11339C11.8131 4.7029 11.5515 4.3657 11.1943 4.13063L10.9194 4.5483L10.6446 4.96596C10.8137 5.07725 10.9591 5.24833 11.0706 5.50806L11.5301 5.31072ZM10.9194 4.5483L11.1943 4.13063C10.8399 3.8974 10.4337 3.78853 9.99507 3.78853V4.28853V4.78853C10.2627 4.78853 10.4727 4.85284 10.6446 4.96596L10.9194 4.5483ZM9.99507 4.28853V3.78853C9.55649 3.78853 9.15023 3.8974 8.79584 4.13063L9.07071 4.5483L9.34559 4.96596C9.51747 4.85284 9.72745 4.78853 9.99507 4.78853V4.28853ZM9.07071 4.5483L8.79584 4.13063C8.43941 4.3652 8.177 4.70146 7.99843 5.1108L8.45672 5.31072L8.91501 5.51065C9.02882 5.24977 9.17574 5.07774 9.34559 4.96596L9.07071 4.5483ZM8.45672 5.31072L7.99731 5.11339C7.81918 5.52809 7.74081 6.01126 7.74081 6.54545H8.24081H8.74081C8.74081 6.10356 8.80638 5.76357 8.91613 5.50806L8.45672 5.31072ZM8.24081 6.54545H7.74081C7.74081 7.07965 7.81918 7.56282 7.99731 7.97752L8.45672 7.78018L8.91613 7.58285C8.80638 7.32734 8.74081 6.98735 8.74081 6.54545H8.24081ZM8.45672 7.78018L7.99843 7.98011C8.177 8.38945 8.43941 8.7257 8.79584 8.96028L9.07071 8.54261L9.34559 8.12495C9.17574 8.01317 9.02882 7.84114 8.91501 7.58026L8.45672 7.78018ZM9.07071 8.54261L8.79584 8.96028C9.15023 9.19351 9.55649 9.30238 9.99507 9.30238V8.80238V8.30238C9.72745 8.30238 9.51747 8.23807 9.34559 8.12495L9.07071 8.54261ZM9.99507 8.80238V9.30238C10.4337 9.30238 10.8399 9.19351 11.1943 8.96028L10.9194 8.54261L10.6446 8.12495C10.4727 8.23807 10.2627 8.30238 9.99507 8.30238V8.80238ZM10.9194 8.54261L11.1943 8.96028C11.5515 8.72521 11.8131 8.38801 11.9895 7.97752L11.5301 7.78018L11.0706 7.58285C10.9591 7.84258 10.8137 8.01366 10.6446 8.12495L10.9194 8.54261ZM11.5301 7.78018L11.9883 7.98011C12.1696 7.56461 12.2493 7.08047 12.2493 6.54545H11.7493H11.2493C11.2493 6.98653 11.1829 7.32554 11.0718 7.58026L11.5301 7.78018ZM14.3124 10H13.8124V10.5H14.3124V10ZM14.3124 3.09091V2.59091H13.8124V3.09091H14.3124ZM18.968 3.09091H19.468V2.59091H18.968V3.09091ZM18.968 4.29528V4.79528H19.468V4.29528H18.968ZM15.7732 4.29528V3.79528H15.2732V4.29528H15.7732ZM15.7732 5.94158H15.2732V6.44158H15.7732V5.94158ZM18.7284 5.94158H19.2284V5.44158H18.7284V5.94158ZM18.7284 7.14595V7.64595H19.2284V7.14595H18.7284ZM15.7732 7.14595V6.64595H15.2732V7.14595H15.7732ZM15.7732 8.79563H15.2732V9.29563H15.7732V8.79563ZM18.9814 8.79563H19.4814V8.29563H18.9814V8.79563ZM18.9814 10V10.5H19.4814V10H18.9814ZM14.3124 10H14.8124V3.09091H14.3124H13.8124V10H14.3124ZM14.3124 3.09091V3.59091H18.968V3.09091V2.59091H14.3124V3.09091ZM18.968 3.09091H18.468V4.29528H18.968H19.468V3.09091H18.968ZM18.968 4.29528V3.79528H15.7732V4.29528V4.79528H18.968V4.29528ZM15.7732 4.29528H15.2732V5.94158H15.7732H16.2732V4.29528H15.7732ZM15.7732 5.94158V6.44158H18.7284V5.94158V5.44158H15.7732V5.94158ZM18.7284 5.94158H18.2284V7.14595H18.7284H19.2284V5.94158H18.7284ZM18.7284 7.14595V6.64595H15.7732V7.14595V7.64595H18.7284V7.14595ZM15.7732 7.14595H15.2732V8.79563H15.7732H16.2732V7.14595H15.7732ZM15.7732 8.79563V9.29563H18.9814V8.79563V8.29563H15.7732V8.79563ZM18.9814 8.79563H18.4814V10H18.9814H19.4814V8.79563H18.9814ZM18.9814 10V9.5H14.3124V10V10.5H18.9814V10ZM21.5901 3.09091H22.0901V2.59091H21.5901V3.09091ZM21.5901 10V10.5H22.0901V10H21.5901ZM20.1293 10H19.6293V10.5H20.1293V10ZM20.1293 3.09091V2.59091H19.6293V3.09091H20.1293ZM21.5901 3.09091H21.0901V10H21.5901H22.0901V3.09091H21.5901ZM21.5901 10V9.5H20.1293V10V10.5H21.5901V10ZM20.1293 10H20.6293V3.09091H20.1293H19.6293V10H20.1293ZM20.1293 3.09091V3.59091H21.5901V3.09091V2.59091H20.1293V3.09091ZM28.5708 3.09091H29.0708V2.59091H28.5708V3.09091ZM28.5708 10V10.5H29.0708V10H28.5708ZM27.3091 10L26.8978 10.2843L27.0469 10.5H27.3091V10ZM24.3033 5.65146L24.7146 5.36715L24.5655 5.15146H24.3033V5.65146ZM24.2527 5.65146V5.15146H23.7527V5.65146H24.2527ZM24.2527 10V10.5H24.7527V10H24.2527ZM22.7919 10H22.2919V10.5H22.7919V10ZM22.7919 3.09091V2.59091H22.2919V3.09091H22.7919ZM24.0739 3.09091L24.4861 2.80797L24.3371 2.59091H24.0739V3.09091ZM27.0561 7.43608L26.6439 7.71902L26.7928 7.93608H27.0561V7.43608ZM27.1168 7.43608V7.93608H27.6168V7.43608H27.1168ZM27.1168 3.09091V2.59091H26.6168V3.09091H27.1168ZM28.5708 3.09091H28.0708V10H28.5708H29.0708V3.09091H28.5708ZM28.5708 10V9.5H27.3091V10V10.5H28.5708V10ZM27.3091 10L27.7204 9.71569L24.7146 5.36715L24.3033 5.65146L23.892 5.93576L26.8978 10.2843L27.3091 10ZM24.3033 5.65146V5.15146H24.2527V5.65146V6.15146H24.3033V5.65146ZM24.2527 5.65146H23.7527V10H24.2527H24.7527V5.65146H24.2527ZM24.2527 10V9.5H22.7919V10V10.5H24.2527V10ZM22.7919 10H23.2919V3.09091H22.7919H22.2919V10H22.7919ZM22.7919 3.09091V3.59091H24.0739V3.09091V2.59091H22.7919V3.09091ZM24.0739 3.09091L23.6616 3.37385L26.6439 7.71902L27.0561 7.43608L27.4684 7.15314L24.4861 2.80797L24.0739 3.09091ZM27.0561 7.43608V7.93608H27.1168V7.43608V6.93608H27.0561V7.43608ZM27.1168 7.43608H27.6168V3.09091H27.1168H26.6168V7.43608H27.1168ZM27.1168 3.09091V3.59091H28.5708V3.09091V2.59091H27.1168V3.09091ZM34.3591 5.32422L33.8786 5.46245L33.9826 5.82422H34.3591V5.32422ZM34.16 4.88903L33.744 5.16639L33.7463 5.16978L34.16 4.88903ZM33.8463 4.56516L33.5486 4.96703L33.5571 4.97303L33.8463 4.56516ZM33.428 4.35938L33.2824 4.83772L33.2843 4.83829L33.428 4.35938ZM31.9807 4.55167L31.7066 4.13349L31.705 4.13456L31.9807 4.55167ZM31.36 5.31747L31.8166 5.52111L31.8171 5.51997L31.36 5.31747ZM31.9773 8.53924L31.7008 8.95581L31.7032 8.95742L31.9773 8.53924ZM33.7721 8.62695L33.9957 9.07417L33.9974 9.07331L33.7721 8.62695ZM34.3118 8.12429L33.8799 7.87235L33.878 7.87573L34.3118 8.12429ZM34.5008 7.35849L34.5738 6.86386L34.0008 6.7792V7.35849H34.5008ZM34.7976 7.40234V7.90234L34.8707 6.90771L34.7976 7.40234ZM33.0164 7.40234H32.5164V7.90234H33.0164V7.40234ZM33.0164 6.30256V5.80256H32.5164V6.30256H33.0164ZM35.9075 6.30256H36.4075V5.80256H35.9075V6.30256ZM35.5229 8.73828L35.9535 8.99257L35.954 8.9916L35.5229 8.73828ZM34.4636 9.74361L34.6943 10.1872L34.6961 10.1863L34.4636 9.74361ZM31.2115 9.66602L30.9583 10.0972L30.9598 10.098L31.2115 9.66602ZM30.0645 8.44141L29.6196 8.66953L29.6207 8.67179L30.0645 8.44141ZM29.8992 5.05433L29.4306 4.87982L29.4301 4.88115L29.8992 5.05433ZM30.5874 3.9343L30.9475 4.28118L30.5874 3.9343ZM31.6163 3.23597L31.4274 2.77303L31.6163 3.23597ZM33.9812 3.1685L33.8203 3.6419L33.8231 3.64284L33.9812 3.1685ZM34.8786 3.64755L34.5679 4.0393L34.5695 4.04059L34.8786 3.64755ZM35.5229 4.38636L35.0909 4.63809L35.0918 4.63957L35.5229 4.38636ZM35.8434 5.32422V5.82422H36.4173L36.3387 5.25579L35.8434 5.32422ZM34.3591 5.32422L34.8396 5.18599C34.7795 4.97721 34.6923 4.78289 34.5738 4.60828L34.16 4.88903L33.7463 5.16978C33.7987 5.24705 33.8442 5.34287 33.8786 5.46245L34.3591 5.32422ZM34.16 4.88903L34.576 4.61168C34.4572 4.43342 34.3099 4.28097 34.1355 4.1573L33.8463 4.56516L33.5571 4.97303C33.6301 5.02479 33.6919 5.08824 33.744 5.16638L34.16 4.88903ZM33.8463 4.56516L34.1439 4.16338C33.9721 4.03611 33.7796 3.94285 33.5716 3.88046L33.428 4.35938L33.2843 4.83829C33.3912 4.87036 33.4776 4.91429 33.5487 4.96694L33.8463 4.56516ZM33.428 4.35938L33.5735 3.88104C33.3641 3.81731 33.1421 3.78853 32.9118 3.78853V4.28853V4.78853C33.0593 4.78853 33.1814 4.80698 33.2824 4.83771L33.428 4.35938ZM32.9118 4.28853V3.78853C32.4718 3.78853 32.064 3.89922 31.7066 4.13349L31.9807 4.55167L32.2548 4.96984C32.4326 4.85326 32.6456 4.78853 32.9118 4.78853V4.28853ZM31.9807 4.55167L31.705 4.13456C31.3483 4.37035 31.0839 4.70606 30.9028 5.11497L31.36 5.31747L31.8171 5.51997C31.9329 5.25867 32.0823 5.08384 32.2564 4.96878L31.9807 4.55167ZM31.36 5.31747L30.9033 5.11383C30.7187 5.52781 30.6373 6.00866 30.6373 6.53871H31.1373H31.6373C31.6373 6.10616 31.7043 5.77285 31.8166 5.52111L31.36 5.31747ZM31.1373 6.53871H30.6373C30.6373 7.06824 30.7174 7.54921 30.8978 7.96549L31.3566 7.76669L31.8154 7.56789C31.7034 7.30945 31.6373 6.97177 31.6373 6.53871H31.1373ZM31.3566 7.76669L30.8978 7.96549C31.0767 8.37837 31.3415 8.71726 31.7008 8.9558L31.9773 8.53924L32.2539 8.12268C32.0779 8.00587 31.9288 7.82973 31.8154 7.56789L31.3566 7.76669ZM31.9773 8.53924L31.7032 8.95742C32.0632 9.19336 32.4775 9.30238 32.9253 9.30238V8.80238V8.30238C32.6444 8.30238 32.4267 8.23597 32.2514 8.12107L31.9773 8.53924ZM32.9253 8.80238V9.30238C33.3136 9.30238 33.6765 9.23378 33.9957 9.07417L33.7721 8.62695L33.5485 8.17974C33.3999 8.25403 33.1982 8.30238 32.9253 8.30238V8.80238ZM33.7721 8.62695L33.9974 9.07331C34.3151 8.91293 34.5702 8.67914 34.7457 8.37285L34.3118 8.12429L33.878 7.87573C33.8061 8.00126 33.7013 8.10257 33.5468 8.18059L33.7721 8.62695ZM34.3118 8.12429L34.7437 8.37622C34.9217 8.07117 35.0008 7.7257 35.0008 7.35849H34.5008H34.0008C34.0008 7.58052 33.9539 7.7456 33.8799 7.87235L34.3118 8.12429ZM34.5008 7.35849L34.4277 7.85312L34.7246 7.89698L34.7976 7.40234L34.8707 6.90771L34.5738 6.86386L34.5008 7.35849ZM34.7976 7.40234V6.90234H33.0164V7.40234V7.90234H34.7976V7.40234ZM33.0164 7.40234H33.5164V6.30256H33.0164H32.5164V7.40234H33.0164ZM33.0164 6.30256V6.80256H35.9075V6.30256V5.80256H33.0164V6.30256ZM35.9075 6.30256H35.4075V7.17294H35.9075H36.4075V6.30256H35.9075ZM35.9075 7.17294H35.4075C35.4075 7.70897 35.2949 8.1395 35.0919 8.48497L35.5229 8.73828L35.954 8.9916C36.2638 8.46443 36.4075 7.8514 36.4075 7.17294H35.9075ZM35.5229 8.73828L35.0924 8.48399C34.8837 8.83742 34.5995 9.10759 34.2312 9.30091L34.4636 9.74361L34.6961 10.1863C35.2275 9.90733 35.6494 9.50728 35.9535 8.99257L35.5229 8.73828ZM34.4636 9.74361L34.233 9.3C33.8641 9.49181 33.4302 9.59446 32.9185 9.59446V10.0945V10.5945C33.5674 10.5945 34.1636 10.4632 34.6943 10.1872L34.4636 9.74361ZM32.9185 10.0945V9.59446C32.3465 9.59446 31.8668 9.4691 31.4632 9.23398L31.2115 9.66602L30.9598 10.098C31.5368 10.4342 32.1951 10.5945 32.9185 10.5945V10.0945ZM31.2115 9.66602L31.4647 9.23485C31.0595 8.99694 30.7414 8.66017 30.5083 8.21103L30.0645 8.44141L29.6207 8.67179C29.9363 9.27969 30.3829 9.75933 30.9584 10.0972L31.2115 9.66602ZM30.0645 8.44141L30.5094 8.21329C30.2806 7.76707 30.1563 7.2189 30.1563 6.5522H29.6563H29.1563C29.1563 7.34289 29.3041 8.05419 29.6196 8.66953L30.0645 8.44141ZM29.6563 6.5522H30.1563C30.1563 6.03991 30.2304 5.60088 30.3682 5.22752L29.8992 5.05433L29.4301 4.88115C29.2441 5.38492 29.1563 5.94447 29.1563 6.5522H29.6563ZM29.8992 5.05433L30.3677 5.22885C30.5106 4.84537 30.7054 4.53257 30.9475 4.28118L30.5874 3.9343L30.2273 3.58743C29.8802 3.94778 29.6162 4.38167 29.4306 4.87982L29.8992 5.05433ZM30.5874 3.9343L30.9475 4.28118C31.194 4.02526 31.4788 3.83213 31.8052 3.69892L31.6163 3.23597L31.4274 2.77303C30.9713 2.95918 30.57 3.23161 30.2273 3.58743L30.5874 3.9343ZM31.6163 3.23597L31.8052 3.69892C32.1319 3.56561 32.4912 3.49645 32.8882 3.49645V2.99645V2.49645C32.3721 2.49645 31.8834 2.58697 31.4274 2.77303L31.6163 3.23597ZM32.8882 2.99645V3.49645C33.2301 3.49645 33.5396 3.54645 33.8203 3.64189L33.9812 3.1685L34.1422 2.69512C33.7481 2.56115 33.3289 2.49645 32.8882 2.49645V2.99645ZM33.9812 3.1685L33.8231 3.64284C34.109 3.73813 34.3557 3.87099 34.5679 4.0393L34.8786 3.64755L35.1893 3.2558C34.8797 3.01028 34.5282 2.82378 34.1393 2.69416L33.9812 3.1685ZM34.8786 3.64755L34.5695 4.04059C34.7838 4.20907 34.9566 4.40759 35.0909 4.63809L35.5229 4.38636L35.955 4.13464C35.7564 3.79388 35.4997 3.49986 35.1877 3.25451L34.8786 3.64755ZM35.5229 4.38636L35.0918 4.63957C35.2232 4.86336 35.3095 5.11269 35.3481 5.39265L35.8434 5.32422L36.3387 5.25579C36.283 4.85204 36.1555 4.47612 35.9541 4.13315L35.5229 4.38636ZM35.8434 5.32422V4.82422H34.3591V5.32422V5.82422H35.8434V5.32422Z" fill="#333333" mask="url(#path-1-outside-1_28_132)"/>
</svg>
